<?xml version="1.0" standalone="no"?>
<!DOCTYPE svg PUBLIC "-//W3C//DTD SVG 1.1//EN" "http://www.w3.org/Graphics/SVG/1.1/DTD/svg11.dtd" >
<svg xmlns="http://www.w3.org/2000/svg">
<metadata>
This is a custom SVG webfont generated by Font Squirrel.
Copyright   : Copyright 2006 Dalton Maag Ltd All rights reserved This font may not be altered in any way without prior permission of Dalton Maag Ltd DaMa is a trademark of Dalton Maag Ltd
Designer    : Fabio Ruiz Haag Dalton Maag Ltd
Foundry     : Dalton Maag Ltd
Foundry URL : httpwwwdaltonmaagcom
</metadata>
<defs>
<font id="FocoRegular" horiz-adv-x="1124" >
<font-face units-per-em="2048" ascent="1638" descent="-410" />
<missing-glyph horiz-adv-x="409" />
<glyph unicode=" "  horiz-adv-x="409" />
<glyph unicode="&#x09;" horiz-adv-x="409" />
<glyph unicode="&#xa0;" horiz-adv-x="409" />
<glyph unicode="!" horiz-adv-x="460" d="M113 90q0 53 32.5 89t85.5 36q51 0 84 -36t33 -89t-32.5 -87t-84.5 -34q-53 0 -85.5 34t-32.5 87zM139 492v882h13q6 0 13 1t13 1q57 0 97 -28.5t40 -106.5v-883q-6 -2 -14 -2h-25q-57 0 -97 29t-40 107z" />
<glyph unicode="&#x22;" horiz-adv-x="671" d="M413 893v502q27 2 31 2q25 0 47.5 -7.5t41 -22.5t27.5 -42t9 -65q0 -25 -2 -68t-4 -94t-4 -105.5t-4 -99.5h-142zM108 893v502q27 2 31 2q25 0 47.5 -7.5t41 -22.5t27.5 -42t9 -65q0 -25 -2 -68t-4 -94t-4 -105.5t-4 -99.5h-142z" />
<glyph unicode="#" horiz-adv-x="1341" d="M74 358l18 134h289l43 301h-289l19 135h288l45 307h142l-45 -307h288l46 307h141l-45 -307h278l-18 -135h-279l-43 -301h279l-19 -134h-278l-41 -299h-141l41 299h-289l-41 -299h-141l40 299h-288zM522 492h289l43 301h-289z" />
<glyph unicode="$" d="M119 135q0 23 17.5 57.5t39.5 65.5q61 -53 150 -94q78 -35 166 -39v518q-55 18 -107 41q-68 29 -120 72t-83.5 106.5t-31.5 157.5q0 92 31.5 162.5t87 118t130.5 71.5q43 14 93 21v161h126v-159q47 -6 101 -19q84 -18 143 -55q31 -20 52.5 -44t21.5 -54 q0 -25 -18.5 -53.5t-47.5 -57.5q-16 14 -43.5 36.5t-65.5 42t-89 34.5q-25 6 -54 10v-453q61 -23 121 -53q61 -31 108.5 -77t75 -110.5t27.5 -154.5q0 -102 -31.5 -180t-90 -131t-138.5 -80q-35 -10 -72 -19v-170h-126v162q-98 2 -181 25q-92 25 -145 65q-47 35 -47 76z M328 1034q0 -51 18.5 -88t54 -65.5t91.5 -51.5v404q-23 -4 -39 -12q-45 -16 -73 -44t-40 -66t-12 -77zM618 137l17 8q51 20 82 53t43 75t12 87q0 57 -15.5 100.5t-46 75t-77.5 54.5q-6 4 -15 6v-459z" />
<glyph unicode="%" horiz-adv-x="1685" d="M98 1036q0 178 87 269.5t223 91.5q154 0 232.5 -91.5t78.5 -269.5q0 -176 -86 -269t-223 -93q-147 0 -229.5 93t-82.5 269zM252 1036q0 -104 35 -167.5t121 -63.5q90 0 124.5 63.5t34.5 169.5q0 104 -34.5 167t-124.5 63q-86 0 -121 -64t-35 -168zM289 0l878 1319 q18 29 49 54.5t82 25.5q20 0 38 -2t28 -6q12 -4 22 -7l-921 -1384h-176zM958 332q0 88 24 155.5t64.5 112.5t97 68.5t124.5 23.5q143 0 226 -91t83 -269t-85 -270.5t-222 -92.5q-147 0 -229.5 92.5t-82.5 270.5zM1110 332q0 -104 36 -169t122 -65q90 0 124.5 64.5 t34.5 171.5q0 104 -34.5 166.5t-124.5 62.5q-88 0 -123 -63.5t-35 -167.5z" />
<glyph unicode="&#x26;" horiz-adv-x="1429" d="M106 383q0 92 29 166t76 132t109.5 99t130.5 68h-2q-47 61 -69 115.5t-22 126.5q0 70 29 127t77 97t112.5 61.5t136.5 21.5q86 0 145.5 -19.5t102.5 -48.5q45 -35 45 -74q0 -27 -22.5 -57.5t-39.5 -48.5h-20q-43 41 -90.5 67.5t-114.5 26.5q-74 0 -126 -42t-52 -122 q0 -53 24.5 -100t63.5 -96q78 -98 170 -211t172 -211q29 72 45 150.5t18 166.5v52q0 30 -2 57h330v-133h-180q-4 -117 -33 -228.5t-74 -197.5l262 -322q-23 -10 -49 -17t-51 -7q-80 0 -135 61l-129 147q-86 -94 -188.5 -153.5t-237.5 -59.5q-117 0 -200 34t-137 89.5 t-79 129t-25 153.5zM279 395q0 -113 70.5 -189.5t201.5 -76.5q104 0 177 46t142 136q-86 104 -167.5 208t-165.5 206q-53 -23 -100.5 -53.5t-82.5 -71.5t-55 -92.5t-20 -112.5z" />
<glyph unicode="'" horiz-adv-x="366" d="M100 893v502q27 2 31 2q25 0 47.5 -7.5t41 -22.5t27.5 -42t9 -65q0 -25 -2 -68t-4 -94t-4 -105.5t-4 -99.5h-142z" />
<glyph unicode="(" horiz-adv-x="579" d="M111 612q0 180 31.5 322.5t74.5 244t89 164t77 87.5q23 16 42 26t46 10q16 0 28.5 -2t22.5 -4q10 -4 21 -6q-12 -14 -51 -67.5t-81 -153.5t-75 -254t-33 -367q0 -223 36 -381.5t81 -263.5q53 -121 119 -203q-14 -8 -28.5 -12t-37.5 -4q-25 0 -46 9.5t-44 25.5 q-25 18 -71 73.5t-90 155t-77.5 247.5t-33.5 353z" />
<glyph unicode=")" horiz-adv-x="575" d="M20 1454q10 2 21 6q10 2 22.5 4t28.5 2q27 0 46.5 -10t41.5 -26q31 -25 77 -87.5t89 -164t75 -243.5t32 -323q0 -205 -34 -353t-78 -247.5t-90 -155t-71 -73.5q-23 -16 -44 -25.5t-46 -9.5q-23 0 -37 4t-28 12q63 82 116 203q45 104 82 263t37 382q0 213 -32.5 367 t-74.5 254t-81.5 153.5t-51.5 67.5z" />
<glyph unicode="*" horiz-adv-x="798" d="M76 1225q0 25 14 49q23 41 57 41q18 0 37 -11.5t37 -27.5l86 -80q6 -4 12.5 -14.5t6.5 -20.5q0 -25 -13.5 -33t-29.5 -8q-12 0 -37 6l-105 31q-16 4 -37 14q-28 15 -28 54zM78 963q0 39 28 53q12 6 24.5 10t23.5 8l104 33q16 4 27 4q16 0 26.5 -12t10.5 -29 q0 -14 -8.5 -25.5t-18.5 -21.5l-98 -94q-18 -18 -45 -19q-33 0 -62 45q-6 10 -9 24t-3 24zM317 799q0 14 3.5 31.5t7.5 27.5l24 94q6 23 14.5 37.5t30.5 14.5q31 0 41 -46l25 -106q4 -12 6 -25.5t2 -25.5q0 -27 -18.5 -46.5t-57.5 -19.5t-58.5 17.5t-19.5 46.5zM328 1401 q0 27 18.5 46t56.5 19q39 0 58.5 -18t19.5 -47q0 -14 -3 -30.5t-7 -27.5l-25 -98q-6 -25 -13 -37t-30 -12q-33 0 -43 47l-24 107q-4 10 -6 23.5t-2 27.5zM473 1026q0 16 10.5 28.5t26.5 12.5q10 0 27 -4l104 -33q10 -4 22.5 -8t24.5 -10q29 -14 29 -54q0 -10 -3 -23t-9 -24 q-29 -45 -62 -45q-27 0 -45 19l-98 94q-10 10 -18.5 21.5t-8.5 25.5zM473 1157q0 10 6 20.5t13 14.5l86 80q18 16 36.5 27.5t36.5 11.5q35 0 58 -41q14 -25 14 -49q0 -39 -29 -54q-20 -10 -37 -14l-104 -31q-25 -6 -37 -6q-16 0 -29.5 8t-13.5 33z" />
<glyph unicode="+" horiz-adv-x="1122" d="M162 608v164h319v328h168v-326h322v-164h-322v-329h-168v327h-319z" />
<glyph unicode="," horiz-adv-x="462" d="M72 -178q39 16 80 59t51 90q-25 16 -52.5 47t-27.5 78q0 51 28.5 85t81.5 34q59 0 88 -42t29 -101q0 -94 -41 -176t-100 -117q-35 -20 -66 -21q-48 1 -71 64z" />
<glyph unicode="-" horiz-adv-x="903" d="M143 580v21q0 11 2 22q0 10 2 20h515q18 0 37.5 -2t36 -12.5t27.5 -30.5t11 -57q0 -10 -1 -22.5t-1 -22.5q-2 -12 -2 -23h-522q-43 0 -74 24t-31 83z" />
<glyph unicode="." horiz-adv-x="460" d="M113 96q0 53 33.5 90t82.5 37q51 0 85 -36.5t34 -90.5q0 -53 -32.5 -90t-86.5 -37q-51 0 -83.5 37t-32.5 90z" />
<glyph unicode="/" horiz-adv-x="780" d="M25 0l522 1290q12 31 38.5 58.5t78.5 27.5q20 0 37.5 -2t27.5 -6q12 -4 23 -6l-551 -1362h-176z" />
<glyph unicode="0" d="M78 668q0 162 30.5 292t92 221t153.5 140t215 49q242 0 357.5 -184.5t115.5 -517.5q0 -338 -121.5 -518.5t-357.5 -180.5q-238 0 -361.5 175.5t-123.5 523.5zM266 668q0 -150 21.5 -253.5t60.5 -168t94.5 -93t122.5 -28.5q68 0 121 27.5t92 91t59.5 168t20.5 256.5 q0 154 -20.5 257t-59.5 166.5t-92 91t-121 27.5t-123 -27.5t-94 -91t-60.5 -166.5t-21.5 -257z" />
<glyph unicode="1" d="M213 1100q0 20 12.5 38.5t32.5 28.5l266 148q39 23 69 35t58 12q27 0 49.5 -9.5t32.5 -19.5v-1333h-176v1141l-287 -150q-16 20 -36.5 51t-20.5 58z" />
<glyph unicode="2" d="M119 0v143q39 31 91 77t111.5 101.5t121 118t118.5 129.5q88 102 142.5 198.5t54.5 207.5q0 68 -19.5 111.5t-53.5 71.5t-78 39t-93 11q-53 0 -100 -16t-85 -40t-68 -50.5t-50 -48.5h-31q-61 68 -61 104q0 18 10 34.5t25 29.5q12 12 44.5 36.5t82 50t113 44t138.5 18.5 q82 0 156 -20.5t129 -65.5t88 -118.5t33 -180.5q0 -80 -20.5 -151.5t-56.5 -139t-84 -129t-103 -119.5q-86 -90 -167 -167.5t-140 -124.5h483q66 0 96.5 -32t30.5 -77q0 -27 -6 -45h-852z" />
<glyph unicode="3" d="M84 143q0 23 21.5 59t50.5 74q18 -20 49 -46.5t74 -49t96 -39t117 -16.5q51 0 101 12.5t91 42t66.5 79.5t25.5 126q0 86 -34.5 135t-82 76t-95.5 34t-77 7h-73v149h73q29 0 72 8.5t84 33t70.5 69.5t29.5 119q0 197 -233 196q-55 0 -102.5 -14t-86 -34.5t-68.5 -46 t-50 -46.5h-27q-31 27 -49 53.5t-18 46.5q0 23 20.5 46.5t46.5 44.5q57 43 149.5 75.5t196.5 32.5t180 -25.5t125.5 -71.5t73 -107.5t23.5 -135.5q0 -70 -21.5 -123t-52.5 -92t-65.5 -62.5t-59.5 -35.5q31 -12 71 -35t75.5 -60.5t60 -95t24.5 -137.5q0 -90 -27.5 -167 t-85 -132t-144.5 -87t-203 -32q-74 0 -135.5 11.5t-108.5 29t-79 34.5t-48 30q-41 30 -41 67z" />
<glyph unicode="4" d="M115 354v138l547 763q35 47 67.5 76t81.5 29q45 0 76 -21v-837h63q53 0 75 -25.5t22 -64.5q0 -18 -5 -39q-2 -10 -2 -19h-153v-354h-176v354h-596zM283 504h428v590z" />
<glyph unicode="5" d="M88 139q0 27 19.5 59.5t48.5 71.5q18 -20 50 -45.5t75 -47t98 -37t121 -15.5q51 0 102 16.5t92 51t65.5 90t24.5 133.5q0 98 -30.5 156.5t-78.5 90t-105.5 42t-110.5 10.5q-70 0 -131.5 -12.5t-102.5 -26.5l-57 26l65 652h676q4 -10 5 -20.5t1 -24.5q0 -78 -37.5 -97.5 t-91.5 -19.5h-413l-35 -346q27 6 66.5 13t93.5 7q94 0 178 -22.5t148.5 -74.5t102.5 -136t38 -207q0 -94 -30 -177t-88.5 -144.5t-147.5 -97.5t-205 -36q-80 0 -142.5 11.5t-107.5 27t-74 31.5t-41 27q-16 12 -28.5 29t-12.5 42z" />
<glyph unicode="6" d="M127 555q0 186 49 328.5t129 242t180.5 157.5t202.5 79q31 6 59.5 8t51.5 2q90 0 90 -86q0 -12 -1 -24.5t-3 -22.5t-2 -20q-16 2 -31 2h-31q-129 0 -218 -49.5t-147.5 -118t-88 -140t-39.5 -114.5q18 16 48 36.5t68.5 38t87 29.5t103.5 12q98 0 168.5 -37.5t117 -101 t69 -146.5t22.5 -173q0 -117 -33 -208t-91.5 -153.5t-138 -94.5t-171.5 -32q-227 0 -339 152.5t-112 433.5zM303 522q0 -61 10.5 -132t41 -130t85 -99t144.5 -40q113 0 179 87t66 236q0 68 -13 126.5t-42 102.5t-75 68.5t-111 24.5q-51 0 -96.5 -14.5t-82 -34t-62 -41 t-38.5 -33.5q-4 -23 -5 -57.5t-1 -63.5z" />
<glyph unicode="7" d="M106 1223v20q0 49 31 80t94 31h693q41 0 60.5 -14.5t19.5 -55.5v-49l-586 -1235h-193l568 1188h-682q-2 8 -2 16q-3 9 -3 19z" />
<glyph unicode="8" d="M90 367q0 57 19.5 110t51.5 99.5t75 82t92 56.5q-94 41 -143.5 122t-49.5 173q0 88 36 155.5t96.5 112.5t136 68.5t155.5 23.5q84 0 161 -20.5t135 -63.5t93 -108.5t35 -155.5q0 -96 -52 -176t-145 -127q55 -18 99.5 -53t76 -81t49 -99.5t17.5 -110.5q0 -104 -37 -181 t-100.5 -127.5t-148.5 -74t-183 -23.5q-104 0 -190 23.5t-148.5 73t-96.5 124.5t-34 177zM266 371q0 -125 82 -190.5t211 -65.5t210 68.5t81 193.5q0 117 -78 188.5t-213 71.5q-68 0 -122 -20.5t-92 -55.5t-58.5 -84t-20.5 -106zM309 1008q0 -47 19.5 -86t53.5 -69t79 -46 t98 -16q51 0 96 17t79 47t53.5 70t19.5 87q0 51 -19.5 92t-53.5 67.5t-79 41t-96 14.5t-97 -14.5t-80 -42t-53.5 -68.5t-19.5 -94z" />
<glyph unicode="9" d="M113 889q0 117 32.5 207t91 150.5t138.5 92t174 31.5q113 0 196.5 -40t140 -114.5t85 -180t28.5 -236.5q0 -205 -55 -360.5t-146 -260t-209 -157t-243 -52.5q-51 0 -79.5 16.5t-28.5 67.5q0 20 1 38t3 32q16 -2 30 -2h31q129 0 219 48t148.5 116.5t87 142.5t37.5 125 q-18 -16 -44 -35.5t-62 -37t-81 -30t-100 -12.5q-104 0 -179 38t-123 101.5t-70.5 144.5t-22.5 167zM295 903q0 -143 56.5 -231t191.5 -88q51 0 96 15t80 39t60.5 49.5t35.5 47.5q2 18 3 42t1 50q0 57 -10 125t-41 127.5t-85 99.5t-142 40q-111 0 -178.5 -84.5t-67.5 -231.5 z" />
<glyph unicode=":" horiz-adv-x="460" d="M113 96q0 53 33.5 90t82.5 37q51 0 85 -36.5t34 -90.5q0 -53 -32.5 -90t-86.5 -37q-51 0 -83.5 37t-32.5 90zM113 870q0 53 33.5 90t82.5 37q51 0 85 -36.5t34 -90.5q0 -53 -32.5 -90t-86.5 -37q-51 0 -83.5 37t-32.5 90z" />
<glyph unicode=";" horiz-adv-x="487" d="M72 -178q39 16 80 59t51 90q-25 16 -52.5 47t-27.5 78q0 51 28.5 85t81.5 34q59 0 88 -42t29 -101q0 -94 -41 -176t-100 -117q-35 -20 -66 -21q-48 1 -71 64zM140 870q0 53 33.5 90t82.5 37q51 0 85 -36.5t34 -90.5q0 -53 -32.5 -90t-86.5 -37q-51 0 -83.5 37t-32.5 90z " />
<glyph unicode="&#x3c;" d="M176 612v152l768 352v-178l-534 -250l534 -250v-184z" />
<glyph unicode="=" horiz-adv-x="1120" d="M158 416v164h805v-164h-805zM158 788v166h805v-163z" />
<glyph unicode="&#x3e;" d="M176 254v184l537 252l-537 244v182l768 -352v-152z" />
<glyph unicode="?" horiz-adv-x="899" d="M43 1233q0 31 35 55q14 12 44 30.5t72 36t98 30t128 12.5q82 0 154.5 -21.5t128 -65.5t88 -112t32.5 -160q0 -61 -16 -111t-43 -93t-59.5 -79t-65.5 -67q-72 -61 -125 -121.5t-53 -126.5q0 -16 2 -38.5t6 -43.5q-8 -2 -19 -2h-22q-55 0 -85 34t-30 93q0 82 50.5 145.5 t115.5 123.5q61 57 111.5 123.5t50.5 156.5q0 57 -19.5 97t-53 66t-76.5 37t-93 11q-55 0 -99 -12t-80 -30.5t-61.5 -39t-39.5 -35.5h-25q-16 23 -33.5 51.5t-17.5 55.5zM279 94q0 53 33.5 90t82.5 37q53 0 87 -37t34 -90t-33.5 -89t-87.5 -36q-49 0 -82.5 36t-33.5 89z" />
<glyph unicode="@" horiz-adv-x="1622" d="M86 1065q0 20 24.5 46t63.5 52q41 23 96.5 46.5t121 43t141 31.5t157.5 12q193 0 339.5 -58t244.5 -159.5t147 -239t49 -294.5q0 -178 -49 -323.5t-143 -248t-232.5 -159t-314.5 -56.5q-143 0 -246.5 31t-170 86t-98.5 131t-32 166q0 84 30 145.5t77 104.5t107.5 69.5 t123 42t121.5 20.5t102 7h50q25 0 41 -2q-2 45 -12.5 87t-36 73t-68.5 49t-109 18q-78 0 -144.5 -25.5t-109.5 -58.5h-30q-20 27 -29.5 47.5t-9.5 43.5t29.5 46t78.5 42.5t110.5 32t125.5 12.5q172 0 269 -82t97 -264v-291q0 -57 15.5 -82t79.5 -27v-76q-23 -6 -45.5 -9 t-40.5 -3q-68 0 -117 36t-49 122v192h-41q-31 0 -77 -3t-96.5 -12t-99.5 -26.5t-89 -47t-64.5 -75t-24.5 -106.5q0 -37 14.5 -84t57.5 -88t122 -69.5t208 -28.5q119 0 223 36.5t180 114.5t120 200t44 292q0 150 -48 262.5t-133 188t-202 113.5t-254 38q-96 0 -180 -19.5 t-151.5 -47t-115 -56.5t-71.5 -49h-23q-23 18 -38 44t-15 46z" />
<glyph unicode="A" horiz-adv-x="1280" d="M45 0l496 1358q14 6 42.5 12t57.5 6q39 0 70.5 -17.5t50.5 -66.5l473 -1292h-186l-138 369h-553l-133 -369h-180zM403 514h461l-229 653z" />
<glyph unicode="B" horiz-adv-x="1161" d="M160 0v1366q84 8 159.5 13t174.5 5q141 0 238 -22.5t156.5 -65.5t86 -107.5t26.5 -146.5q0 -72 -20 -126t-50 -93t-65 -63.5t-63 -36.5q33 -8 79 -27.5t86 -56.5t68.5 -96.5t28.5 -149.5q0 -115 -39 -190.5t-110.5 -120.5t-174 -63.5t-227.5 -18.5h-354zM338 147h129 q92 0 168 8.5t131 34t86 74.5t31 131q0 72 -29 118t-78 73.5t-111.5 38t-129.5 10.5h-197v-488zM338 780h194q127 0 209 66.5t82 189.5q0 63 -25.5 103.5t-70.5 62t-107.5 29.5t-136.5 8q-49 0 -86 -2t-59 -6v-451z" />
<glyph unicode="C" horiz-adv-x="1220" d="M125 680q0 154 36 286t110.5 227t188 149.5t271.5 54.5q80 0 153.5 -18.5t130 -47t90.5 -63.5t34 -66q0 -27 -17.5 -56.5t-36.5 -51.5h-36q-23 25 -52.5 51t-68.5 46.5t-88 34t-109 13.5q-123 0 -204 -48t-129 -127t-68.5 -178.5t-20.5 -203.5q0 -106 21.5 -206.5 t73 -179.5t135.5 -126t209 -47q68 0 123 19.5t95 46t66.5 51t36.5 36.5q23 -18 48.5 -52t25.5 -58q0 -18 -8.5 -31.5t-20.5 -30.5q-10 -10 -38.5 -32.5t-77 -45t-115 -40t-154.5 -17.5q-158 0 -272.5 53.5t-188 147.5t-108.5 225t-35 285z" />
<glyph unicode="D" horiz-adv-x="1296" d="M162 0v1364q109 12 191.5 16t154.5 4q197 0 328 -53t209.5 -145t111.5 -215t33 -262q0 -186 -61.5 -341t-192.5 -251q-80 -57 -192.5 -87t-262.5 -30h-319zM340 152h170q137 0 232.5 43t153.5 116.5t84 173t26 213.5q0 115 -22.5 212.5t-80 168t-153 109.5t-238.5 39 q-41 0 -85 -2t-87 -8v-1065z" />
<glyph unicode="E" horiz-adv-x="1042" d="M160 0v1370h790q4 -12 4 -21v-22q0 -47 -26.5 -78.5t-98.5 -31.5h-491v-422h465v-158h-465v-483h520q68 0 97.5 -32t29.5 -79q0 -8 -1 -15.5t-1 -13.5v-14h-823z" />
<glyph unicode="F" horiz-adv-x="972" d="M160 0v1370h790q4 -12 4 -21v-22q0 -47 -26.5 -78.5t-100.5 -31.5h-489v-410h465v-156h-465v-651h-178z" />
<glyph unicode="G" horiz-adv-x="1333" d="M125 690q0 154 37 284t112.5 223t193.5 146.5t277 53.5q74 0 146 -17.5t127 -45t90 -61.5t35 -65q0 -25 -16.5 -55.5t-36.5 -54.5h-35q-18 23 -49 47t-71 45.5t-90 35t-112 13.5q-125 0 -207 -47t-131 -124t-68.5 -175t-19.5 -203q0 -109 21.5 -211t74 -182t137.5 -129 t212 -49q59 0 106 10t83 24.5t60.5 30t36.5 27.5v360h-286v146h456v-580q-14 -18 -52 -46t-98.5 -55.5t-141 -47t-183.5 -19.5q-158 0 -272.5 53.5t-189 149.5t-110.5 228t-36 290z" />
<glyph unicode="H" horiz-adv-x="1331" d="M162 0v1372q8 0 16 2q8 0 16.5 1t18.5 1q20 0 43 -5t41 -18.5t30.5 -39t12.5 -66.5v-456h651v581q8 0 17 2q8 0 16 1t18 1q18 0 40 -5t41.5 -18.5t32.5 -39t13 -66.5v-1247h-178v635h-651v-635h-178z" />
<glyph unicode="I" horiz-adv-x="491" d="M156 0v1372q8 0 16 2q8 0 16.5 1t18.5 1q18 0 39.5 -5t42 -18.5t34 -39t13.5 -66.5v-1247h-180z" />
<glyph unicode="J" horiz-adv-x="507" d="M-96 -239q0 13 2 24q150 0 208 59.5t58 198.5v1327q10 4 24.5 5t24.5 1q18 0 41 -4t42.5 -18.5t32.5 -39t13 -63.5v-1110q0 -43 -2 -88t-6 -92q-6 -59 -27.5 -117.5t-61.5 -104.5t-99.5 -75t-141.5 -29q-66 0 -87 29t-21 72v25z" />
<glyph unicode="K" horiz-adv-x="1150" d="M162 0v1372q8 0 16 2q8 0 15.5 1t17.5 1q18 0 39.5 -5t42 -18.5t34 -39t13.5 -66.5v-1247h-178zM377 696v66l489 547q33 35 58.5 49t56.5 14q20 0 41.5 -7t38.5 -15q20 -8 39 -21l-531 -592l570 -729q-25 -10 -56.5 -17t-56.5 -7q-53 0 -87 18t-65 57z" />
<glyph unicode="L" horiz-adv-x="980" d="M160 0v1372q8 0 16 2q8 0 16.5 1t18.5 1q18 0 39.5 -5t41 -18.5t33 -39t13.5 -66.5v-1091h475q66 0 94.5 -32t28.5 -77q0 -10 -1 -18.5t-1 -14.5v-14h-774z" />
<glyph unicode="M" horiz-adv-x="1626" d="M127 0l102 1364q14 4 37 8t51 4q43 0 69 -20.5t42 -55.5l381 -827l381 823q23 49 56.5 64.5t66.5 15.5q27 0 51.5 -4t38.5 -8l96 -1364h-168l-74 1077l-364 -766h-174l-346 731l-76 -1042h-170z" />
<glyph unicode="N" horiz-adv-x="1351" d="M162 0v1366q12 4 34.5 7t45.5 3q45 0 70.5 -15t47.5 -52l664 -1037v1100q6 0 14 2q6 0 15.5 1t19.5 1q18 0 39 -5t38 -18.5t28.5 -39t11.5 -66.5v-1247h-166l-696 1063v-1063h-166z" />
<glyph unicode="O" horiz-adv-x="1431" d="M125 690q0 141 35 269t108.5 225.5t187 155t271.5 57.5q154 0 263.5 -55.5t180 -150.5t103.5 -224t33 -275q0 -147 -34 -278t-105.5 -229.5t-185.5 -157t-273 -58.5q-158 0 -269.5 59.5t-181.5 159t-101.5 230.5t-31.5 272zM313 690q0 -111 20.5 -212t68 -180t124 -125 t191.5 -46q113 0 190.5 46t124.5 125t67.5 180.5t20.5 211.5q0 111 -20.5 209t-66.5 173t-122.5 118t-187.5 43q-117 0 -194.5 -43t-126 -118t-69 -173t-20.5 -209z" />
<glyph unicode="P" horiz-adv-x="1101" d="M160 0v1366q76 8 161 13t162 5q281 0 412 -100t131 -299q0 -133 -44 -221t-120 -141.5t-174 -75t-205 -21.5h-145v-526h-178zM332 1227h4v-551h82q100 0 179 12t133 45t83 91.5t29 150.5q0 76 -27 126t-73 79.5t-109.5 42t-134.5 12.5q-53 0 -92 -2t-74 -6z" />
<glyph unicode="Q" horiz-adv-x="1443" d="M131 690q0 141 35 269t108.5 225.5t187 155t271.5 57.5q154 0 263.5 -55.5t180 -150.5t103.5 -224t33 -275q0 -147 -34 -278t-105.5 -229.5t-185.5 -157t-273 -58.5q-158 0 -269.5 59.5t-181 159t-101.5 230.5t-32 272zM319 690q0 -111 20.5 -212t68 -180t124 -125 t191.5 -46q113 0 190.5 46t124.5 125t67.5 180.5t20.5 211.5q0 111 -20.5 209t-66.5 173t-122.5 118t-187.5 43q-117 0 -194.5 -43t-126 -118t-69 -173t-20.5 -209zM729 -150q10 20 36 39t48 19q31 0 61.5 -16.5t65.5 -38.5q45 -29 109.5 -56.5t169.5 -29.5q0 -74 -36 -117 t-89 -43q-49 0 -103.5 25.5t-104.5 62.5t-91 78.5t-66 76.5z" />
<glyph unicode="R" horiz-adv-x="1138" d="M162 0v1366q74 10 159 14t162 4q281 0 404 -95t123 -296q0 -86 -24.5 -153.5t-65.5 -116.5t-95.5 -82t-115.5 -47l374 -594q-20 -10 -46.5 -14t-49.5 -4q-94 0 -145 79l-320 500h-182v-561h-178zM334 1225h4v-512h147q76 0 137.5 14t106.5 47t69.5 84t24.5 125 q0 76 -23.5 125t-67.5 76.5t-106.5 38t-138.5 10.5q-49 0 -85.5 -2t-67.5 -6z" />
<glyph unicode="S" horiz-adv-x="1015" d="M55 135q0 23 18.5 57.5t43.5 65.5q66 -53 157 -93t195 -40q80 0 133 20.5t85 53t46.5 74.5t14.5 87q0 57 -17.5 100.5t-51.5 75t-85 54t-117 43.5q-76 23 -145.5 51.5t-123.5 71.5t-87 106.5t-33 157.5q0 92 34 162.5t92 118t138 72t174 24.5q76 0 163 -19.5t149 -56.5 q33 -20 55 -44t22 -54q0 -25 -19 -53.5t-48 -57.5q-16 14 -45 36.5t-70 42t-93 34t-114 14.5q-72 0 -120 -17.5t-77.5 -45t-43 -65.5t-13.5 -77q0 -51 20.5 -88t59.5 -64.5t94.5 -50t126.5 -45.5q72 -23 136.5 -54.5t113.5 -78.5t79 -111.5t30 -154.5q0 -102 -34 -180 t-95.5 -131t-146.5 -80t-187 -27q-113 0 -210 24.5t-153 65.5q-51 35 -51 76z" />
<glyph unicode="T" horiz-adv-x="1105" d="M16 1251v21q0 39 31 68.5t94 29.5h940q0 -10 2 -18q0 -8 1 -15.5t1 -13.5q0 -45 -30.5 -77t-93.5 -32h-324v-1214h-180v1214h-434q-2 10 -5 19q-2 8 -2 18z" />
<glyph unicode="U" horiz-adv-x="1304" d="M152 539v833q8 0 16 2q8 0 15 1t18 1q18 0 40.5 -5t42 -18.5t33 -39t13.5 -66.5v-727q0 -86 15 -157.5t51 -124t96.5 -81t152.5 -28.5q139 0 217 53.5t101 175.5q12 68 12 162v852q8 0 16 2q8 0 16.5 1t18.5 1q18 0 41 -5t41 -18.5t31.5 -39t13.5 -66.5v-702 q0 -41 -1 -84t-5 -82q-8 -86 -40 -161t-93.5 -130t-152.5 -87t-220 -32q-221 0 -332.5 98.5t-144.5 272.5q-8 43 -10 94.5t-2 104.5z" />
<glyph unicode="V" horiz-adv-x="1193" d="M18 1366q14 4 40 7t55 3q102 0 137 -114l344 -1084l362 1084q16 53 51 83.5t91 30.5q23 0 40 -3t38 -7l-492 -1376h-186z" />
<glyph unicode="W" horiz-adv-x="1798" d="M23 1364q14 4 38.5 8t51.5 4q55 0 85.5 -29.5t47.5 -82.5l329 -1063l252 846l-88 319q20 4 41 7t43 3q96 0 129 -114l299 -1053l314 1051q16 55 45.5 85.5t83.5 30.5q41 0 82 -10l-437 -1376h-178l-254 829l-252 -829h-178z" />
<glyph unicode="X" horiz-adv-x="1148" d="M53 0l416 690l-381 662q27 10 55.5 17t51.5 7q86 0 135 -90l250 -452l268 450q35 59 71.5 74.5t69.5 15.5q29 0 51.5 -6t40.5 -16l-399 -660l420 -692q-25 -10 -49.5 -15t-46.5 -5q-55 0 -88 24.5t-64 73.5l-285 469l-321 -547h-195z" />
<glyph unicode="Y" horiz-adv-x="1073" d="M6 1356q18 10 47 16t60 6q53 0 79.5 -21.5t49.5 -62.5l297 -563l297 547q23 39 53.5 68.5t83.5 29.5q23 0 45 -4t49 -12l-440 -793v-567h-181v563z" />
<glyph unicode="Z" horiz-adv-x="1067" d="M31 0v131l757 1086h-698q-2 10 -4 18t-2 18v21q0 39 30.5 67.5t94.5 28.5h733q35 0 54.5 -15.5t19.5 -54.5v-57l-770 -1089h655q66 0 95.5 -32t29.5 -77q0 -27 -6 -45h-989z" />
<glyph unicode="[" horiz-adv-x="550" d="M123 -274v1742h383v-145h-213v-1452h213v-145h-383z" />
<glyph unicode="\" horiz-adv-x="780" d="M25 1362q10 2 22 6q10 4 26.5 6t39.5 2q51 0 77.5 -27.5t38.5 -58.5l523 -1290h-177z" />
<glyph unicode="]" horiz-adv-x="550" d="M45 -129h213v1452h-213v145h383v-1742h-383v145z" />
<glyph unicode="^" horiz-adv-x="1193" d="M170 612l319 758h189l319 -758h-161l-252 635q-33 -82 -69 -173t-71 -181q-29 -74 -56.5 -144.5t-53.5 -136.5h-164z" />
<glyph unicode="_" horiz-adv-x="958" d="M78 -186h803v-129h-803v129z" />
<glyph unicode="`" horiz-adv-x="747" d="M162 1382q23 18 55.5 34t61.5 16q39 0 62.5 -20.5t45.5 -51.5l172 -225q-16 -12 -39.5 -22.5t-46.5 -10.5q-31 0 -56.5 15.5t-47.5 41.5z" />
<glyph unicode="a" horiz-adv-x="1032" d="M86 268q0 106 54.5 174t134 107t171 53t166.5 16h43q25 0 43 -2v31q0 92 -44 140.5t-169 48.5q-92 0 -155.5 -24t-122.5 -64h-21q-16 27 -27.5 57.5t-11.5 48.5q0 27 33 50.5t85 42t115.5 28.5t125.5 10q104 0 174 -22.5t113 -67.5t60 -112.5t17 -155.5v-404 q0 -49 4.5 -76.5t15.5 -41t30.5 -17.5t50.5 -4v-82q-18 -6 -45 -10t-56 -4q-63 0 -110 25.5t-55 90.5q-51 -51 -123 -86.5t-189 -35.5q-53 0 -107.5 12t-98.5 45t-72.5 88t-28.5 141zM260 279q0 -61 37 -108.5t137 -47.5q53 0 101.5 15.5t85 38t58 49t21.5 50.5v209h-59 q-66 0 -133.5 -8t-122.5 -30.5t-90 -62t-35 -105.5z" />
<glyph unicode="b" horiz-adv-x="1103" d="M152 0v1452h12q4 0 11 1t13 1q57 0 97.5 -28.5t40.5 -106.5v-438q41 41 108.5 72.5t171.5 31.5q80 0 150.5 -26.5t125 -85t86 -151.5t31.5 -228q0 -154 -37.5 -255.5t-98 -161t-134.5 -84t-143 -24.5q-59 0 -103.5 12.5t-77 30t-53 37t-30.5 33.5v-82h-170zM326 231 q12 -16 32.5 -35.5t50 -36t67.5 -28.5t81 -12q127 0 191.5 94t64.5 270q0 74 -13.5 139.5t-43 112.5t-79.5 75t-124 28q-100 0 -163.5 -43t-63.5 -103v-461z" />
<glyph unicode="c" horiz-adv-x="948" d="M98 479q0 152 49.5 250t121 154.5t152.5 79t142 22.5q74 0 132.5 -15.5t100.5 -39t64.5 -50t22.5 -51.5t-16.5 -55.5t-32.5 -52.5h-23q-35 41 -90 77t-150 36q-78 0 -133 -27t-91 -75t-52 -112.5t-16 -138.5q0 -76 16 -142.5t52 -115.5t93.5 -77.5t137.5 -28.5 q55 0 99 17.5t75 39.5q37 25 65 57q16 -16 42 -50t26 -62q0 -29 -43 -66q-39 -35 -112 -59.5t-177 -24.5q-66 0 -144.5 18.5t-147 74t-116 154.5t-47.5 263z" />
<glyph unicode="d" horiz-adv-x="1101" d="M104 467q0 135 34 233.5t90.5 161t131 93t154.5 30.5q92 0 156.5 -30.5t105.5 -69.5v567h12q4 0 11.5 1t13.5 1q57 0 97 -28.5t40 -106.5v-1319h-170v82q-16 -16 -40.5 -36.5t-58.5 -37t-77 -28t-94 -11.5q-80 0 -153.5 27t-130 85t-89.5 153.5t-33 232.5zM289 487 q0 -80 12 -147.5t43 -117.5t81 -77.5t124 -27.5q49 0 91 12t72.5 30.5t47 43t16.5 49.5v479h2q-12 12 -31.5 30.5t-49 35t-68.5 28t-88 11.5q-117 0 -184.5 -88.5t-67.5 -260.5z" />
<glyph unicode="e" horiz-adv-x="1019" d="M98 489q0 129 38 223.5t99.5 155t140.5 89t163 28.5q104 0 179 -35t122 -93t69.5 -135t22.5 -159q0 -29 -1 -58.5t-5 -55.5h-647q6 -150 78.5 -241t224.5 -91q59 0 103 12t76 30.5t54.5 38t36.5 35.5q23 -29 40 -61.5t17 -50.5q0 -16 -10 -33.5t-35 -36.5 q-47 -35 -120.5 -58.5t-178.5 -23.5q-96 0 -181 28t-148.5 89t-100.5 160.5t-37 242.5zM279 580h479q0 55 -11.5 102t-38 83t-70.5 56.5t-108 20.5q-106 0 -174.5 -69.5t-76.5 -192.5z" />
<glyph unicode="f" horiz-adv-x="690" d="M150 0v1069q0 199 92 299t266 100q63 0 116.5 -14t91.5 -34.5t58.5 -44t20.5 -44.5q0 -29 -16.5 -56.5t-35.5 -49.5h-26q-35 43 -85 68.5t-114 25.5q-92 0 -143 -50t-51 -173v-133h344v-150h-344v-813h-174z" />
<glyph unicode="g" horiz-adv-x="1101" d="M104 467q0 135 33 233.5t88.5 161t129 93t155.5 30.5q96 0 161.5 -29.5t108.5 -74.5q10 45 47 66.5t72 21.5q10 0 18.5 -1t16.5 -1q8 -2 16 -2v-897q0 -125 -21.5 -222.5t-74.5 -165t-143 -103.5t-228 -36q-96 0 -167.5 18.5t-118.5 45.5q-37 23 -52.5 43t-15.5 43 q0 27 23.5 59.5t42.5 52.5q4 -6 26.5 -23.5t60 -38t89 -35.5t112.5 -15q98 0 156.5 27.5t90.5 77.5t41 120t9 152v14q-16 -16 -40.5 -36.5t-58.5 -37t-77 -28t-94 -11.5q-80 0 -153.5 27t-130 85t-89.5 153.5t-33 232.5zM289 487q0 -80 12 -147.5t43 -117.5t81 -77.5 t124 -27.5q49 0 91 12t72.5 30.5t47 43t16.5 49.5v479h2q-12 12 -31.5 30.5t-49 35t-68.5 28t-88 11.5q-117 0 -184.5 -88.5t-67.5 -260.5z" />
<glyph unicode="h" horiz-adv-x="1114" d="M152 0v1452h10q4 0 11 1t13 1q57 0 97.5 -28.5t40.5 -106.5v-455q53 59 135 90t174 31q72 0 126 -17.5t92 -47t62.5 -68.5t34.5 -82q10 -41 12.5 -91t2.5 -97v-582h-175v575q0 39 -1 75t-11 67q-14 53 -59 81.5t-133 28.5q-57 0 -105.5 -13t-82.5 -33.5t-52 -47 t-18 -53.5v-680h-174z" />
<glyph unicode="i" horiz-adv-x="493" d="M119 1278q0 51 31.5 84t78.5 33t79 -33t32 -84q0 -47 -32 -79t-79 -32t-78.5 32t-31.5 79zM150 199v774h12q4 0 11 1t13 1q57 0 97.5 -30t40.5 -107v-654q0 -59 17 -83.5t81 -24.5v-74q-18 -6 -50 -10t-63 -4q-59 0 -91 18.5t-47 49t-18 68.5t-3 75z" />
<glyph unicode="j" horiz-adv-x="479" d="M-43 -324q123 4 165 59.5t42 166.5v1071h12q4 0 11.5 1t13.5 1q59 0 98 -30t39 -109v-932q0 -123 -32 -194.5t-76 -109.5t-91 -48.5t-80 -10.5q-37 0 -56 11.5t-29.5 30t-13.5 42.5t-3 51zM137 1278q0 51 32 84t79 33t78.5 -33t31.5 -84q0 -47 -31.5 -79t-78.5 -32 t-79 32t-32 79z" />
<glyph unicode="k" horiz-adv-x="1007" d="M152 0v1452h12q4 0 11 1t13 1q57 0 97.5 -29.5t40.5 -107.5v-1317h-174zM373 504v67l352 351q57 53 117 53q23 0 41 -7t32 -16q16 -8 31 -20l-393 -387l455 -543q-49 -18 -103 -18q-41 0 -81 17t-72 56z" />
<glyph unicode="l" horiz-adv-x="493" d="M150 199v1253h12q4 0 11 1t13 1q57 0 97.5 -29.5t40.5 -107.5v-1124q0 -31 2 -52.5t11 -36t28.5 -21.5t56.5 -7v-74q-18 -6 -50 -10t-63 -4q-59 0 -91 18.5t-47 49t-18 68.5t-3 75z" />
<glyph unicode="m" horiz-adv-x="1673" d="M152 0v967h12q6 0 13 1t13 1q53 0 87 -25.5t42 -79.5q47 49 125 85t181 36q74 0 151.5 -30.5t116.5 -96.5q47 51 128 89t185 38q133 0 207 -61.5t94 -153.5q10 -41 12.5 -91t2.5 -97v-582h-174v575q0 39 -1 75t-12 67q-14 53 -58 81.5t-134 28.5q-68 0 -126.5 -28.5 t-86.5 -63.5q4 -35 6 -72.5t2 -78.5v-584h-174v575q0 43 -4 81t-15 69q-33 102 -184 102q-45 0 -87 -12t-74.5 -32.5t-53 -46t-20.5 -50.5v-686h-174z" />
<glyph unicode="n" horiz-adv-x="1112" d="M152 0v967h10q4 0 11 1t13 1q47 0 85 -23.5t46 -81.5q47 47 128 84t192 37q139 0 213 -61.5t96 -153.5q10 -41 12.5 -91t2.5 -97v-582h-175v575q0 39 -1 75t-11 67q-14 53 -59 81.5t-133 28.5q-117 0 -186.5 -46t-69.5 -99v-682h-174z" />
<glyph unicode="o" horiz-adv-x="1097" d="M98 479q0 102 29 194.5t86 161t142 109.5t200 41q121 0 205 -41t137 -109.5t77.5 -158.5t24.5 -191q0 -100 -24.5 -193t-78.5 -165t-140 -115t-209 -43t-208 41t-138.5 110.5t-78 163t-24.5 195.5zM281 483q0 -63 11 -128.5t42 -118t82 -86t131 -33.5q82 0 135 33.5 t82 86t40 118t11 128.5t-11 126t-40 113t-80 81t-133 31q-78 0 -130 -31t-83 -81t-44 -113t-13 -126z" />
<glyph unicode="p" horiz-adv-x="1103" d="M152 -442v1409h12q6 0 12 1t14 1q49 0 85 -22.5t49 -76.5q39 47 108.5 81t173.5 34q80 0 150.5 -26.5t125 -85t86 -151.5t31.5 -228q0 -154 -37.5 -255.5t-98 -161t-134.5 -84t-143 -24.5q-111 0 -174.5 38t-85.5 69v-518h-174zM326 231q12 -16 32.5 -35.5t50 -36 t67.5 -28.5t81 -12q127 0 191.5 94t64.5 270q0 74 -13.5 139.5t-43 112.5t-79.5 75t-124 28q-98 0 -162.5 -41t-64.5 -99v-467z" />
<glyph unicode="q" horiz-adv-x="1101" d="M104 465q0 150 38 250t98.5 159.5t134.5 85t145 25.5q53 0 97.5 -12t76 -28.5t54 -35t32.5 -30.5q12 49 48 69.5t71 20.5q10 0 18.5 -1t16.5 -1q8 -2 16 -2v-1407h-174v520q-35 -35 -99.5 -72t-160.5 -37q-86 0 -160.5 28t-131 87t-88.5 153.5t-32 227.5zM289 479 q0 -78 13 -143.5t44 -114.5t83 -76.5t130 -27.5q47 0 87 13t68.5 32.5t45 42t16.5 41.5v487q-10 12 -29.5 29.5t-47 34t-64.5 28t-80 11.5q-137 0 -201.5 -89.5t-64.5 -267.5z" />
<glyph unicode="r" horiz-adv-x="712" d="M152 0v967h14q6 0 12 1t10 1q47 0 85 -23.5t46 -79.5q29 43 86.5 81t133.5 38q23 0 48 -4t47.5 -13.5t37 -25.5t14.5 -43q0 -33 -16.5 -70.5t-32.5 -62.5q-27 25 -57.5 38t-77.5 13q-35 0 -67 -11t-56.5 -30.5t-38.5 -44t-14 -51.5v-680h-174z" />
<glyph unicode="s" horiz-adv-x="858" d="M78 96q0 27 14 55.5t37 65.5q14 -12 40 -30.5t61.5 -35t78.5 -27.5t92 -11q37 0 72 7t62.5 23.5t45 45t17.5 71.5t-18.5 70.5t-49 46t-68.5 30t-77 19.5q-59 12 -113.5 31.5t-96.5 52.5t-67.5 82t-25.5 119q0 68 28.5 120t78 85.5t111.5 51t130 17.5q78 0 142.5 -16.5 t103.5 -38.5q41 -23 55 -42.5t14 -37.5q0 -23 -11 -52.5t-27 -58.5l-29 -2q-35 43 -101.5 75t-142.5 32q-27 0 -58.5 -5t-59 -18.5t-46 -38t-18.5 -61.5q0 -66 58.5 -94.5t144.5 -48.5q61 -14 118.5 -36t101.5 -55.5t69.5 -85t25.5 -127.5t-30.5 -132t-82 -94t-120 -57.5 t-142.5 -19.5q-72 0 -129 11.5t-96 27.5q-51 20 -71.5 41.5t-20.5 44.5z" />
<glyph unicode="t" horiz-adv-x="729" d="M147 299v958h13q4 0 11 1.5t13 1.5q55 0 96.5 -29t41.5 -105v-163h305v-148h-305v-528q0 -168 133 -168q33 0 61.5 11t51 26.5t38 30t19.5 20.5q25 -31 42 -59.5t17 -55.5q0 -18 -18.5 -39.5t-51 -40t-81 -31t-105.5 -12.5q-106 0 -169.5 41t-90.5 113q-14 39 -17.5 85 t-3.5 91z" />
<glyph unicode="u" horiz-adv-x="1099" d="M143 358v615h13q4 0 11 1t13 1q57 0 97 -28.5t40 -106.5v-482q0 -80 11.5 -127t46.5 -71q31 -23 66.5 -31t82.5 -8q55 0 101.5 15.5t79 38t51 48t18.5 45.5v705h12q4 0 11.5 1t13.5 1q57 0 97 -30t40 -107v-838h-174v90q-41 -47 -114.5 -84t-190.5 -37q-119 0 -184.5 37 t-97 94.5t-38 126t-6.5 131.5z" />
<glyph unicode="v" horiz-adv-x="968" d="M31 952q45 16 92 17q61 0 91 -38t52 -110l219 -651l224 643q25 74 53.5 115t93.5 41q25 0 46.5 -5.5t35.5 -13.5l-369 -958h-178z" />
<glyph unicode="w" horiz-adv-x="1421" d="M31 954q23 6 44 10.5t46 4.5q96 0 129 -107l211 -676l196 482l-104 288q39 12 82 13q92 0 127 -99l246 -686l168 650q14 55 42.5 95t88.5 40q41 0 84 -17l-293 -960h-174l-193 497l-211 -497h-155z" />
<glyph unicode="x" horiz-adv-x="894" d="M20 0l326 477l-313 481q18 4 48 10.5t52 6.5q55 0 84 -20.5t53 -59.5l183 -291l184 277q31 47 63.5 70.5t83.5 23.5q31 0 52.5 -5t37.5 -14l-327 -479l325 -475q-16 -8 -44.5 -12t-49.5 -4q-35 0 -72.5 14t-66.5 55l-199 291l-186 -285q-29 -45 -66.5 -60t-85.5 -15 q-18 0 -42 3t-40 11z" />
<glyph unicode="y" horiz-adv-x="954" d="M23 -367q0 29 15 60t32 53q16 -14 50 -33.5t85 -19.5q72 0 116 53t78 164l29 92h-70l-331 950q43 16 90 17q53 0 86 -35t49 -82l225 -698l225 680q6 23 16.5 46t28 43.5t42 33t59.5 12.5q41 0 76 -19l-373 -1083q-23 -66 -49.5 -125t-65.5 -103.5t-95 -71t-136 -26.5 q-78 0 -130 22.5t-52 69.5z" />
<glyph unicode="z" horiz-adv-x="876" d="M61 0v127l531 690h-522q0 76 31.5 114t103.5 38h520q86 0 86 -72v-49l-541 -696h424q70 0 102.5 -34t32.5 -118h-768z" />
<glyph unicode="{" horiz-adv-x="649" d="M74 530v148q78 0 110.5 57.5t32.5 157.5v231q0 74 18.5 137.5t57.5 109.5t99.5 71.5t142.5 25.5q33 0 55 -15t22 -54q0 -12 -2 -31.5t-8 -44.5q-43 0 -80 -5t-65.5 -22.5t-45 -48t-16.5 -82.5v-305q0 -92 -28.5 -156.5t-102.5 -99.5q39 -16 63.5 -45t40 -66.5t21.5 -82.5 t6 -93v-292q0 -51 17.5 -82t46 -48.5t65.5 -22.5t78 -5q6 -27 8 -46.5t2 -33.5q0 -41 -26.5 -53.5t-63.5 -12.5q-88 0 -146.5 28t-94 71t-50 96t-14.5 107v307q0 92 -34.5 146t-108.5 54z" />
<glyph unicode="|" horiz-adv-x="530" d="M176 -381v2005h160v-2005h-160z" />
<glyph unicode="}" horiz-adv-x="647" d="M23 -213q0 14 2 33.5t8 46.5q41 0 77.5 5t65.5 22.5t46.5 48t17.5 82.5v292q0 47 6 92.5t21.5 83t40 66.5t63.5 45q-74 35 -102.5 99.5t-28.5 156.5v305q0 51 -16.5 82t-45 48.5t-65.5 22.5t-80 5q-6 25 -8 44t-2 32q0 39 22.5 54t54.5 15q82 0 142.5 -25.5t99.5 -71.5 t57.5 -109.5t18.5 -137.5v-231q0 -100 32.5 -157.5t110.5 -57.5v-148q-74 0 -108.5 -54t-34.5 -146v-307q0 -53 -15.5 -106.5t-50.5 -96.5t-93 -71t-146 -28q-37 0 -63.5 12.5t-26.5 53.5z" />
<glyph unicode="~" horiz-adv-x="946" d="M29 1051q14 139 86.5 217t183.5 78q78 0 132 -31t101 -64q2 -2 4.5 -3t4.5 -3q27 -20 57.5 -37.5t60.5 -17.5q61 0 90 44t37 114h129q-4 -74 -26.5 -130.5t-56 -94.5t-76.5 -57t-88 -19q-59 0 -105.5 24.5t-87.5 52.5q-4 4 -7 5t-7 6q-4 2 -6 4t-6 4q-35 23 -69 41 t-77 18q-59 0 -98 -37t-49 -114h-127z" />
<glyph unicode="&#xa1;" horiz-adv-x="460" d="M137 852q0 53 33 87t84 34q53 0 86 -34t33 -87t-33 -89t-86 -36q-51 0 -84 36t-33 89zM170 -299v883h12q6 0 13.5 1t13.5 1q57 0 97 -29t40 -106v-883q-6 -2 -14 -2h-25q-57 0 -97 28.5t-40 106.5z" />
<glyph unicode="&#xa2;" d="M166 676q0 135 38 226t95 149.5t126 86t128 38.5v198h127v-196q59 -6 109.5 -22.5t86 -38t55 -46t19.5 -45.5q0 -20 -13 -45t-28 -49l-6 -12h-24q-31 35 -79 64.5t-120 39.5v-709q47 4 83 22.5t64 39.5q31 23 58 51q16 -16 39.5 -48t23.5 -58q0 -16 -13 -35t-42 -39 q-35 -23 -91.5 -46.5t-121.5 -31.5v-207h-127v205q-63 8 -132 33.5t-125 83t-93 152t-37 239.5zM346 678q0 -143 47 -234.5t160 -121.5v696q-111 -27 -159 -117t-48 -223z" />
<glyph unicode="&#xa3;" d="M123 586v145h143v254q0 104 34 178t92.5 120t133 66.5t158.5 20.5q68 0 131.5 -15.5t113.5 -40t80.5 -54t30.5 -60.5q0 -23 -17 -52.5t-44 -55.5h-21q-16 18 -40.5 39.5t-58.5 41t-77 32t-94 12.5q-49 0 -94 -11.5t-79 -39t-53.5 -76t-19.5 -121.5v-238h432v-145h-432 v-432h478q66 0 94 -31t28 -76q0 -10 -1 -18.5t-1 -14.5v-14h-772v586h-145z" />
<glyph unicode="&#xa4;" horiz-adv-x="1128" d="M94 328l115 116q-35 51 -56.5 118t-21.5 132q0 70 21.5 136.5t58.5 119.5h2l-117 111l105 102l110 -110q53 37 119 58.5t131 21.5q66 0 132.5 -24t119.5 -60l117 118l104 -104l-123 -117h2q35 -53 54.5 -118.5t19.5 -131.5t-19.5 -131t-56.5 -116l121 -121l-102 -101 l-117 115q-55 -37 -121.5 -58.5t-132.5 -21.5t-129 20.5t-117 55.5l-116 -111zM279 694q0 -131 73.5 -215t208.5 -84t207 84t72 215q0 133 -72 217t-207 84q-137 0 -209.5 -84t-72.5 -217z" />
<glyph unicode="&#xa5;" d="M72 1356q18 10 45.5 16t58.5 6q47 0 78 -22.5t49 -61.5l258 -553l260 539q18 41 50 68.5t81 27.5q27 0 48.5 -4t48.5 -12l-344 -670h237v-125h-293v-164h293v-125h-293v-276h-180v276h-285v125h285v164h-285v125h228z" />
<glyph unicode="&#xa6;" horiz-adv-x="530" d="M176 -381v832h160v-832h-160zM176 848v776h160v-776h-160z" />
<glyph unicode="&#xa7;" horiz-adv-x="1021" d="M131 598q0 51 16.5 94t41 76t52 56.5t50.5 37.5q-61 39 -97 95.5t-36 146.5q0 68 29.5 122t79.5 92t117 58.5t142 20.5q57 0 116.5 -12.5t108 -34t79 -51t30.5 -64.5q0 -33 -15.5 -58.5t-33.5 -48.5h-29q-41 47 -104.5 83t-149.5 36q-92 0 -146 -36.5t-54 -106.5 q0 -66 49 -103.5t137 -74.5l160 -70q102 -43 161.5 -106.5t59.5 -176.5q0 -47 -16.5 -89t-40 -76.5t-50 -61.5t-47.5 -43q41 -35 73 -82t32 -121q0 -78 -29 -135t-78 -97t-113.5 -59.5t-136.5 -19.5q-100 0 -175.5 20.5t-123.5 51.5q-49 33 -49 76q0 29 22.5 60.5t41.5 53.5 q59 -55 132 -83.5t152 -28.5q78 0 134.5 38.5t56.5 110.5q0 35 -12.5 59.5t-37 45t-63.5 39t-92 40.5l-137 56q-117 47 -162 114.5t-45 155.5zM291 621q0 -53 30.5 -91t118.5 -75l187 -80q35 29 69.5 76t34.5 106q0 63 -47 104t-111 68l-167 68q-14 -8 -34 -23.5t-38.5 -38 t-30.5 -51t-12 -63.5z" />
<glyph unicode="&#xa8;" horiz-adv-x="784" d="M104 1245q0 47 30 79t75 32t74.5 -32t29.5 -79t-28.5 -77.5t-75.5 -30.5t-76 30.5t-29 77.5zM471 1245q0 47 29.5 79t74.5 32t75 -32t30 -79t-28.5 -77.5t-76.5 -30.5q-47 0 -75.5 30.5t-28.5 77.5z" />
<glyph unicode="&#xa9;" horiz-adv-x="1624" d="M131 680q0 147 47 277t135 227.5t214 155t286 57.5t286 -57.5t213 -155t134 -227.5t47 -277t-47 -278.5t-135 -229.5t-214 -155.5t-286 -57.5t-287 57.5t-214 155.5t-133 229.5t-46 278.5zM260 680q0 -119 36 -228.5t106.5 -192.5t174 -133t236.5 -50t236.5 50t174 133 t107.5 192.5t37 228.5t-37 227.5t-107.5 191.5t-174 132t-236.5 49t-235.5 -49t-173 -132t-107.5 -191.5t-37 -227.5zM422 690q0 133 42 221t105.5 140.5t137 74t137.5 21.5q70 0 125 -17.5t94 -41t58.5 -48t19.5 -41.5q0 -23 -15.5 -49t-33.5 -51h-17q-41 53 -94 83 t-137 30q-72 0 -122 -27t-81 -72t-45 -102t-14 -121q0 -61 13 -118.5t45 -102.5t82 -72.5t124 -27.5q53 0 97 15t73 36q35 23 61 51q14 -16 37 -42t23 -52q0 -20 -11.5 -33.5t-31.5 -30.5q-29 -23 -96.5 -50t-166.5 -27q-72 0 -144.5 20t-130.5 72.5t-96 139.5t-38 222z" />
<glyph unicode="&#xaa;" horiz-adv-x="856" d="M94 854q0 82 41 134t102.5 81t131 40t129.5 11h51v19q0 59 -31 95t-115 36q-72 0 -121 -19.5t-92 -48.5h-20q-14 23 -23.5 44.5t-9.5 43.5q0 20 25.5 39t66.5 34t90.5 24.5t98.5 9.5q164 0 225.5 -74t61.5 -211v-319q0 -43 17 -57.5t71 -14.5v-64q-10 -6 -27 -12 q-31 -10 -76 -10q-47 0 -82 20.5t-47 55.5q-35 -33 -94 -57.5t-133 -24.5q-41 0 -83 9t-77 34.5t-57.5 69.5t-22.5 112zM250 858q0 -41 24.5 -75.5t92.5 -34.5q35 0 68.5 9t59 23.5t41 31.5t15.5 34v168h-31q-47 0 -95 -7.5t-87 -23.5t-63.5 -47t-24.5 -78z" />
<glyph unicode="&#xab;" horiz-adv-x="993" d="M502 563q0 35 21.5 67t49.5 58l265 248q18 -20 30.5 -47t12.5 -49q0 -49 -31 -86l-168 -191l162 -190q20 -25 27 -47.5t7 -44.5q0 -23 -10 -49.5t-24 -45.5l-277 252q-29 27 -47 57.5t-18 67.5zM113 563q0 35 21.5 67t49.5 58l265 248q18 -20 30.5 -47t12.5 -49 q0 -49 -31 -86l-168 -191l162 -190q20 -25 27 -47.5t7 -44.5q0 -23 -10 -49.5t-24 -45.5l-277 252q-29 27 -47 57.5t-18 67.5z" />
<glyph unicode="&#xac;" horiz-adv-x="1150" d="M133 700v164h893v-522h-162v358h-731z" />
<glyph unicode="&#xad;" horiz-adv-x="903" d="M143 580v21q0 11 2 22q0 10 2 20h515q18 0 37.5 -2t36 -12.5t27.5 -30.5t11 -57q0 -10 -1 -22.5t-1 -22.5q-2 -12 -2 -23h-522q-43 0 -74 24t-31 83z" />
<glyph unicode="&#xae;" horiz-adv-x="1624" d="M131 680q0 147 47 277t135 227.5t214 155t286 57.5t286 -57.5t213 -155t134 -227.5t47 -277t-47 -278.5t-135 -229.5t-214 -155.5t-286 -57.5t-287 57.5t-214 155.5t-133 229.5t-46 278.5zM260 680q0 -119 36 -228.5t106.5 -192.5t174 -133t236.5 -50t236.5 50t174 133 t107.5 192.5t37 228.5t-37 227.5t-107.5 191.5t-174 132t-236.5 49t-235.5 -49t-173 -132t-107.5 -191.5t-37 -227.5zM559 258v858q57 6 124 9t108 3q180 0 258.5 -72.5t78.5 -183.5q0 -55 -16 -98t-43 -74.5t-62.5 -53t-72.5 -30.5h4l211 -350q-18 -10 -37.5 -14t-36.5 -4 q-31 0 -58.5 13t-47.5 48l-174 289h-107v-340h-129zM684 1001h4v-282h129q176 0 176 151q0 68 -46 103t-150 35q-37 0 -63.5 -1.5t-49.5 -5.5z" />
<glyph unicode="&#xaf;" horiz-adv-x="753" d="M66 1255q0 25 8 56h506q47 0 76.5 -16.5t29.5 -71.5q0 -16 -1 -28.5t-3 -23.5h-522q-49 0 -71.5 18.5t-22.5 65.5z" />
<glyph unicode="&#xb0;" horiz-adv-x="765" d="M109 1149q0 55 20.5 105.5t56 87t86 58t109.5 21.5q125 0 198.5 -76.5t73.5 -195.5q0 -57 -20.5 -107.5t-56 -87t-86 -58.5t-109.5 -22q-63 0 -113.5 22t-86.5 58.5t-54 87t-18 107.5zM231 1149q0 -66 42 -112t108 -46t111 46t45 112t-45.5 111t-110.5 45q-66 0 -108 -45 t-42 -111z" />
<glyph unicode="&#xb1;" horiz-adv-x="1105" d="M154 0v164h794v-164h-794zM154 608v164h313v328h168v-326h313v-164h-313v-329h-168v327h-313z" />
<glyph unicode="&#xb2;" horiz-adv-x="679" d="M78 1276q0 16 7 26.5t19 20.5q10 8 31 21.5t49.5 25.5t63.5 20.5t74 8.5q109 0 177 -53.5t68 -171.5q0 -82 -44 -155t-101 -138q-31 -35 -60.5 -66t-60.5 -59h209q16 0 32.5 -2t29 -10.5t20.5 -25t8 -44.5q0 -8 -1 -15.5t-1 -15.5v-16h-500v108q49 41 108.5 100.5 t106.5 114.5q49 57 81 109.5t32 109.5q0 53 -32 80t-89 27q-55 0 -95 -26.5t-63 -53.5h-22q-23 23 -35 41.5t-12 38.5z" />
<glyph unicode="&#xb3;" horiz-adv-x="679" d="M76 733q0 25 19.5 51.5t33.5 42.5q29 -33 76 -62.5t106 -29.5q25 0 48.5 5t44 17.5t33 36t12.5 60.5q0 39 -17.5 62.5t-40 34t-47.5 13.5t-37 3h-65v118h67q14 0 35 3.5t40 14.5t32.5 30.5t13.5 52.5q0 92 -113 92q-59 0 -99 -23.5t-66 -50.5h-27q-16 20 -28.5 39 t-12.5 35t15.5 33.5t39.5 34.5q31 23 78 38t113 15q127 0 185 -55.5t58 -143.5q0 -72 -30.5 -112.5t-63.5 -59.5q18 -10 38 -23.5t36 -35t27.5 -51t11.5 -68.5q0 -104 -68.5 -172t-206.5 -68q-59 0 -110 15.5t-80 36.5q-31 23 -41 38t-10 33z" />
<glyph unicode="&#xb4;" horiz-adv-x="747" d="M180 1135l172 225q23 31 46.5 51.5t62.5 20.5q29 0 61.5 -15.5t55.5 -34.5l-207 -223q-23 -27 -48.5 -42t-56.5 -15q-23 0 -46.5 10.5t-39.5 22.5z" />
<glyph unicode="&#xb5;" horiz-adv-x="1191" d="M170 -387v1350h176v-576q0 -119 62.5 -190.5t169.5 -71.5q74 0 120.5 23.5t74.5 61.5t38 86t10 97v570h176v-721q0 -59 13.5 -92t58.5 -33q23 0 61 14l21 -139q-25 -10 -56.5 -16.5t-60.5 -6.5q-68 0 -110.5 35t-59.5 96q-47 -55 -115.5 -93t-164.5 -38q-82 0 -145.5 36 t-100.5 87v-479h-168z" />
<glyph unicode="&#xb6;" horiz-adv-x="1173" d="M104 948q0 104 34 183t91.5 132.5t135 80t167.5 26.5h381q16 0 35 -2t34 -13.5t24.5 -33t9.5 -57.5v-1506h-152v1471h-178v-1471h-149v779h-33q-92 0 -167 32.5t-126 89t-79 131t-28 158.5z" />
<glyph unicode="&#xb7;" horiz-adv-x="512" d="M152 735q0 53 33.5 90t82.5 37q51 0 85 -36.5t34 -90.5q0 -53 -32.5 -90t-86.5 -37q-51 0 -83.5 37t-32.5 90z" />
<glyph unicode="&#xb8;" horiz-adv-x="743" d="M233 -371q0 10 2.5 28.5t8.5 39.5q14 -6 27.5 -8t25.5 -2q35 0 54.5 12t19.5 39q0 25 -12.5 41t-28.5 33q-16 16 -28.5 33.5t-12.5 45.5q0 39 23.5 75t35.5 52h121q-29 -29 -44 -48t-15 -42q0 -20 10 -34.5t26 -28.5q18 -18 36 -43t18 -70t-17.5 -79.5t-45 -58.5 t-62.5 -36t-70 -12q-72 0 -72 63z" />
<glyph unicode="&#xb9;" horiz-adv-x="679" d="M66 1217q0 31 40 53l181 100q23 12 43 21.5t41 9.5q43 0 71 -21v-753h-143v594l-188 -97q-14 18 -29.5 47.5t-15.5 45.5z" />
<glyph unicode="&#xba;" horiz-adv-x="927" d="M113 1012q0 80 21.5 149.5t66.5 121.5t110.5 83t155.5 31q94 0 160.5 -30t108.5 -82t60.5 -120.5t18.5 -146.5t-19.5 -149.5t-61.5 -125t-109.5 -85t-163.5 -31.5q-94 0 -161 31.5t-107.5 85t-60 123t-19.5 145.5zM272 1016q0 -47 9.5 -92t31 -81t58.5 -57.5t92 -21.5 q57 0 94 21.5t58.5 57.5t29.5 82t8 93t-8 91t-29.5 79t-57.5 56.5t-93 21.5q-55 0 -92 -21.5t-59.5 -56.5t-32 -80t-9.5 -92z" />
<glyph unicode="&#xbb;" horiz-adv-x="993" d="M502 840q0 23 12 49t31 47l264 -248q29 -27 50.5 -58.5t21.5 -66.5q0 -37 -18.5 -67.5t-47.5 -57.5l-276 -252q-14 18 -24.5 45t-10.5 50t7 45t28 47l161 190l-168 191q-30 37 -30 86zM113 840q0 23 12 49t31 47l264 -248q29 -27 50.5 -58.5t21.5 -66.5 q0 -37 -18.5 -67.5t-47.5 -57.5l-276 -252q-14 18 -24.5 45t-10.5 50t7 45t28 47l161 190l-168 191q-30 37 -30 86z" />
<glyph unicode="&#xbc;" horiz-adv-x="1658" d="M344 0l731 1317q20 37 50 58.5t81 21.5q35 0 55 -8q8 -4 15 -7l-764 -1382h-168zM68 1217q0 31 40 53l181 100q23 12 43 21.5t41 9.5q43 0 71 -21v-753h-143v594l-188 -97q-14 18 -29.5 47.5t-15.5 45.5zM1010 147v100l305 461q16 25 38.5 46.5t53.5 21.5q16 0 34.5 -5 t33.5 -16v-491h28q68 0 68 -68q0 -8 -4 -28l-4 -21h-88v-145h-140v145h-325zM1137 264h198v303z" />
<glyph unicode="&#xbd;" horiz-adv-x="1658" d="M289 0l731 1317q20 37 50 58.5t81 21.5q35 0 55 -8q8 -4 15 -7l-764 -1382h-168zM46 1217q0 31 40 53l181 100q23 12 43 21.5t41 9.5q43 0 71 -21v-753h-143v594l-188 -97q-14 18 -29.5 47.5t-15.5 45.5zM1026 651q0 16 7 26.5t19 20.5q10 8 31 21.5t49.5 25.5t63.5 20.5 t74 8.5q109 0 177 -53.5t68 -171.5q0 -82 -44 -155t-101 -138q-31 -35 -60.5 -66t-60.5 -59h209q16 0 32.5 -2t29 -10.5t20.5 -25t8 -44.5q0 -8 -1 -15.5t-1 -15.5v-16h-500v108q49 41 108.5 100.5t106.5 114.5q49 57 81 109.5t32 109.5q0 53 -32 80t-89 27q-55 0 -95 -26.5 t-63 -53.5h-22q-23 23 -35 41.5t-12 38.5z" />
<glyph unicode="&#xbe;" horiz-adv-x="1658" d="M416 0l731 1317q20 37 50 58.5t81 21.5q35 0 55 -8q8 -4 15 -7l-764 -1382h-168zM123 733q0 25 19.5 51.5t33.5 42.5q29 -33 76 -62.5t106 -29.5q25 0 48.5 5t44 17.5t33 36t12.5 60.5q0 39 -17.5 62.5t-40 34t-47.5 13.5t-37 3h-65v118h67q14 0 35 3.5t40 14.5 t32.5 30.5t13.5 52.5q0 92 -113 92q-59 0 -99 -23.5t-66 -50.5h-27q-16 20 -28.5 39t-12.5 35t15.5 33.5t39.5 34.5q31 23 78 38t113 15q127 0 185 -55.5t58 -143.5q0 -72 -30.5 -112.5t-63.5 -59.5q18 -10 38 -23.5t36 -35t27.5 -51t11.5 -68.5q0 -104 -68.5 -172 t-206.5 -68q-59 0 -110 15.5t-80 36.5q-31 23 -41 38t-10 33zM1002 147v100l305 461q16 25 38.5 46.5t53.5 21.5q16 0 34.5 -5t33.5 -16v-491h28q68 0 68 -68q0 -8 -4 -28l-4 -21h-88v-145h-140v145h-325zM1129 264h198v303z" />
<glyph unicode="&#xbf;" horiz-adv-x="784" d="M23 -96q0 61 16 111.5t43 93.5t59.5 78.5t65.5 66.5q72 61 125 121.5t53 126.5q0 16 -2 38.5t-6 43.5q8 2 19 2h22q55 0 84.5 -34t29.5 -93q0 -41 -14 -77t-36.5 -68.5t-52.5 -62.5t-62 -61q-31 -29 -59.5 -59.5t-52.5 -64t-37 -72.5t-13 -84q0 -57 19.5 -97t53 -66 t76.5 -37t92 -11q55 0 99.5 12.5t80.5 30.5t60.5 38.5t40.5 35.5h25q16 -23 33.5 -51.5t17.5 -55.5q0 -31 -35 -55q-16 -12 -45 -30.5t-71 -36t-99 -30t-127 -12.5q-82 0 -154.5 21.5t-128 65.5t-88 112t-32.5 160zM330 848q0 53 33.5 89t87.5 36q49 0 82.5 -36t33.5 -89 t-33.5 -90t-82.5 -37q-53 0 -87 37t-34 90z" />
<glyph unicode="&#xc0;" horiz-adv-x="1280" d="M45 0l496 1358q14 6 42.5 12t57.5 6q39 0 70.5 -17.5t50.5 -66.5l473 -1292h-186l-138 369h-553l-133 -369h-180zM403 514h461l-229 653zM313 1678q18 31 52 55t69 24q29 0 54.5 -13t58.5 -40l211 -170q-14 -18 -42 -35.5t-57 -17.5q-23 0 -46 10t-52 27z" />
<glyph unicode="&#xc1;" horiz-adv-x="1280" d="M45 0l496 1358q14 6 42.5 12t57.5 6q39 0 70.5 -17.5t50.5 -66.5l473 -1292h-186l-138 369h-553l-133 -369h-180zM403 514h461l-229 653zM516 1534l211 170q33 27 58.5 40t54.5 13q35 0 68.5 -24.5t51.5 -54.5l-247 -160q-29 -16 -52.5 -26.5t-46.5 -10.5 q-25 0 -54.5 17.5t-43.5 35.5z" />
<glyph unicode="&#xc2;" horiz-adv-x="1280" d="M45 0l496 1358q14 6 42.5 12t57.5 6q39 0 70.5 -17.5t50.5 -66.5l473 -1292h-186l-138 369h-553l-133 -369h-180zM403 514h461l-229 653zM360 1510l175 200q49 59 102 60q53 0 98 -56l178 -211q-16 -10 -36.5 -18t-38.5 -8q-25 0 -46.5 11t-48.5 34l-110 96l-109 -98 q-18 -18 -38.5 -30.5t-49.5 -12.5q-18 0 -39 9.5t-37 23.5z" />
<glyph unicode="&#xc3;" horiz-adv-x="1280" d="M45 0l496 1358q14 6 42.5 12t57.5 6q39 0 70.5 -17.5t50.5 -66.5l473 -1292h-186l-138 369h-553l-133 -369h-180zM403 514h461l-229 653zM304 1573q0 20 14 39.5t37 36.5q35 29 75.5 44t79.5 15q37 0 67 -10t56 -23q29 -14 57.5 -24t63.5 -10q41 0 70.5 24.5t58.5 69.5 q23 -14 47.5 -38t24.5 -48q0 -27 -25 -57q-27 -33 -68.5 -56.5t-97.5 -23.5q-41 0 -75.5 11t-67.5 25q-29 12 -56.5 21.5t-58.5 9.5q-41 0 -76.5 -24.5t-68.5 -63.5q-18 14 -37.5 36.5t-19.5 45.5z" />
<glyph unicode="&#xc4;" horiz-adv-x="1280" d="M45 0l496 1358q14 6 42.5 12t57.5 6q39 0 70.5 -17.5t50.5 -66.5l473 -1292h-186l-138 369h-553l-133 -369h-180zM403 514h461l-229 653zM350 1606q0 47 30 78.5t75 31.5t74.5 -31.5t29.5 -78.5t-28.5 -78t-75.5 -31t-76 31t-29 78zM717 1606q0 47 29.5 78.5t74.5 31.5 t75 -31.5t30 -78.5t-28.5 -78t-76.5 -31q-47 0 -75.5 31t-28.5 78z" />
<glyph unicode="&#xc5;" horiz-adv-x="1280" d="M45 0l496 1358q14 6 42.5 12t57.5 6q39 0 70.5 -17.5t50.5 -66.5l473 -1292h-186l-138 369h-553l-133 -369h-180zM403 514h461l-229 653zM424 1526q0 94 58 159.5t159 65.5q100 0 158.5 -61.5t58.5 -161.5q0 -45 -15.5 -86t-43 -72t-68.5 -48t-90 -17t-90 17t-69 48 t-43 71t-15 85zM532 1528q0 -49 27.5 -86t81.5 -37q53 0 81.5 36t28.5 85q0 47 -23.5 87t-88.5 40q-55 0 -81 -39t-26 -86z" />
<glyph unicode="&#xc6;" horiz-adv-x="1800" d="M35 0l694 1198q41 72 83 122t112 50h784q4 -12 4 -21v-22q0 -47 -26.5 -78.5t-98.5 -31.5h-491v-422h465v-158h-465v-483h520q68 0 97.5 -32t29.5 -79q0 -8 -1 -15.5t-1 -13.5v-14h-823v365h-480l-205 -365h-198zM514 514h404v700z" />
<glyph unicode="&#xc7;" horiz-adv-x="1220" d="M125 680q0 154 36 286t110.5 227t188 149.5t271.5 54.5q80 0 153.5 -18.5t130 -47t90.5 -63.5t34 -66q0 -27 -17.5 -56.5t-36.5 -51.5h-36q-23 25 -52.5 51t-68.5 46.5t-88 34t-109 13.5q-123 0 -204 -48t-129 -127t-68.5 -178.5t-20.5 -203.5q0 -106 21.5 -206.5 t73 -179.5t135.5 -126t209 -47q68 0 123 19.5t95 46t66.5 51t36.5 36.5q23 -18 48.5 -52t25.5 -58q0 -18 -8.5 -31.5t-20.5 -30.5q-10 -10 -38.5 -32.5t-77 -45t-115 -40t-154.5 -17.5q-158 0 -272.5 53.5t-188 147.5t-108.5 225t-35 285zM561 -371q0 10 2.5 28.5t8.5 39.5 q14 -6 27.5 -8t25.5 -2q35 0 54.5 12t19.5 39q0 25 -12.5 41t-28.5 33q-16 16 -28.5 33.5t-12.5 45.5q0 39 23.5 75t35.5 52h121q-29 -29 -44 -48t-15 -42q0 -20 10 -34.5t26 -28.5q18 -18 36 -43t18 -70t-17.5 -79.5t-45 -58.5t-62.5 -36t-70 -12q-72 0 -72 63z" />
<glyph unicode="&#xc8;" horiz-adv-x="1042" d="M160 0v1370h790q4 -12 4 -21v-22q0 -47 -26.5 -78.5t-98.5 -31.5h-491v-422h465v-158h-465v-483h520q68 0 97.5 -32t29.5 -79q0 -8 -1 -15.5t-1 -13.5v-14h-823zM227 1678q18 31 52 55t69 24q29 0 54.5 -13t58.5 -40l211 -170q-14 -18 -42 -35.5t-57 -17.5q-23 0 -46 10 t-52 27z" />
<glyph unicode="&#xc9;" horiz-adv-x="1042" d="M160 0v1370h790q4 -12 4 -21v-22q0 -47 -26.5 -78.5t-98.5 -31.5h-491v-422h465v-158h-465v-483h520q68 0 97.5 -32t29.5 -79q0 -8 -1 -15.5t-1 -13.5v-14h-823zM404 1534l211 170q33 27 58.5 40t54.5 13q35 0 68.5 -24.5t51.5 -54.5l-247 -160q-29 -16 -52.5 -26.5 t-46.5 -10.5q-25 0 -54.5 17.5t-43.5 35.5z" />
<glyph unicode="&#xca;" horiz-adv-x="1042" d="M160 0v1370h790q4 -12 4 -21v-22q0 -47 -26.5 -78.5t-98.5 -31.5h-491v-422h465v-158h-465v-483h520q68 0 97.5 -32t29.5 -79q0 -8 -1 -15.5t-1 -13.5v-14h-823zM282 1510l175 200q49 59 102 60q53 0 98 -56l178 -211q-16 -10 -36.5 -18t-38.5 -8q-25 0 -46.5 11 t-48.5 34l-110 96l-109 -98q-18 -18 -38.5 -30.5t-49.5 -12.5q-18 0 -39 9.5t-37 23.5z" />
<glyph unicode="&#xcb;" horiz-adv-x="1042" d="M160 0v1370h790q4 -12 4 -21v-22q0 -47 -26.5 -78.5t-98.5 -31.5h-491v-422h465v-158h-465v-483h520q68 0 97.5 -32t29.5 -79q0 -8 -1 -15.5t-1 -13.5v-14h-823zM268 1663q0 47 30 79t75 32t74.5 -32t29.5 -79t-28.5 -77.5t-75.5 -30.5t-76 30.5t-29 77.5zM635 1663 q0 47 29.5 79t74.5 32t75 -32t30 -79t-28.5 -77.5t-76.5 -30.5q-47 0 -75.5 30.5t-28.5 77.5z" />
<glyph unicode="&#xcc;" horiz-adv-x="491" d="M156 0v1372q8 0 16 2q8 0 16.5 1t18.5 1q18 0 39.5 -5t42 -18.5t34 -39t13.5 -66.5v-1247h-180zM-92 1678q18 31 52 55t69 24q29 0 54.5 -13t58.5 -40l211 -170q-14 -18 -42 -35.5t-57 -17.5q-23 0 -46 10t-52 27z" />
<glyph unicode="&#xcd;" horiz-adv-x="491" d="M156 0v1372q8 0 16 2q8 0 16.5 1t18.5 1q18 0 39.5 -5t42 -18.5t34 -39t13.5 -66.5v-1247h-180zM102 1534l211 170q33 27 58.5 40t54.5 13q35 0 68.5 -24.5t51.5 -54.5l-247 -160q-29 -16 -52.5 -26.5t-46.5 -10.5q-25 0 -54.5 17.5t-43.5 35.5z" />
<glyph unicode="&#xce;" horiz-adv-x="491" d="M156 0v1372q8 0 16 2q8 0 16.5 1t18.5 1q18 0 39.5 -5t42 -18.5t34 -39t13.5 -66.5v-1247h-180zM-37 1510l175 200q49 59 102 60q53 0 98 -56l178 -211q-16 -10 -36.5 -18t-38.5 -8q-25 0 -46.5 11t-48.5 34l-110 96l-109 -98q-18 -18 -38.5 -30.5t-49.5 -12.5 q-18 0 -39 9.5t-37 23.5z" />
<glyph unicode="&#xcf;" horiz-adv-x="491" d="M156 0v1372q8 0 16 2q8 0 16.5 1t18.5 1q18 0 39.5 -5t42 -18.5t34 -39t13.5 -66.5v-1247h-180zM-37 1606q0 47 30 78.5t75 31.5t74.5 -31.5t29.5 -78.5t-28.5 -78t-75.5 -31t-76 31t-29 78zM330 1606q0 47 29.5 78.5t74.5 31.5t75 -31.5t30 -78.5t-28.5 -78t-76.5 -31 q-47 0 -75.5 31t-28.5 78z" />
<glyph unicode="&#xd0;" horiz-adv-x="1306" d="M35 647v137h135v580q111 12 193.5 16t154.5 4q197 0 328 -53t210 -145t111.5 -215t32.5 -262q0 -145 -35 -273.5t-109.5 -225.5t-191 -153.5t-278.5 -56.5h-416v647h-135zM350 152h103h59q29 0 57 2q143 4 231.5 56t135.5 130t63.5 173t16.5 185q0 115 -23.5 212.5 t-80 168t-151.5 109.5t-239 39q-41 0 -86 -2t-86 -8v-433h406v-137h-406v-495z" />
<glyph unicode="&#xd1;" horiz-adv-x="1351" d="M162 0v1366q12 4 34.5 7t45.5 3q45 0 70.5 -15t47.5 -52l664 -1037v1100q6 0 14 2q6 0 15.5 1t19.5 1q18 0 39 -5t38 -18.5t28.5 -39t11.5 -66.5v-1247h-166l-696 1063v-1063h-166zM359 1573q0 20 14 39.5t37 36.5q35 29 75.5 44t79.5 15q37 0 67 -10t56 -23 q29 -14 57.5 -24t63.5 -10q41 0 70.5 24.5t58.5 69.5q23 -14 47.5 -38t24.5 -48q0 -27 -25 -57q-27 -33 -68.5 -56.5t-97.5 -23.5q-41 0 -75.5 11t-67.5 25q-29 12 -56.5 21.5t-58.5 9.5q-41 0 -76.5 -24.5t-68.5 -63.5q-18 14 -37.5 36.5t-19.5 45.5z" />
<glyph unicode="&#xd2;" horiz-adv-x="1431" d="M125 690q0 141 35 269t108.5 225.5t187 155t271.5 57.5q154 0 263.5 -55.5t180 -150.5t103.5 -224t33 -275q0 -147 -34 -278t-105.5 -229.5t-185.5 -157t-273 -58.5q-158 0 -269.5 59.5t-181.5 159t-101.5 230.5t-31.5 272zM313 690q0 -111 20.5 -212t68 -180t124 -125 t191.5 -46q113 0 190.5 46t124.5 125t67.5 180.5t20.5 211.5q0 111 -20.5 209t-66.5 173t-122.5 118t-187.5 43q-117 0 -194.5 -43t-126 -118t-69 -173t-20.5 -209zM428 1678q18 31 52 55t69 24q29 0 54.5 -13t58.5 -40l211 -170q-14 -18 -42 -35.5t-57 -17.5q-23 0 -46 10 t-52 27z" />
<glyph unicode="&#xd3;" horiz-adv-x="1431" d="M125 690q0 141 35 269t108.5 225.5t187 155t271.5 57.5q154 0 263.5 -55.5t180 -150.5t103.5 -224t33 -275q0 -147 -34 -278t-105.5 -229.5t-185.5 -157t-273 -58.5q-158 0 -269.5 59.5t-181.5 159t-101.5 230.5t-31.5 272zM313 690q0 -111 20.5 -212t68 -180t124 -125 t191.5 -46q113 0 190.5 46t124.5 125t67.5 180.5t20.5 211.5q0 111 -20.5 209t-66.5 173t-122.5 118t-187.5 43q-117 0 -194.5 -43t-126 -118t-69 -173t-20.5 -209zM619 1534l211 170q33 27 58.5 40t54.5 13q35 0 68.5 -24.5t51.5 -54.5l-247 -160q-29 -16 -52.5 -26.5 t-46.5 -10.5q-25 0 -54.5 17.5t-43.5 35.5z" />
<glyph unicode="&#xd4;" horiz-adv-x="1431" d="M125 690q0 141 35 269t108.5 225.5t187 155t271.5 57.5q154 0 263.5 -55.5t180 -150.5t103.5 -224t33 -275q0 -147 -34 -278t-105.5 -229.5t-185.5 -157t-273 -58.5q-158 0 -269.5 59.5t-181.5 159t-101.5 230.5t-31.5 272zM313 690q0 -111 20.5 -212t68 -180t124 -125 t191.5 -46q113 0 190.5 46t124.5 125t67.5 180.5t20.5 211.5q0 111 -20.5 209t-66.5 173t-122.5 118t-187.5 43q-117 0 -194.5 -43t-126 -118t-69 -173t-20.5 -209zM458 1510l175 200q49 59 102 60q53 0 98 -56l178 -211q-16 -10 -36.5 -18t-38.5 -8q-25 0 -46.5 11 t-48.5 34l-110 96l-109 -98q-18 -18 -38.5 -30.5t-49.5 -12.5q-18 0 -39 9.5t-37 23.5z" />
<glyph unicode="&#xd5;" horiz-adv-x="1431" d="M125 690q0 141 35 269t108.5 225.5t187 155t271.5 57.5q154 0 263.5 -55.5t180 -150.5t103.5 -224t33 -275q0 -147 -34 -278t-105.5 -229.5t-185.5 -157t-273 -58.5q-158 0 -269.5 59.5t-181.5 159t-101.5 230.5t-31.5 272zM313 690q0 -111 20.5 -212t68 -180t124 -125 t191.5 -46q113 0 190.5 46t124.5 125t67.5 180.5t20.5 211.5q0 111 -20.5 209t-66.5 173t-122.5 118t-187.5 43q-117 0 -194.5 -43t-126 -118t-69 -173t-20.5 -209zM416 1573q0 20 14 39.5t37 36.5q35 29 75.5 44t79.5 15q37 0 67 -10t56 -23q29 -14 57.5 -24t63.5 -10 q41 0 70.5 24.5t58.5 69.5q23 -14 47.5 -38t24.5 -48q0 -27 -25 -57q-27 -33 -68.5 -56.5t-97.5 -23.5q-41 0 -75.5 11t-67.5 25q-29 12 -56.5 21.5t-58.5 9.5q-41 0 -76.5 -24.5t-68.5 -63.5q-18 14 -37.5 36.5t-19.5 45.5z" />
<glyph unicode="&#xd6;" horiz-adv-x="1431" d="M125 690q0 141 35 269t108.5 225.5t187 155t271.5 57.5q154 0 263.5 -55.5t180 -150.5t103.5 -224t33 -275q0 -147 -34 -278t-105.5 -229.5t-185.5 -157t-273 -58.5q-158 0 -269.5 59.5t-181.5 159t-101.5 230.5t-31.5 272zM313 690q0 -111 20.5 -212t68 -180t124 -125 t191.5 -46q113 0 190.5 46t124.5 125t67.5 180.5t20.5 211.5q0 111 -20.5 209t-66.5 173t-122.5 118t-187.5 43q-117 0 -194.5 -43t-126 -118t-69 -173t-20.5 -209zM438 1663q0 47 30 79t75 32t74.5 -32t29.5 -79t-28.5 -77.5t-75.5 -30.5t-76 30.5t-29 77.5zM805 1663 q0 47 29.5 79t74.5 32t75 -32t30 -79t-28.5 -77.5t-76.5 -30.5q-47 0 -75.5 30.5t-28.5 77.5z" />
<glyph unicode="&#xd7;" horiz-adv-x="1122" d="M172 965l119 118l272 -274l268 272l115 -116l-270 -273l272 -268l-117 -119l-270 273l-270 -271l-115 117l270 268z" />
<glyph unicode="&#xd8;" horiz-adv-x="1431" d="M125 690q0 141 35 269t108.5 225.5t187 155t271.5 57.5q80 0 147.5 -16.5t124.5 -45.5l88 156l140 -70l-101 -182q92 -98 136.5 -239.5t44.5 -307.5q0 -147 -34 -278t-105.5 -229.5t-185.5 -157t-273 -58.5q-74 0 -136.5 13.5t-115.5 35.5l-117 -194l-137 67l123 218 q-106 102 -153.5 254.5t-47.5 326.5zM313 690q0 -121 23.5 -228.5t79.5 -187.5l502 912q-82 47 -195 47q-117 0 -194.5 -43t-126 -118t-69 -173t-20.5 -209zM537 166q39 -18 83 -28.5t97 -10.5q113 0 190.5 46t124.5 125t67.5 180.5t20.5 211.5q0 111 -19.5 208t-66.5 171z " />
<glyph unicode="&#xd9;" horiz-adv-x="1304" d="M152 539v833q8 0 16 2q8 0 15 1t18 1q18 0 40.5 -5t42 -18.5t33 -39t13.5 -66.5v-727q0 -86 15 -157.5t51 -124t96.5 -81t152.5 -28.5q139 0 217 53.5t101 175.5q12 68 12 162v852q8 0 16 2q8 0 16.5 1t18.5 1q18 0 41 -5t41 -18.5t31.5 -39t13.5 -66.5v-702 q0 -41 -1 -84t-5 -82q-8 -86 -40 -161t-93.5 -130t-152.5 -87t-220 -32q-221 0 -332.5 98.5t-144.5 272.5q-8 43 -10 94.5t-2 104.5zM321 1678q18 31 52 55t69 24q29 0 54.5 -13t58.5 -40l211 -170q-14 -18 -42 -35.5t-57 -17.5q-23 0 -46 10t-52 27z" />
<glyph unicode="&#xda;" horiz-adv-x="1304" d="M152 539v833q8 0 16 2q8 0 15 1t18 1q18 0 40.5 -5t42 -18.5t33 -39t13.5 -66.5v-727q0 -86 15 -157.5t51 -124t96.5 -81t152.5 -28.5q139 0 217 53.5t101 175.5q12 68 12 162v852q8 0 16 2q8 0 16.5 1t18.5 1q18 0 41 -5t41 -18.5t31.5 -39t13.5 -66.5v-702 q0 -41 -1 -84t-5 -82q-8 -86 -40 -161t-93.5 -130t-152.5 -87t-220 -32q-221 0 -332.5 98.5t-144.5 272.5q-8 43 -10 94.5t-2 104.5zM522 1534l211 170q33 27 58.5 40t54.5 13q35 0 68.5 -24.5t51.5 -54.5l-247 -160q-29 -16 -52.5 -26.5t-46.5 -10.5q-25 0 -54.5 17.5 t-43.5 35.5z" />
<glyph unicode="&#xdb;" horiz-adv-x="1304" d="M152 539v833q8 0 16 2q8 0 15 1t18 1q18 0 40.5 -5t42 -18.5t33 -39t13.5 -66.5v-727q0 -86 15 -157.5t51 -124t96.5 -81t152.5 -28.5q139 0 217 53.5t101 175.5q12 68 12 162v852q8 0 16 2q8 0 16.5 1t18.5 1q18 0 41 -5t41 -18.5t31.5 -39t13.5 -66.5v-702 q0 -41 -1 -84t-5 -82q-8 -86 -40 -161t-93.5 -130t-152.5 -87t-220 -32q-221 0 -332.5 98.5t-144.5 272.5q-8 43 -10 94.5t-2 104.5zM385 1510l175 200q49 59 102 60q53 0 98 -56l178 -211q-16 -10 -36.5 -18t-38.5 -8q-25 0 -46.5 11t-48.5 34l-110 96l-109 -98 q-18 -18 -38.5 -30.5t-49.5 -12.5q-18 0 -39 9.5t-37 23.5z" />
<glyph unicode="&#xdc;" horiz-adv-x="1304" d="M152 539v833q8 0 16 2q8 0 15 1t18 1q18 0 40.5 -5t42 -18.5t33 -39t13.5 -66.5v-727q0 -86 15 -157.5t51 -124t96.5 -81t152.5 -28.5q139 0 217 53.5t101 175.5q12 68 12 162v852q8 0 16 2q8 0 16.5 1t18.5 1q18 0 41 -5t41 -18.5t31.5 -39t13.5 -66.5v-702 q0 -41 -1 -84t-5 -82q-8 -86 -40 -161t-93.5 -130t-152.5 -87t-220 -32q-221 0 -332.5 98.5t-144.5 272.5q-8 43 -10 94.5t-2 104.5zM368 1606q0 47 30 78.5t75 31.5t74.5 -31.5t29.5 -78.5t-28.5 -78t-75.5 -31t-76 31t-29 78zM735 1606q0 47 29.5 78.5t74.5 31.5t75 -31.5 t30 -78.5t-28.5 -78t-76.5 -31q-47 0 -75.5 31t-28.5 78z" />
<glyph unicode="&#xdd;" horiz-adv-x="1073" d="M6 1356q18 10 47 16t60 6q53 0 79.5 -21.5t49.5 -62.5l297 -563l297 547q23 39 53.5 68.5t83.5 29.5q23 0 45 -4t49 -12l-440 -793v-567h-181v563zM410 1534l211 170q33 27 58.5 40t54.5 13q35 0 68.5 -24.5t51.5 -54.5l-247 -160q-29 -16 -52.5 -26.5t-46.5 -10.5 q-25 0 -54.5 17.5t-43.5 35.5z" />
<glyph unicode="&#xde;" horiz-adv-x="1120" d="M160 0v1372q8 0 16 2q8 0 16.5 1t18.5 1q18 0 39.5 -5t41 -18.5t33 -39t13.5 -66.5v-106q41 4 73.5 5t71.5 1q281 0 412 -101.5t131 -297.5q0 -133 -44 -221.5t-120 -141.5t-174 -75.5t-205 -22.5h-145v-287h-178zM332 987h4v-549h82q100 0 179 12.5t133 44t83 90 t29 150.5q0 76 -27 127t-73 80t-109.5 41t-134.5 12q-53 0 -92 -2t-74 -6z" />
<glyph unicode="&#xdf;" horiz-adv-x="1165" d="M152 0v1057q0 35 3 71.5t7 63.5q29 137 137.5 206.5t257.5 69.5q84 0 157.5 -20.5t128 -59t85 -96t30.5 -131.5q0 -47 -13 -85t-34.5 -70.5t-47 -61.5t-52.5 -55q-41 -41 -71.5 -79t-30.5 -81q0 -29 9 -51.5t27.5 -41t48 -35.5t70.5 -38q43 -23 83 -46t71 -57t49 -78 t18 -106q0 -131 -87 -218t-263 -87q-80 0 -144.5 16.5t-98.5 32.5q-78 39 -78 84q0 27 17.5 54.5t43.5 62.5q14 -12 38 -30.5t56.5 -36t73.5 -28.5t90 -11q78 0 131.5 31.5t53.5 113.5q0 68 -43.5 102.5t-110.5 65.5q-41 18 -82 41t-75 53.5t-55.5 70.5t-21.5 95 q0 88 44 145.5t94 104.5q43 43 77.5 89t34.5 112q0 84 -56 131t-167 47q-123 0 -177 -61.5t-54 -184.5v-1071h-174z" />
<glyph unicode="&#xe0;" horiz-adv-x="1032" d="M86 268q0 106 54.5 174t134 107t171 53t166.5 16h43q25 0 43 -2v31q0 92 -44 140.5t-169 48.5q-92 0 -155.5 -24t-122.5 -64h-21q-16 27 -27.5 57.5t-11.5 48.5q0 27 33 50.5t85 42t115.5 28.5t125.5 10q104 0 174 -22.5t113 -67.5t60 -112.5t17 -155.5v-404 q0 -49 4.5 -76.5t15.5 -41t30.5 -17.5t50.5 -4v-82q-18 -6 -45 -10t-56 -4q-63 0 -110 25.5t-55 90.5q-51 -51 -123 -86.5t-189 -35.5q-53 0 -107.5 12t-98.5 45t-72.5 88t-28.5 141zM260 279q0 -61 37 -108.5t137 -47.5q53 0 101.5 15.5t85 38t58 49t21.5 50.5v209h-59 q-66 0 -133.5 -8t-122.5 -30.5t-90 -62t-35 -105.5zM213 1382q23 18 55.5 34t61.5 16q39 0 62.5 -20.5t45.5 -51.5l172 -225q-16 -12 -39.5 -22.5t-46.5 -10.5q-31 0 -56.5 15.5t-47.5 41.5z" />
<glyph unicode="&#xe1;" horiz-adv-x="1032" d="M86 268q0 106 54.5 174t134 107t171 53t166.5 16h43q25 0 43 -2v31q0 92 -44 140.5t-169 48.5q-92 0 -155.5 -24t-122.5 -64h-21q-16 27 -27.5 57.5t-11.5 48.5q0 27 33 50.5t85 42t115.5 28.5t125.5 10q104 0 174 -22.5t113 -67.5t60 -112.5t17 -155.5v-404 q0 -49 4.5 -76.5t15.5 -41t30.5 -17.5t50.5 -4v-82q-18 -6 -45 -10t-56 -4q-63 0 -110 25.5t-55 90.5q-51 -51 -123 -86.5t-189 -35.5q-53 0 -107.5 12t-98.5 45t-72.5 88t-28.5 141zM260 279q0 -61 37 -108.5t137 -47.5q53 0 101.5 15.5t85 38t58 49t21.5 50.5v209h-59 q-66 0 -133.5 -8t-122.5 -30.5t-90 -62t-35 -105.5zM389 1135l172 225q23 31 46.5 51.5t62.5 20.5q29 0 61.5 -15.5t55.5 -34.5l-207 -223q-23 -27 -48.5 -42t-56.5 -15q-23 0 -46.5 10.5t-39.5 22.5z" />
<glyph unicode="&#xe2;" horiz-adv-x="1032" d="M86 268q0 106 54.5 174t134 107t171 53t166.5 16h43q25 0 43 -2v31q0 92 -44 140.5t-169 48.5q-92 0 -155.5 -24t-122.5 -64h-21q-16 27 -27.5 57.5t-11.5 48.5q0 27 33 50.5t85 42t115.5 28.5t125.5 10q104 0 174 -22.5t113 -67.5t60 -112.5t17 -155.5v-404 q0 -49 4.5 -76.5t15.5 -41t30.5 -17.5t50.5 -4v-82q-18 -6 -45 -10t-56 -4q-63 0 -110 25.5t-55 90.5q-51 -51 -123 -86.5t-189 -35.5q-53 0 -107.5 12t-98.5 45t-72.5 88t-28.5 141zM260 279q0 -61 37 -108.5t137 -47.5q53 0 101.5 15.5t85 38t58 49t21.5 50.5v209h-59 q-66 0 -133.5 -8t-122.5 -30.5t-90 -62t-35 -105.5zM215 1126l181 238q20 27 44.5 42t57.5 15t54.5 -13t43.5 -42l189 -246q-16 -10 -34.5 -17t-41.5 -7q-49 0 -92 45l-121 131l-121 -135q-35 -41 -86 -41q-18 0 -38 7t-36 23z" />
<glyph unicode="&#xe3;" horiz-adv-x="1032" d="M86 268q0 106 54.5 174t134 107t171 53t166.5 16h43q25 0 43 -2v31q0 92 -44 140.5t-169 48.5q-92 0 -155.5 -24t-122.5 -64h-21q-16 27 -27.5 57.5t-11.5 48.5q0 27 33 50.5t85 42t115.5 28.5t125.5 10q104 0 174 -22.5t113 -67.5t60 -112.5t17 -155.5v-404 q0 -49 4.5 -76.5t15.5 -41t30.5 -17.5t50.5 -4v-82q-18 -6 -45 -10t-56 -4q-63 0 -110 25.5t-55 90.5q-51 -51 -123 -86.5t-189 -35.5q-53 0 -107.5 12t-98.5 45t-72.5 88t-28.5 141zM260 279q0 -61 37 -108.5t137 -47.5q53 0 101.5 15.5t85 38t58 49t21.5 50.5v209h-59 q-66 0 -133.5 -8t-122.5 -30.5t-90 -62t-35 -105.5zM181 1194q0 20 14 39.5t37 36.5q35 29 75.5 44t79.5 15q37 0 67 -10t56 -23q29 -14 57.5 -24t63.5 -10q41 0 70.5 24.5t58.5 69.5q23 -14 47.5 -38t24.5 -48q0 -27 -25 -58q-27 -33 -68.5 -56t-97.5 -23q-41 0 -75.5 11 t-67.5 25q-29 12 -56.5 21.5t-58.5 9.5q-41 0 -76.5 -24.5t-68.5 -63.5q-18 14 -37.5 36.5t-19.5 45.5z" />
<glyph unicode="&#xe4;" horiz-adv-x="1032" d="M86 268q0 106 54.5 174t134 107t171 53t166.5 16h43q25 0 43 -2v31q0 92 -44 140.5t-169 48.5q-92 0 -155.5 -24t-122.5 -64h-21q-16 27 -27.5 57.5t-11.5 48.5q0 27 33 50.5t85 42t115.5 28.5t125.5 10q104 0 174 -22.5t113 -67.5t60 -112.5t17 -155.5v-404 q0 -49 4.5 -76.5t15.5 -41t30.5 -17.5t50.5 -4v-82q-18 -6 -45 -10t-56 -4q-63 0 -110 25.5t-55 90.5q-51 -51 -123 -86.5t-189 -35.5q-53 0 -107.5 12t-98.5 45t-72.5 88t-28.5 141zM260 279q0 -61 37 -108.5t137 -47.5q53 0 101.5 15.5t85 38t58 49t21.5 50.5v209h-59 q-66 0 -133.5 -8t-122.5 -30.5t-90 -62t-35 -105.5zM223 1245q0 47 30 79t75 32t74.5 -32t29.5 -79t-28.5 -77.5t-75.5 -30.5t-76 30.5t-29 77.5zM590 1245q0 47 29.5 79t74.5 32t75 -32t30 -79t-28.5 -77.5t-76.5 -30.5q-47 0 -75.5 30.5t-28.5 77.5z" />
<glyph unicode="&#xe5;" horiz-adv-x="1032" d="M86 268q0 106 54.5 174t134 107t171 53t166.5 16h43q25 0 43 -2v31q0 92 -44 140.5t-169 48.5q-92 0 -155.5 -24t-122.5 -64h-21q-16 27 -27.5 57.5t-11.5 48.5q0 27 33 50.5t85 42t115.5 28.5t125.5 10q104 0 174 -22.5t113 -67.5t60 -112.5t17 -155.5v-404 q0 -49 4.5 -76.5t15.5 -41t30.5 -17.5t50.5 -4v-82q-18 -6 -45 -10t-56 -4q-63 0 -110 25.5t-55 90.5q-51 -51 -123 -86.5t-189 -35.5q-53 0 -107.5 12t-98.5 45t-72.5 88t-28.5 141zM260 279q0 -61 37 -108.5t137 -47.5q53 0 101.5 15.5t85 38t58 49t21.5 50.5v209h-59 q-66 0 -133.5 -8t-122.5 -30.5t-90 -62t-35 -105.5zM283 1313q0 94 58 159.5t159 65.5q100 0 158.5 -61.5t58.5 -161.5q0 -45 -15.5 -86t-43 -72t-68.5 -48t-90 -17t-90 17t-69 48t-43 71t-15 85zM391 1315q0 -49 27.5 -86t81.5 -37q53 0 81.5 36t28.5 85q0 47 -23.5 87 t-88.5 40q-55 0 -81 -39t-26 -86z" />
<glyph unicode="&#xe6;" horiz-adv-x="1611" d="M86 262q0 100 54.5 165t134 100.5t172 49t167.5 13.5h82v45q0 45 -10 81t-34.5 62.5t-65.5 41t-103 14.5q-49 0 -88 -6.5t-70.5 -17.5t-61.5 -26.5t-60 -35.5h-21q-16 27 -27.5 57.5t-11.5 48.5q0 27 33 50.5t85 42t116.5 28.5t126.5 10q133 0 207.5 -38t113.5 -116 q55 78 135 116t177 38q102 0 174.5 -32.5t120 -88t70 -129t22.5 -155.5q0 -29 -1 -65t-5 -64h-648q2 -76 20.5 -137.5t55.5 -105.5t92.5 -68.5t132.5 -24.5q59 0 103.5 12t77 30.5t54 38t36.5 35.5q23 -27 40 -55.5t17 -54.5q0 -16 -15.5 -37t-41.5 -39q-43 -33 -117 -54.5 t-170 -21.5q-121 0 -215 44t-154 124q-154 -162 -374 -162q-59 0 -117.5 13.5t-105 46.5t-75 88t-28.5 139zM258 266q0 -27 8 -53.5t28.5 -47t56.5 -32.5t89 -12q57 0 104.5 14.5t83.5 36t61.5 44t37.5 40.5q-18 47 -24.5 100.5t-8.5 106.5h-41q-70 0 -140.5 -7 t-126.5 -28.5t-92 -61t-36 -100.5zM870 582h484q-2 57 -14.5 105t-40 83t-71.5 54.5t-108 19.5q-106 0 -174 -71.5t-76 -190.5z" />
<glyph unicode="&#xe7;" horiz-adv-x="948" d="M98 479q0 152 49.5 250t121 154.5t152.5 79t142 22.5q74 0 132.5 -15.5t100.5 -39t64.5 -50t22.5 -51.5t-16.5 -55.5t-32.5 -52.5h-23q-35 41 -90 77t-150 36q-78 0 -133 -27t-91 -75t-52 -112.5t-16 -138.5q0 -76 16 -142.5t52 -115.5t93.5 -77.5t137.5 -28.5 q55 0 99 17.5t75 39.5q37 25 65 57q16 -16 42 -50t26 -62q0 -29 -43 -66q-39 -35 -112 -59.5t-177 -24.5q-66 0 -144.5 18.5t-147 74t-116 154.5t-47.5 263zM385 -371q0 10 2.5 28.5t8.5 39.5q14 -6 27.5 -8t25.5 -2q35 0 54.5 12t19.5 39q0 25 -12.5 41t-28.5 33 q-16 16 -28.5 33.5t-12.5 45.5q0 39 23.5 75t35.5 52h121q-29 -29 -44 -48t-15 -42q0 -20 10 -34.5t26 -28.5q18 -18 36 -43t18 -70t-17.5 -79.5t-45 -58.5t-62.5 -36t-70 -12q-72 0 -72 63z" />
<glyph unicode="&#xe8;" horiz-adv-x="1019" d="M98 489q0 129 38 223.5t99.5 155t140.5 89t163 28.5q104 0 179 -35t122 -93t69.5 -135t22.5 -159q0 -29 -1 -58.5t-5 -55.5h-647q6 -150 78.5 -241t224.5 -91q59 0 103 12t76 30.5t54.5 38t36.5 35.5q23 -29 40 -61.5t17 -50.5q0 -16 -10 -33.5t-35 -36.5 q-47 -35 -120.5 -58.5t-178.5 -23.5q-96 0 -181 28t-148.5 89t-100.5 160.5t-37 242.5zM279 580h479q0 55 -11.5 102t-38 83t-70.5 56.5t-108 20.5q-106 0 -174.5 -69.5t-76.5 -192.5zM262 1382q23 18 55.5 34t61.5 16q39 0 62.5 -20.5t45.5 -51.5l172 -225 q-16 -12 -39.5 -22.5t-46.5 -10.5q-31 0 -56.5 15.5t-47.5 41.5z" />
<glyph unicode="&#xe9;" horiz-adv-x="1019" d="M98 489q0 129 38 223.5t99.5 155t140.5 89t163 28.5q104 0 179 -35t122 -93t69.5 -135t22.5 -159q0 -29 -1 -58.5t-5 -55.5h-647q6 -150 78.5 -241t224.5 -91q59 0 103 12t76 30.5t54.5 38t36.5 35.5q23 -29 40 -61.5t17 -50.5q0 -16 -10 -33.5t-35 -36.5 q-47 -35 -120.5 -58.5t-178.5 -23.5q-96 0 -181 28t-148.5 89t-100.5 160.5t-37 242.5zM279 580h479q0 55 -11.5 102t-38 83t-70.5 56.5t-108 20.5q-106 0 -174.5 -69.5t-76.5 -192.5zM389 1135l172 225q23 31 46.5 51.5t62.5 20.5q29 0 61.5 -15.5t55.5 -34.5l-207 -223 q-23 -27 -48.5 -42t-56.5 -15q-23 0 -46.5 10.5t-39.5 22.5z" />
<glyph unicode="&#xea;" horiz-adv-x="1019" d="M98 489q0 129 38 223.5t99.5 155t140.5 89t163 28.5q104 0 179 -35t122 -93t69.5 -135t22.5 -159q0 -29 -1 -58.5t-5 -55.5h-647q6 -150 78.5 -241t224.5 -91q59 0 103 12t76 30.5t54.5 38t36.5 35.5q23 -29 40 -61.5t17 -50.5q0 -16 -10 -33.5t-35 -36.5 q-47 -35 -120.5 -58.5t-178.5 -23.5q-96 0 -181 28t-148.5 89t-100.5 160.5t-37 242.5zM279 580h479q0 55 -11.5 102t-38 83t-70.5 56.5t-108 20.5q-106 0 -174.5 -69.5t-76.5 -192.5zM249 1126l181 238q20 27 44.5 42t57.5 15t54.5 -13t43.5 -42l189 -246 q-16 -10 -34.5 -17t-41.5 -7q-49 0 -92 45l-121 131l-121 -135q-35 -41 -86 -41q-18 0 -38 7t-36 23z" />
<glyph unicode="&#xeb;" horiz-adv-x="1019" d="M98 489q0 129 38 223.5t99.5 155t140.5 89t163 28.5q104 0 179 -35t122 -93t69.5 -135t22.5 -159q0 -29 -1 -58.5t-5 -55.5h-647q6 -150 78.5 -241t224.5 -91q59 0 103 12t76 30.5t54.5 38t36.5 35.5q23 -29 40 -61.5t17 -50.5q0 -16 -10 -33.5t-35 -36.5 q-47 -35 -120.5 -58.5t-178.5 -23.5q-96 0 -181 28t-148.5 89t-100.5 160.5t-37 242.5zM279 580h479q0 55 -11.5 102t-38 83t-70.5 56.5t-108 20.5q-106 0 -174.5 -69.5t-76.5 -192.5zM260 1245q0 47 30 79t75 32t74.5 -32t29.5 -79t-28.5 -77.5t-75.5 -30.5t-76 30.5 t-29 77.5zM627 1245q0 47 29.5 79t74.5 32t75 -32t30 -79t-28.5 -77.5t-76.5 -30.5q-47 0 -75.5 30.5t-28.5 77.5z" />
<glyph unicode="&#xec;" horiz-adv-x="493" d="M150 199v774h12q4 0 11 1t13 1q57 0 97.5 -30t40.5 -107v-654q0 -59 17 -83.5t81 -24.5v-74q-18 -6 -50 -10t-63 -4q-59 0 -91 18.5t-47 49t-18 68.5t-3 75zM-86 1382q23 18 55.5 34t61.5 16q39 0 62.5 -20.5t45.5 -51.5l172 -225q-16 -12 -39.5 -22.5t-46.5 -10.5 q-31 0 -56.5 15.5t-47.5 41.5z" />
<glyph unicode="&#xed;" horiz-adv-x="493" d="M150 199v774h12q4 0 11 1t13 1q57 0 97.5 -30t40.5 -107v-654q0 -59 17 -83.5t81 -24.5v-74q-18 -6 -50 -10t-63 -4q-59 0 -91 18.5t-47 49t-18 68.5t-3 75zM129 1135l172 225q23 31 46.5 51.5t62.5 20.5q29 0 61.5 -15.5t55.5 -34.5l-207 -223q-23 -27 -48.5 -42 t-56.5 -15q-23 0 -46.5 10.5t-39.5 22.5z" />
<glyph unicode="&#xee;" horiz-adv-x="493" d="M150 199v774h12q4 0 11 1t13 1q57 0 97.5 -30t40.5 -107v-654q0 -59 17 -83.5t81 -24.5v-74q-18 -6 -50 -10t-63 -4q-59 0 -91 18.5t-47 49t-18 68.5t-3 75zM-50 1126l181 238q20 27 44.5 42t57.5 15t54.5 -13t43.5 -42l189 -246q-16 -10 -34.5 -17t-41.5 -7 q-49 0 -92 45l-121 131l-121 -135q-35 -41 -86 -41q-18 0 -38 7t-36 23z" />
<glyph unicode="&#xef;" horiz-adv-x="493" d="M150 199v774h12q4 0 11 1t13 1q57 0 97.5 -30t40.5 -107v-654q0 -59 17 -83.5t81 -24.5v-74q-18 -6 -50 -10t-63 -4q-59 0 -91 18.5t-47 49t-18 68.5t-3 75zM-48 1245q0 47 30 79t75 32t74.5 -32t29.5 -79t-28.5 -77.5t-75.5 -30.5t-76 30.5t-29 77.5zM319 1245 q0 47 29.5 79t74.5 32t75 -32t30 -79t-28.5 -77.5t-76.5 -30.5q-47 0 -75.5 30.5t-28.5 77.5z" />
<glyph unicode="&#xf0;" horiz-adv-x="1128" d="M106 461q0 123 36 213t96.5 147.5t138.5 85t164 27.5q84 0 149.5 -25.5t106.5 -60.5q-23 78 -74 150.5t-111 119.5l-182 -100l-78 108l131 72q-63 29 -131.5 44t-130.5 15v48q0 39 17.5 68.5t68.5 29.5q55 0 146.5 -23.5t195.5 -85.5l213 117l80 -108l-176 -99 q123 -106 183.5 -275t60.5 -380q0 -143 -33 -252t-93.5 -181.5t-145.5 -109.5t-189 -37q-98 0 -180 32t-140.5 93.5t-90.5 153.5t-32 213zM291 459q0 -170 74.5 -254t193.5 -84q57 0 107.5 23.5t86 72.5t56 127t20.5 186q0 53 -2 89t-12 71q-45 45 -114.5 70.5t-139.5 25.5 q-59 0 -108.5 -17t-85 -56t-56 -101.5t-20.5 -152.5z" />
<glyph unicode="&#xf1;" horiz-adv-x="1112" d="M152 0v967h10q4 0 11 1t13 1q47 0 85 -23.5t46 -81.5q47 47 128 84t192 37q139 0 213 -61.5t96 -153.5q10 -41 12.5 -91t2.5 -97v-582h-175v575q0 39 -1 75t-11 67q-14 53 -59 81.5t-133 28.5q-117 0 -186.5 -46t-69.5 -99v-682h-174zM244 1194q0 20 14 39.5t37 36.5 q35 29 75.5 44t79.5 15q37 0 67 -10t56 -23q29 -14 57.5 -24t63.5 -10q41 0 70.5 24.5t58.5 69.5q23 -14 47.5 -38t24.5 -48q0 -27 -25 -58q-27 -33 -68.5 -56t-97.5 -23q-41 0 -75.5 11t-67.5 25q-29 12 -56.5 21.5t-58.5 9.5q-41 0 -76.5 -24.5t-68.5 -63.5 q-18 14 -37.5 36.5t-19.5 45.5z" />
<glyph unicode="&#xf2;" horiz-adv-x="1097" d="M98 479q0 102 29 194.5t86 161t142 109.5t200 41q121 0 205 -41t137 -109.5t77.5 -158.5t24.5 -191q0 -100 -24.5 -193t-78.5 -165t-140 -115t-209 -43t-208 41t-138.5 110.5t-78 163t-24.5 195.5zM281 483q0 -63 11 -128.5t42 -118t82 -86t131 -33.5q82 0 135 33.5 t82 86t40 118t11 128.5t-11 126t-40 113t-80 81t-133 31q-78 0 -130 -31t-83 -81t-44 -113t-13 -126zM285 1382q23 18 55.5 34t61.5 16q39 0 62.5 -20.5t45.5 -51.5l172 -225q-16 -12 -39.5 -22.5t-46.5 -10.5q-31 0 -56.5 15.5t-47.5 41.5z" />
<glyph unicode="&#xf3;" horiz-adv-x="1097" d="M98 479q0 102 29 194.5t86 161t142 109.5t200 41q121 0 205 -41t137 -109.5t77.5 -158.5t24.5 -191q0 -100 -24.5 -193t-78.5 -165t-140 -115t-209 -43t-208 41t-138.5 110.5t-78 163t-24.5 195.5zM281 483q0 -63 11 -128.5t42 -118t82 -86t131 -33.5q82 0 135 33.5 t82 86t40 118t11 128.5t-11 126t-40 113t-80 81t-133 31q-78 0 -130 -31t-83 -81t-44 -113t-13 -126zM442 1135l172 225q23 31 46.5 51.5t62.5 20.5q29 0 61.5 -15.5t55.5 -34.5l-207 -223q-23 -27 -48.5 -42t-56.5 -15q-23 0 -46.5 10.5t-39.5 22.5z" />
<glyph unicode="&#xf4;" horiz-adv-x="1097" d="M98 479q0 102 29 194.5t86 161t142 109.5t200 41q121 0 205 -41t137 -109.5t77.5 -158.5t24.5 -191q0 -100 -24.5 -193t-78.5 -165t-140 -115t-209 -43t-208 41t-138.5 110.5t-78 163t-24.5 195.5zM281 483q0 -63 11 -128.5t42 -118t82 -86t131 -33.5q82 0 135 33.5 t82 86t40 118t11 128.5t-11 126t-40 113t-80 81t-133 31q-78 0 -130 -31t-83 -81t-44 -113t-13 -126zM284 1126l181 238q20 27 44.5 42t57.5 15t54.5 -13t43.5 -42l189 -246q-16 -10 -34.5 -17t-41.5 -7q-49 0 -92 45l-121 131l-121 -135q-35 -41 -86 -41q-18 0 -38 7 t-36 23z" />
<glyph unicode="&#xf5;" horiz-adv-x="1097" d="M98 479q0 102 29 194.5t86 161t142 109.5t200 41q121 0 205 -41t137 -109.5t77.5 -158.5t24.5 -191q0 -100 -24.5 -193t-78.5 -165t-140 -115t-209 -43t-208 41t-138.5 110.5t-78 163t-24.5 195.5zM281 483q0 -63 11 -128.5t42 -118t82 -86t131 -33.5q82 0 135 33.5 t82 86t40 118t11 128.5t-11 126t-40 113t-80 81t-133 31q-78 0 -130 -31t-83 -81t-44 -113t-13 -126zM232 1194q0 20 14 39.5t37 36.5q35 29 75.5 44t79.5 15q37 0 67 -10t56 -23q29 -14 57.5 -24t63.5 -10q41 0 70.5 24.5t58.5 69.5q23 -14 47.5 -38t24.5 -48 q0 -27 -25 -58q-27 -33 -68.5 -56t-97.5 -23q-41 0 -75.5 11t-67.5 25q-29 12 -56.5 21.5t-58.5 9.5q-41 0 -76.5 -24.5t-68.5 -63.5q-18 14 -37.5 36.5t-19.5 45.5z" />
<glyph unicode="&#xf6;" horiz-adv-x="1097" d="M98 479q0 102 29 194.5t86 161t142 109.5t200 41q121 0 205 -41t137 -109.5t77.5 -158.5t24.5 -191q0 -100 -24.5 -193t-78.5 -165t-140 -115t-209 -43t-208 41t-138.5 110.5t-78 163t-24.5 195.5zM281 483q0 -63 11 -128.5t42 -118t82 -86t131 -33.5q82 0 135 33.5 t82 86t40 118t11 128.5t-11 126t-40 113t-80 81t-133 31q-78 0 -130 -31t-83 -81t-44 -113t-13 -126zM276 1245q0 47 30 79t75 32t74.5 -32t29.5 -79t-28.5 -77.5t-75.5 -30.5t-76 30.5t-29 77.5zM643 1245q0 47 29.5 79t74.5 32t75 -32t30 -79t-28.5 -77.5t-76.5 -30.5 q-47 0 -75.5 30.5t-28.5 77.5z" />
<glyph unicode="&#xf7;" horiz-adv-x="1120" d="M156 610v164h798v-164h-798zM444 387q0 47 31 82t78 35t79 -35t32 -82q0 -49 -31 -84t-78 -35t-79 35t-32 84zM444 993q0 49 31 84t78 35t79 -35t32 -84t-31 -84t-78 -35t-79 35t-32 84z" />
<glyph unicode="&#xf8;" horiz-adv-x="1110" d="M102 -53l113 164q-59 72 -85 166t-26 202q0 102 29 194.5t86 161t142 109.5t200 41q68 0 124 -14.5t103 -38.5l89 123l120 -72l-100 -139q57 -70 83 -162t26 -197q0 -100 -25 -193t-79 -165t-140 -115t-209 -43q-70 0 -126 14.5t-103 36.5l-103 -145zM287 483 q0 -55 8 -111.5t29 -105.5l372 533q-57 35 -139 35q-78 0 -130 -31t-83 -81t-44 -113t-13 -126zM416 154q55 -37 137 -37t135 33.5t82 86t40 118t11 128.5q0 53 -7 105.5t-26 97.5z" />
<glyph unicode="&#xf9;" horiz-adv-x="1097" d="M143 358v615h13q4 0 11 1t13 1q57 0 97 -28.5t40 -106.5v-482q0 -80 11.5 -127t46.5 -71q31 -23 66.5 -31t82.5 -8q55 0 101.5 15.5t79 38t51 48t18.5 45.5v705h12q4 0 11.5 1t13.5 1q57 0 97 -30t40 -107v-838h-174v90q-41 -47 -114.5 -84t-190.5 -37q-119 0 -184.5 37 t-97 94.5t-38 126t-6.5 131.5zM264 1382q23 18 55.5 34t61.5 16q39 0 62.5 -20.5t45.5 -51.5l172 -225q-16 -12 -39.5 -22.5t-46.5 -10.5q-31 0 -56.5 15.5t-47.5 41.5z" />
<glyph unicode="&#xfa;" horiz-adv-x="1097" d="M143 358v615h13q4 0 11 1t13 1q57 0 97 -28.5t40 -106.5v-482q0 -80 11.5 -127t46.5 -71q31 -23 66.5 -31t82.5 -8q55 0 101.5 15.5t79 38t51 48t18.5 45.5v705h12q4 0 11.5 1t13.5 1q57 0 97 -30t40 -107v-838h-174v90q-41 -47 -114.5 -84t-190.5 -37q-119 0 -184.5 37 t-97 94.5t-38 126t-6.5 131.5zM434 1135l172 225q23 31 46.5 51.5t62.5 20.5q29 0 61.5 -15.5t55.5 -34.5l-207 -223q-23 -27 -48.5 -42t-56.5 -15q-23 0 -46.5 10.5t-39.5 22.5z" />
<glyph unicode="&#xfb;" horiz-adv-x="1097" d="M143 358v615h13q4 0 11 1t13 1q57 0 97 -28.5t40 -106.5v-482q0 -80 11.5 -127t46.5 -71q31 -23 66.5 -31t82.5 -8q55 0 101.5 15.5t79 38t51 48t18.5 45.5v705h12q4 0 11.5 1t13.5 1q57 0 97 -30t40 -107v-838h-174v90q-41 -47 -114.5 -84t-190.5 -37q-119 0 -184.5 37 t-97 94.5t-38 126t-6.5 131.5zM258 1126l181 238q20 27 44.5 42t57.5 15t54.5 -13t43.5 -42l189 -246q-16 -10 -34.5 -17t-41.5 -7q-49 0 -92 45l-121 131l-121 -135q-35 -41 -86 -41q-18 0 -38 7t-36 23z" />
<glyph unicode="&#xfc;" horiz-adv-x="1097" d="M143 358v615h13q4 0 11 1t13 1q57 0 97 -28.5t40 -106.5v-482q0 -80 11.5 -127t46.5 -71q31 -23 66.5 -31t82.5 -8q55 0 101.5 15.5t79 38t51 48t18.5 45.5v705h12q4 0 11.5 1t13.5 1q57 0 97 -30t40 -107v-838h-174v90q-41 -47 -114.5 -84t-190.5 -37q-119 0 -184.5 37 t-97 94.5t-38 126t-6.5 131.5zM254 1245q0 47 30 79t75 32t74.5 -32t29.5 -79t-28.5 -77.5t-75.5 -30.5t-76 30.5t-29 77.5zM621 1245q0 47 29.5 79t74.5 32t75 -32t30 -79t-28.5 -77.5t-76.5 -30.5q-47 0 -75.5 30.5t-28.5 77.5z" />
<glyph unicode="&#xfd;" horiz-adv-x="954" d="M23 -367q0 29 15 60t32 53q16 -14 50 -33.5t85 -19.5q72 0 116 53t78 164l29 92h-70l-331 950q43 16 90 17q53 0 86 -35t49 -82l225 -698l225 680q6 23 16.5 46t28 43.5t42 33t59.5 12.5q41 0 76 -19l-373 -1083q-23 -66 -49.5 -125t-65.5 -103.5t-95 -71t-136 -26.5 q-78 0 -130 22.5t-52 69.5zM360 1135l172 225q23 31 46.5 51.5t62.5 20.5q29 0 61.5 -15.5t55.5 -34.5l-207 -223q-23 -27 -48.5 -42t-56.5 -15q-23 0 -46.5 10.5t-39.5 22.5z" />
<glyph unicode="&#xfe;" horiz-adv-x="1101" d="M150 -442v1894h12q4 0 11 1t13 1q57 0 96.5 -29.5t39.5 -107.5v-447q39 47 108.5 81t173.5 34q80 0 150.5 -26.5t125 -85t86 -151.5t31.5 -228q0 -154 -37.5 -255.5t-98 -161t-134.5 -84t-143 -24.5q-111 0 -174.5 38t-85.5 69v-518h-174zM324 231q12 -16 32.5 -35.5 t50 -36t67.5 -28.5t81 -12q127 0 191.5 94t64.5 270q0 74 -13.5 139.5t-43 112.5t-79.5 75t-124 28q-98 0 -162.5 -41t-64.5 -99v-467z" />
<glyph unicode="&#xff;" horiz-adv-x="954" d="M23 -367q0 29 15 60t32 53q16 -14 50 -33.5t85 -19.5q72 0 116 53t78 164l29 92h-70l-331 950q43 16 90 17q53 0 86 -35t49 -82l225 -698l225 680q6 23 16.5 46t28 43.5t42 33t59.5 12.5q41 0 76 -19l-373 -1083q-23 -66 -49.5 -125t-65.5 -103.5t-95 -71t-136 -26.5 q-78 0 -130 22.5t-52 69.5zM198 1245q0 47 30 79t75 32t74.5 -32t29.5 -79t-28.5 -77.5t-75.5 -30.5t-76 30.5t-29 77.5zM565 1245q0 47 29.5 79t74.5 32t75 -32t30 -79t-28.5 -77.5t-76.5 -30.5q-47 0 -75.5 30.5t-28.5 77.5z" />
<glyph unicode="&#x131;" horiz-adv-x="493" d="M150 199v774h12q4 0 11 1t13 1q57 0 97.5 -30t40.5 -107v-654q0 -59 17 -83.5t81 -24.5v-74q-18 -6 -50 -10t-63 -4q-59 0 -91 18.5t-47 49t-18 68.5t-3 75z" />
<glyph unicode="&#x152;" horiz-adv-x="1851" d="M125 698q0 139 40 262t120 214.5t198.5 143.5t276.5 52h999q4 -12 4 -21v-22q0 -47 -26.5 -78.5t-98.5 -31.5h-491v-422h465v-158h-465v-483h520q68 0 97.5 -32t29.5 -79q0 -8 -1 -15.5t-1 -13.5v-14h-1049q-158 0 -273.5 54.5t-192 149.5t-114.5 222t-38 272zM309 698 q0 -111 25.5 -211t80 -175.5t139.5 -121t204 -45.5h211v1080h-203q-121 0 -208 -41t-142.5 -113t-81 -167t-25.5 -206z" />
<glyph unicode="&#x153;" horiz-adv-x="1732" d="M98 477q0 102 29 194.5t85 162t141 110.5t198 41q137 0 224 -61.5t128 -147.5q49 100 142.5 154.5t209.5 54.5q102 0 176 -35t121 -93t70 -135t23 -159q0 -29 -1.5 -58.5t-5.5 -55.5h-647q4 -68 23.5 -128.5t56.5 -105.5t91.5 -71.5t129.5 -26.5q59 0 104.5 12t78 30.5 t55 38t37.5 35.5q23 -29 40 -61.5t17 -54.5q0 -23 -25.5 -48.5t-69.5 -47t-106.5 -37t-136.5 -15.5q-131 0 -231.5 56.5t-151.5 160.5q-23 -43 -55.5 -81.5t-78.5 -68.5t-105.5 -48.5t-133.5 -18.5q-115 0 -196.5 42t-134 112t-77 162t-24.5 192zM281 483q0 -63 11 -127.5 t42 -117t82 -86t131 -33.5q82 0 135 33.5t82 87t40 119t11 128.5t-12 125t-42 111t-81 80t-129 31t-129 -31t-83 -81t-45 -113t-13 -126zM991 580h484q-2 57 -14.5 105t-40 83t-71.5 54.5t-108 19.5q-104 0 -172 -70.5t-78 -191.5z" />
<glyph unicode="&#x178;" horiz-adv-x="1073" d="M6 1356q18 10 47 16t60 6q53 0 79.5 -21.5t49.5 -62.5l297 -563l297 547q23 39 53.5 68.5t83.5 29.5q23 0 45 -4t49 -12l-440 -793v-567h-181v563zM249 1606q0 47 30 78.5t75 31.5t74.5 -31.5t29.5 -78.5t-28.5 -78t-75.5 -31t-76 31t-29 78zM616 1606q0 47 29.5 78.5 t74.5 31.5t75 -31.5t30 -78.5t-28.5 -78t-76.5 -31q-47 0 -75.5 31t-28.5 78z" />
<glyph unicode="&#x2c6;" horiz-adv-x="772" d="M104 1126l181 238q20 27 44.5 42t57.5 15t54.5 -13t43.5 -42l189 -246q-16 -10 -34.5 -17t-41.5 -7q-49 0 -92 45l-121 131l-121 -135q-35 -41 -86 -41q-18 0 -38 7t-36 23z" />
<glyph unicode="&#x2da;" horiz-adv-x="739" d="M152 1313q0 94 58 159.5t159 65.5q100 0 158.5 -61.5t58.5 -161.5q0 -45 -15.5 -86t-43 -72t-68.5 -48t-90 -17t-90 17t-69 48t-43 71t-15 85zM260 1315q0 -49 27.5 -86t81.5 -37q53 0 81.5 36t28.5 85q0 47 -23.5 87t-88.5 40q-55 0 -81 -39t-26 -86z" />
<glyph unicode="&#x2dc;" horiz-adv-x="784" d="M66 1194q0 20 14 39.5t37 36.5q35 29 75.5 44t79.5 15q37 0 67 -10t56 -23q29 -14 57.5 -24t63.5 -10q41 0 70.5 24.5t58.5 69.5q23 -14 47.5 -38t24.5 -48q0 -27 -25 -58q-27 -33 -68.5 -56t-97.5 -23q-41 0 -75.5 11t-67.5 25q-29 12 -56.5 21.5t-58.5 9.5 q-41 0 -76.5 -24.5t-68.5 -63.5q-18 14 -37.5 36.5t-19.5 45.5z" />
<glyph unicode="&#x2013;" horiz-adv-x="1024" d="M2 580v21q0 11 2 20q0 8 2 16h903q18 0 38 -1t36 -10.5t27.5 -28.5t11.5 -56q0 -10 -1 -21.5t-1 -19.5q-2 -10 -2 -19h-912q-41 0 -72.5 20t-31.5 79z" />
<glyph unicode="&#x2014;" horiz-adv-x="2048" d="M8 580q0 23 1 40t3 17h1915q18 0 38 -1t36 -10.5t27.5 -28.5t11.5 -56q0 -23 -1 -36t-3 -24h-1923q-43 0 -74 20t-31 79z" />
<glyph unicode="&#x2018;" horiz-adv-x="493" d="M113 1116q0 92 41 174t100 117q35 20 65 20q49 0 72 -63q-39 -16 -80 -58t-51 -92q23 -16 51.5 -46.5t28.5 -77.5t-28.5 -82t-82.5 -35q-59 0 -87.5 42t-28.5 101z" />
<glyph unicode="&#x2019;" horiz-adv-x="493" d="M102 1032q39 16 80 59.5t51 90.5q-23 16 -51 48t-28 79t28.5 81.5t81.5 34.5q59 0 88 -42t29 -101q0 -47 -11.5 -92t-29.5 -84t-44 -69.5t-56 -47.5q-16 -8 -33 -13t-33 -5q-49 0 -72 61z" />
<glyph unicode="&#x201a;" horiz-adv-x="462" d="M72 -176q39 16 80 59t51 90q-25 16 -52.5 47t-27.5 78t28.5 83t81.5 36q59 0 88 -42t29 -101q0 -94 -41 -176t-100 -117q-35 -20 -66 -21q-48 1 -71 64z" />
<glyph unicode="&#x201c;" horiz-adv-x="849" d="M469 1116q0 92 41 174t100 117q35 20 65 20q49 0 72 -63q-39 -16 -80 -58t-51 -92q23 -16 51.5 -46.5t28.5 -77.5t-28.5 -82t-82.5 -35q-59 0 -87.5 42t-28.5 101zM113 1116q0 92 41 174t100 117q35 20 65 20q49 0 72 -63q-39 -16 -80 -58t-51 -92q23 -16 51.5 -46.5 t28.5 -77.5t-28.5 -82t-82.5 -35q-59 0 -87.5 42t-28.5 101z" />
<glyph unicode="&#x201d;" horiz-adv-x="849" d="M458 1032q39 16 80 59.5t51 90.5q-23 16 -51 48t-28 79t28.5 81.5t81.5 34.5q59 0 88 -42t29 -101q0 -47 -11.5 -92t-29.5 -84t-44 -69.5t-56 -47.5q-16 -8 -33 -13t-33 -5q-49 0 -72 61zM102 1032q39 16 80 59.5t51 90.5q-23 16 -51 48t-28 79t28.5 81.5t81.5 34.5 q59 0 88 -42t29 -101q0 -47 -11.5 -92t-29.5 -84t-44 -69.5t-56 -47.5q-16 -8 -33 -13t-33 -5q-49 0 -72 61z" />
<glyph unicode="&#x201e;" horiz-adv-x="819" d="M428 -176q39 16 80 59t51 90q-25 16 -52.5 47t-27.5 78t28.5 83t81.5 36q59 0 88 -42t29 -101q0 -94 -41 -176t-100 -117q-35 -20 -66 -21q-48 1 -71 64zM72 -176q39 16 80 59t51 90q-25 16 -52.5 47t-27.5 78t28.5 83t81.5 36q59 0 88 -42t29 -101q0 -94 -41 -176 t-100 -117q-35 -20 -66 -21q-48 1 -71 64z" />
<glyph unicode="&#x2022;" horiz-adv-x="784" d="M129 717q0 55 18.5 104t53.5 85t83 57.5t107 21.5t107.5 -21.5t83 -57.5t54 -85t19.5 -104t-19.5 -103.5t-55 -84t-83.5 -57t-106 -21.5q-59 0 -107 21.5t-83 57t-53.5 84t-18.5 103.5z" />
<glyph unicode="&#x2026;" horiz-adv-x="1218" d="M496 96q0 53 33.5 90t82.5 37q51 0 85 -36.5t34 -90.5q0 -53 -32.5 -90t-86.5 -37q-51 0 -83.5 37t-32.5 90zM891 96q0 53 33.5 90t82.5 37q51 0 85 -36.5t34 -90.5q0 -53 -32.5 -90t-86.5 -37q-51 0 -83.5 37t-32.5 90zM95 96q0 53 33.5 90t82.5 37q51 0 85 -36.5 t34 -90.5q0 -53 -32.5 -90t-86.5 -37q-51 0 -83.5 37t-32.5 90z" />
<glyph unicode="&#x2039;" horiz-adv-x="604" d="M113 563q0 35 21.5 67t49.5 58l265 248q18 -20 30.5 -47t12.5 -49q0 -49 -31 -86l-168 -191l162 -190q20 -25 27 -47.5t7 -44.5q0 -23 -10 -49.5t-24 -45.5l-277 252q-29 27 -47 57.5t-18 67.5z" />
<glyph unicode="&#x203a;" horiz-adv-x="604" d="M113 840q0 23 12 49t31 47l264 -248q29 -27 50.5 -58.5t21.5 -66.5q0 -37 -18.5 -67.5t-47.5 -57.5l-276 -252q-14 18 -24.5 45t-10.5 50t7 45t28 47l161 190l-168 191q-30 37 -30 86z" />
<glyph unicode="&#x2044;" horiz-adv-x="239" d="M-354 0l731 1317q20 37 50 58.5t81 21.5q35 0 55 -8q8 -4 15 -7l-764 -1382h-168z" />
<glyph unicode="&#x2074;" horiz-adv-x="679" d="M70 772v100l305 461q16 25 38.5 46.5t53.5 21.5q16 0 34.5 -5t33.5 -16v-491h28q68 0 68 -68q0 -8 -4 -28l-4 -21h-88v-145h-140v145h-325zM197 889h198v303z" />
<glyph unicode="&#x20ac;" d="M57 467v117h144q-2 16 -2 49v47v40q0 19 2 38h-144v108h156q20 113 65.5 205t114 158.5t158.5 103.5t201 37q76 0 142.5 -17.5t116.5 -44t78.5 -58t28.5 -60.5q0 -20 -19.5 -53t-35.5 -50h-27q-14 16 -36.5 38t-56.5 42.5t-81 33.5t-108 13q-80 0 -141.5 -26.5 t-105.5 -72.5t-71.5 -108.5t-40.5 -134.5h494v-114h-510q0 -10 -1 -31.5t-1 -48.5q0 -23 2 -55.5t4 -38.5h506v-117h-492q14 -74 41 -137.5t70 -110.5t102.5 -73.5t139.5 -26.5q72 0 125 21.5t88 49.5q41 31 71 72q8 -10 21 -26l24 -33q12 -16 20.5 -33.5t8.5 -30.5 q0 -37 -61 -86q-47 -35 -128 -58.5t-182 -23.5q-131 0 -224 43t-154.5 114t-95.5 160t-48 179h-158z" />
<glyph unicode="&#x2122;" horiz-adv-x="1611" d="M35 1294q0 29 14 52.5t68 23.5h528q8 -23 8 -47q0 -29 -17.5 -53.5t-72.5 -24.5h-153v-635h-138v635h-231q-4 14 -5 28.5t-1 20.5zM729 610l47 746q14 10 32.5 13t35.5 3q27 0 50.5 -14.5t33.5 -40.5l190 -461l191 459q14 33 39.5 45t50.5 12q12 0 30.5 -3t32.5 -13 l37 -746h-129l-22 500l-170 -383h-125l-164 373l-27 -490h-133z" />
<glyph unicode="&#xe000;" horiz-adv-x="975" d="M0 975h975v-975h-975v975z" />
<glyph unicode="&#xfb01;" horiz-adv-x="1089" d="M150 0v1063q0 199 100 302t291 103q76 0 138 -15t106 -37.5t69 -49.5t25 -51q0 -23 -16.5 -51.5t-33.5 -51.5h-30q-33 43 -96.5 75t-153.5 32q-111 0 -168 -52.5t-57 -172.5v-131h596v-762q0 -70 15 -97.5t83 -27.5v-74q-20 -6 -52 -10t-61 -4q-59 0 -91 19.5t-47 51 t-18.5 72.5t-3.5 84v598h-421v-813h-174z" />
<glyph unicode="&#xfb02;" horiz-adv-x="1107" d="M150 0v1065q0 35 4 67.5t8 57.5q29 139 135 208.5t258 69.5q68 0 126 -10t107.5 -26.5t87 -35t62.5 -36.5v-1149q0 -37 1 -62.5t10 -41t29.5 -23.5t57.5 -8v-74q-18 -6 -49 -10t-59 -4q-59 0 -92 17.5t-48.5 48t-19.5 72.5t-4 89v1057h2q-37 16 -95.5 30.5t-117.5 14.5 q-111 0 -169 -50t-58 -171v-133h315v-150h-315v-813h-176z" />
<glyph unicode="&#xfb03;" horiz-adv-x="1701" d="M154 0v1069q0 199 92 299t266 100q53 0 98 -12t78 -30.5t51.5 -41t18.5 -43.5q0 -29 -16.5 -56.5t-39.5 -49.5h-24q-35 43 -78 63.5t-88 20.5q-84 0 -134 -50t-50 -173v-133h434v100q0 199 100.5 302t290.5 103q76 0 138.5 -15t106.5 -37.5t68.5 -49.5t24.5 -51 q0 -23 -16.5 -51.5t-32.5 -51.5h-31q-33 43 -96.5 75t-153.5 32q-111 0 -168 -52.5t-57 -172.5v-131h596v-762q0 -70 15.5 -97.5t82.5 -27.5v-74q-20 -6 -52 -10t-60 -4q-59 0 -91 19.5t-47.5 51t-18.5 72.5t-3 84v598h-422v-813h-174v813h-434v-813h-174z" />
<glyph unicode="&#xfb04;" horiz-adv-x="1722" d="M154 0v1069q0 199 92 299t266 100q53 0 98 -12t78 -30.5t51.5 -41t18.5 -43.5q0 -29 -16.5 -56.5t-39.5 -49.5h-24q-35 43 -78 63.5t-88 20.5q-84 0 -134 -50t-50 -173v-133h436v102q0 35 4 67.5t8 57.5q29 139 135.5 208.5t257.5 69.5q68 0 126.5 -10t107.5 -26.5 t87 -35t62 -36.5v-1149q0 -37 1 -62.5t10.5 -41t30 -23.5t57.5 -8v-74q-18 -6 -49 -10t-60 -4q-59 0 -92 17.5t-48.5 48t-19.5 72.5t-4 89v1057h2q-37 16 -95 30.5t-118 14.5q-111 0 -169 -50t-58 -171v-133h315v-150h-315v-813h-176v813h-436v-813h-174z" />
<glyph horiz-adv-x="784" d="M66 1155q0 20 14 39.5t37 36.5q35 29 75.5 44t79.5 15q37 0 67 -10t56 -23q29 -14 57.5 -24t63.5 -10q41 0 70.5 24.5t58.5 69.5q23 -14 47.5 -38t24.5 -48q0 -27 -25 -57q-27 -33 -68.5 -56.5t-97.5 -23.5q-41 0 -75.5 11t-67.5 25q-29 12 -56.5 21.5t-58.5 9.5 q-41 0 -76.5 -24.5t-68.5 -63.5q-18 14 -37.5 36.5t-19.5 45.5z" />
<glyph horiz-adv-x="761" d="M104 1092l175 200q49 59 102 60q53 0 98 -56l178 -211q-16 -10 -36.5 -18t-38.5 -8q-25 0 -46.5 11t-48.5 34l-110 96l-109 -98q-18 -18 -38.5 -30.5t-49.5 -12.5q-18 0 -39 9.5t-37 23.5z" />
<glyph horiz-adv-x="739" d="M152 1229q0 94 58 159.5t159 65.5q100 0 158.5 -61.5t58.5 -161.5q0 -45 -15.5 -86t-43 -72t-68.5 -48t-90 -17t-90 17t-69 48t-43 71t-15 85zM260 1231q0 -49 27.5 -86t81.5 -37q53 0 81.5 36t28.5 85q0 47 -23.5 87t-88.5 40q-55 0 -81 -39t-26 -86z" />
<glyph horiz-adv-x="784" d="M104 1188q0 47 30 78.5t75 31.5t74.5 -31.5t29.5 -78.5t-28.5 -78t-75.5 -31t-76 31t-29 78zM471 1188q0 47 29.5 78.5t74.5 31.5t75 -31.5t30 -78.5t-28.5 -78t-76.5 -31q-47 0 -75.5 31t-28.5 78z" />
<glyph horiz-adv-x="749" d="M168 1116l211 170q33 27 58.5 40t54.5 13q35 0 68.5 -24.5t51.5 -54.5l-247 -160q-29 -16 -52.5 -26.5t-46.5 -10.5q-25 0 -54.5 17.5t-43.5 35.5z" />
<glyph horiz-adv-x="749" d="M135 1260q18 31 52 55t69 24q29 0 54.5 -13t58.5 -40l211 -170q-14 -18 -42 -35.5t-57 -17.5q-23 0 -46 10t-52 27z" />
</font>
</defs>
</svg>
