<?xml version="1.0" standalone="no"?>
<!DOCTYPE svg PUBLIC "-//W3C//DTD SVG 1.1//EN" "http://www.w3.org/Graphics/SVG/1.1/DTD/svg11.dtd" >
<!--
2015-1-22: Created.
-->
<svg xmlns="http://www.w3.org/2000/svg">
<metadata>
Created by FontForge 20110222 at Thu Jan 22 15:57:05 2015
 By Ubuntu
Created by Ubuntu with FontForge 2.0 (http://fontforge.sf.net)
</metadata>
<defs>
<font id="iconvault" horiz-adv-x="512" >
  <font-face 
    font-family="iconvault"
    font-weight="500"
    font-stretch="normal"
    units-per-em="512"
    panose-1="2 0 6 9 0 0 0 0 0 0"
    ascent="448"
    descent="-64"
    bbox="-1.46289 -69.1562 516.602 448.951"
    underline-thickness="25.6"
    underline-position="-51.2"
    unicode-range="U+F100-F15B"
  />
    <missing-glyph />
    <glyph glyph-name="uniF100" unicode="&#xf100;" 
d="M474.645 111.191c0 -20.3936 -16.3691 -36.7725 -36.7666 -36.7725h-349.957c-20.4141 0 -36.7666 16.374 -36.7666 36.7725v183.854c0 20.3936 16.3525 36.7666 36.7666 36.7666h349.993c20.3926 0 36.7607 -16.373 36.7607 -36.7666v-183.854h-0.0302734z
M437.878 295.045h-349.957v-183.854h349.993v183.854h-0.0361328z" />
    <glyph glyph-name="uniF101" unicode="&#xf101;" 
d="M404.041 375.698h35.1816v-36.5352h-110.299v108.837h37.2295v-35.2549h37.8877v-37.0469zM314.515 302.409h14.4092h110.299v-366.189h-403.017v86.8936v97.0234v109.532v72.667v145.664h255.78v-145.591h22.5283zM143.908 302.409h36.791v-0.0732422h-36.791v0.0732422
zM83.8213 302.336h165.084v36.8271h-165.084v-36.8271zM83.8213 228.681h312.43v36.8281h-312.43v-36.8281zM83.8213 155.026h312.43v36.8271h-312.43v-36.8271zM83.8213 81.3711h312.43v36.8281h-312.43v-36.8281zM83.8213 7.75293h312.43v36.8271h-312.43v-36.8271z" />
    <glyph glyph-name="uniF102" unicode="&#xf102;" 
d="M224 448l0.639648 0.639648c123.521 0 224 -100.479 224 -224c0 -38.3994 -10.8799 -74.8799 -28.1592 -106.239c3.64746 -2.43262 7.16797 -5.12012 10.2393 -8.25684l64 -64c1.91992 -1.79199 3.71191 -3.58398 5.37598 -5.63184
c24 -26.8154 21.5039 -68.1602 -5.37598 -92.0312c-26.9434 -24 -68.2236 -21.5049 -92.1602 5.37598l-64 64c-3.07129 2.49512 -5.82324 5.37598 -8.31934 8.38379c-31.3604 -17.2158 -68.4805 -26.2402 -106.24 -26.2402c-123.52 0 -224 100.48 -224 224
s100.48 224 224 224zM224 384l-0.639648 -0.639648c-88.96 0 -160 -71.04 -160 -160c0 -89.0244 71.04 -160 160 -160c41.5996 0 80 14.7832 108.159 40.3193c2.49609 3.00781 5.37695 5.82422 8.38477 8.32031c0.576172 0.639648 1.21582 1.28027 1.85547 1.85645
c26.8799 28.8633 42.2402 67.9033 42.2402 110.144c0 88.96 -70.9756 160 -160 160zM192.512 100.992v255.359h63.4883v-255.359h-63.4883zM96.5117 196.992v63.4883h255.424v-63.4883h-255.424z" />
    <glyph glyph-name="uniF103" unicode="&#xf103;" 
d="M458.898 277.906c11.6299 -27.0625 17.4443 -55.4424 17.4443 -85.1387c0 -29.6953 -5.77832 -58.1113 -17.4443 -85.1377c-11.5566 -27.0264 -27.209 -50.3955 -46.8477 -69.998c-19.5664 -19.6025 -42.9355 -35.2549 -69.998 -46.8477
c-27.0264 -11.5938 -55.4062 -17.4443 -85.1387 -17.4443c-32.7676 0 -63.9268 6.875 -93.4395 20.6992c-29.5498 13.8242 -54.6748 33.2793 -75.4473 58.4404c-1.35254 1.90234 -1.97461 4.02344 -1.86523 6.4375c0.0732422 2.37695 0.87793 4.31543 2.41406 5.85059
l39.1309 39.4248c1.90234 1.71875 4.2793 2.55957 7.13184 2.55957c3.03516 -0.402344 5.22949 -1.53613 6.58301 -3.4375c13.8975 -18.1035 30.9395 -32.1104 51.127 -41.9844c20.1875 -9.91113 41.6182 -14.8477 64.292 -14.8477
c19.8223 0 38.7295 3.83984 56.6865 11.5566c17.9922 7.7168 33.5723 18.1396 46.7012 31.2686s23.5889 28.708 31.2686 46.7012s11.5566 36.9014 11.5566 56.7227s-3.83984 38.7295 -11.5566 56.7227s-18.1396 33.5723 -31.2686 46.7012s-28.6357 23.5889 -46.6289 31.3057
c-17.9561 7.71582 -36.9004 11.5566 -56.6855 11.5566c-18.6875 0 -36.5713 -3.40137 -53.7236 -10.1309c-17.1514 -6.76562 -32.4014 -16.4209 -45.7139 -29.001l39.1318 -39.4238c5.8877 -5.70508 7.24121 -12.2881 3.98633 -19.7119
c-3.21875 -7.60742 -8.81445 -11.4102 -16.8232 -11.4102h-128c-4.97363 0 -9.25293 1.79199 -12.873 5.41211c-3.62109 3.62109 -5.41309 7.89941 -5.41309 12.873v128c0 8.00977 3.80371 13.6045 11.4473 16.8594c7.42383 3.21875 13.9707 1.86523 19.6758 -4.02246
l37.1562 -36.8643c20.3701 19.2363 43.666 34.1582 69.8516 44.7266c26.1846 10.5693 53.2842 15.8721 81.2979 15.8721c29.7324 0 58.0752 -5.81445 85.1387 -17.4443c27.0625 -11.6299 50.4316 -27.2461 69.9971 -46.8477
c19.6396 -19.6387 35.2549 -42.9717 46.8486 -69.998z" />
    <glyph glyph-name="uniF104" unicode="&#xf104;" 
d="M256 387.62l-55.0029 -129.279l-4.38867 -10.3496l-11.1914 -0.987305l-139.922 -12.3252l105.947 -92.2334l8.44824 -7.42383l-2.52344 -10.9346l-31.4883 -136.887l120.503 72.3018l9.61816 5.77832l9.58203 -5.74219l120.503 -72.3018l-31.4883 136.887
l-2.4873 10.9355l8.41211 7.38672l105.983 92.2705l-139.959 12.3242l-11.1904 0.987305l-4.35156 10.3496zM256 435.456v0l72.2285 -169.765l183.771 -16.2373l-139.118 -121.125l41.3623 -179.821l-158.244 94.9023l-158.244 -94.9395l41.3984 179.822l-139.154 121.161
l183.771 16.2373z" />
    <glyph glyph-name="uniF105" unicode="&#xf105;" 
d="M0 448zM0 54.8574v310.856c0 12.5811 4.49805 23.333 13.4219 32.293c8.95996 8.95996 19.7119 13.4219 32.292 13.4219h420.572c12.5801 0 23.3691 -4.46191 32.292 -13.4219c8.92383 -8.95996 13.4219 -19.7119 13.4219 -32.293v-310.856
c0 -12.5811 -4.49805 -23.3691 -13.4219 -32.293c-8.92285 -8.95996 -19.7119 -13.4219 -32.292 -13.4219h-420.572c-12.5801 0 -23.332 4.46191 -32.292 13.4219c-8.92383 8.92383 -13.4219 19.7119 -13.4219 32.293zM36.5713 54.8574
c0 -2.4873 0.914062 -4.64453 2.70605 -6.43652c1.8291 -1.8291 3.9502 -2.70703 6.43652 -2.70703h420.572c2.48633 0 4.64453 0.87793 6.43652 2.70703c1.79199 1.79199 2.70605 3.94922 2.70605 6.43652v310.856c0 2.4873 -0.914062 4.6084 -2.70605 6.43652
c-1.79199 1.8291 -3.9502 2.70703 -6.43652 2.70703h-420.572c-2.48633 0 -4.60742 -0.87793 -6.43652 -2.70703c-1.79199 -1.82812 -2.70605 -3.94922 -2.70605 -6.43652v-310.856zM219.429 91.4287v18.2852c0 2.4873 0.914062 4.64453 2.70605 6.43652
c1.8291 1.8291 3.9502 2.70703 6.43652 2.70703h201.143c2.4873 0 4.64453 -0.87793 6.43652 -2.70703c1.79297 -1.79199 2.70703 -3.94922 2.70703 -6.43652v-18.2852c0 -2.4873 -0.914062 -4.64453 -2.70703 -6.43652
c-1.79199 -1.8291 -3.94922 -2.70605 -6.43652 -2.70605h-201.143c-2.48633 0 -4.60742 0.876953 -6.43652 2.70605c-1.79199 1.79199 -2.70605 3.94922 -2.70605 6.43652zM219.429 164.571v18.2861c0 2.48633 0.914062 4.60742 2.70605 6.43652
c1.8291 1.82812 3.9502 2.70605 6.43652 2.70605h201.143c2.4873 0 4.64453 -0.87793 6.43652 -2.70605c1.79297 -1.8291 2.70703 -3.9502 2.70703 -6.43652v-18.2861c0 -2.48633 -0.914062 -4.64453 -2.70703 -6.43652
c-1.79199 -1.82812 -3.94922 -2.70605 -6.43652 -2.70605h-201.143c-2.48633 0 -4.60742 0.87793 -6.43652 2.70605c-1.79199 1.79199 -2.70605 3.9502 -2.70605 6.43652zM219.429 237.714v18.2861c0 2.4873 0.914062 4.6084 2.70605 6.43652
c1.8291 1.8291 3.9502 2.70605 6.43652 2.70605h201.143c2.4873 0 4.64453 -0.876953 6.43652 -2.70605c1.79297 -1.82812 2.70703 -3.94922 2.70703 -6.43652v-18.2861c0 -2.48633 -0.914062 -4.60742 -2.70703 -6.43652
c-1.79199 -1.82812 -3.94922 -2.70605 -6.43652 -2.70605h-201.143c-2.48633 0 -4.60742 0.87793 -6.43652 2.70605c-1.79199 1.8291 -2.70605 3.9502 -2.70605 6.43652zM63.9287 282.929zM63.9268 238.629c0 2.15723 0.804688 4.05957 2.37695 5.66797
c1.57324 1.60938 3.51074 2.37695 5.70508 2.37695h113.372c2.19434 0 4.05957 -0.767578 5.70508 -2.37695c1.57227 -1.57227 2.37695 -3.51074 2.37695 -5.66797c0 -2.23145 -0.804688 -4.13281 -2.37695 -5.70508l-56.6855 -56.6494
c-1.60938 -1.64551 -3.47461 -2.41406 -5.70508 -2.41406c-2.19434 0 -4.09668 0.768555 -5.70605 2.41406l-56.6855 56.6494c-1.57227 1.57227 -2.37695 3.51074 -2.37695 5.70508zM219.429 312.394v18.2852c0 2.4873 0.914062 4.6084 2.70605 6.43652
c1.79199 1.8291 3.9502 2.70605 6.43652 2.70605h201.143c2.4873 0 4.64453 -0.876953 6.43652 -2.70605c1.79297 -1.82812 2.70703 -3.94922 2.70703 -6.43652v-18.2852c0 -2.4873 -0.914062 -4.6084 -2.70703 -6.43652
c-1.79199 -1.8291 -3.91309 -2.70703 -6.43652 -2.70703h-201.143c-2.48633 0 -4.60742 0.87793 -6.43652 2.70703c-1.79199 1.82812 -2.70605 3.94922 -2.70605 6.43652z" />
    <glyph glyph-name="uniF106" unicode="&#xf106;" 
d="M256 448c141.384 0 256 -114.616 256 -256s-114.616 -256 -256 -256s-256 114.616 -256 256s114.616 256 256 256zM301.783 28.124v327.757c0 7.78809 -4.4541 9.79492 -10.0195 4.22949l-158.086 -158.091c-1.33594 -1.33594 -2.22656 -2.66699 -2.89258 -4.22852
c0 0 -2.97461 -5.06445 0 -11.582c0.660156 -1.56152 1.55176 -2.89258 2.89258 -4.22852l158.086 -158.085c5.56543 -5.56543 10.0195 -3.56445 10.0195 4.22852z" />
    <glyph glyph-name="uniF107" unicode="&#xf107;" 
d="M2.34082 189.77c0 139.593 113.335 252.928 252.928 252.928c139.63 0 252.965 -113.335 252.965 -252.928c0 -139.594 -113.335 -252.929 -252.965 -252.929c-139.593 0 -252.928 113.335 -252.928 252.929zM215.625 33.9385
c0 -2.30371 1.02441 -4.64453 3.32812 -5.9248c1.97461 -1.64551 4.9375 -2.63281 7.89941 -2.63281h59.2822c2.96191 0 5.9248 0.987305 7.89941 2.63281c2.30371 1.28027 3.32812 3.62109 3.32812 5.9248l-0.292969 200.302c0 4.60742 -4.93652 8.26465 -11.1543 8.26465
h-60.8906c-5.96191 0 -10.8984 -3.65723 -11.2275 -8.26465zM213.139 284.928c0 -5.8877 4.60742 -10.8252 10.2031 -10.8252h63.2324c5.8877 0 10.8613 4.9375 10.8613 10.8252v62.6475c0 5.8877 -4.97363 10.8252 -10.8613 10.8252h-63.2324
c-5.5957 0 -10.2031 -4.9375 -10.2031 -10.8252v-62.6475z" />
    <glyph glyph-name="uniF108" unicode="&#xf108;" 
d="M0 448zM0 -27.4287v365.715c0 9.89844 3.62044 18.4681 10.8613 25.709c7.24154 7.24155 15.8115 10.8623 25.71 10.8623h36.5713v27.4287c0 12.5801 4.47396 23.3441 13.4219 32.292s19.7122 13.4219 32.293 13.4219h18.2852c12.581 0 23.3454 -4.47397 32.293 -13.4219
c8.94792 -8.94791 13.4219 -19.7119 13.4219 -32.292v-27.4287h109.714v27.4287c0 12.5801 4.47397 23.3441 13.4219 32.292s19.7122 13.4219 32.293 13.4219h18.2852c12.5807 0 23.3451 -4.47397 32.293 -13.4219s13.4219 -19.7119 13.4219 -32.292v-27.4287h36.5713
c9.89844 0 18.4681 -3.62076 25.709 -10.8623c7.24155 -7.24088 10.8623 -15.8105 10.8623 -25.709v-365.715c0 -9.89844 -3.62076 -18.4684 -10.8623 -25.71c-7.24088 -7.24089 -15.8105 -10.8613 -25.709 -10.8613h-402.286c-9.89844 0 -18.4684 3.62044 -25.71 10.8613
c-7.24089 7.24154 -10.8613 15.8115 -10.8613 25.71zM36.5713 -27.4287h82.2861v82.2861h-82.2861v-82.2861zM36.5713 73.1426h82.2861v91.4287h-82.2861v-91.4287zM36.5713 182.857h82.2861v82.2852h-82.2861v-82.2852zM109.714 320
c0 -2.48697 0.902344 -4.63248 2.70703 -6.43652c1.80404 -1.80405 3.94955 -2.70605 6.43652 -2.70605h18.2852c2.48698 0 4.63249 0.902008 6.43652 2.70605c1.80469 1.80405 2.70703 3.94955 2.70703 6.43652v82.2861c0 2.48633 -0.902344 4.63184 -2.70703 6.43652
c-1.80403 1.80405 -3.94954 2.70605 -6.43652 2.70605h-18.2852c-2.48698 0 -4.63248 -0.902008 -6.43652 -2.70605c-1.80469 -1.80469 -2.70703 -3.9502 -2.70703 -6.43652v-82.2861zM137.143 -27.4287h91.4287v82.2861h-91.4287v-82.2861zM137.143 73.1426h91.4287
v91.4287h-91.4287v-91.4287zM137.143 182.857h91.4287v82.2852h-91.4287v-82.2852zM246.857 -27.4287h91.4287v82.2861h-91.4287v-82.2861zM246.857 73.1426h91.4287v91.4287h-91.4287v-91.4287zM246.857 182.857h91.4287v82.2852h-91.4287v-82.2852zM329.143 320
c0 -2.48697 0.902344 -4.63248 2.70703 -6.43652c1.80405 -1.80405 3.94955 -2.70605 6.43652 -2.70605h18.2852c2.48697 0 4.63248 0.902008 6.43652 2.70605s2.70605 3.94955 2.70605 6.43652v82.2861c0 2.48633 -0.902008 4.63184 -2.70605 6.43652
c-1.80405 1.80405 -3.94955 2.70605 -6.43652 2.70605h-18.2852c-2.48697 0 -4.63248 -0.902008 -6.43652 -2.70605c-1.80469 -1.80469 -2.70703 -3.9502 -2.70703 -6.43652v-82.2861zM356.571 -27.4287h82.2861v82.2861h-82.2861v-82.2861zM356.571 73.1426h82.2861
v91.4287h-82.2861v-91.4287zM356.571 182.857h82.2861v82.2852h-82.2861v-82.2852z" />
    <glyph glyph-name="uniF109" unicode="&#xf109;" 
d="M101.766 301.874l25.042 44.6562l274.675 -154.027l-25.042 -44.6572zM103.335 63.2158l274.69 130.082l21.9121 -46.2705l-274.691 -130.081zM363.32 170.168c0 14.1729 11.4844 25.6514 25.6562 25.6514v0c14.167 0 25.6514 -11.4844 25.6514 -25.6514v0
c0 -14.167 -11.4844 -25.6562 -25.6514 -25.6562v0c-14.1719 0.00585938 -25.6562 11.4951 -25.6562 25.6562v0z" />
    <glyph glyph-name="uniF10A" unicode="&#xf10a;" 
d="M256 416c123.7 0 224 -100.3 224 -224s-100.3 -224 -224 -224s-224 100.3 -224 224s100.3 224 224 224zM391.8 56.2002c36.2002 36.2998 56.2002 84.5 56.2002 135.8s-20 99.5 -56.2002 135.8c-36.2998 36.2002 -84.5 56.2002 -135.8 56.2002s-99.5 -20 -135.8 -56.2002
c-36.2002 -36.2998 -56.2002 -84.5 -56.2002 -135.8s20 -99.5 56.2002 -135.8c36.2998 -36.2002 84.5 -56.2002 135.8 -56.2002s99.5 20 135.8 56.2002zM224 176l16 176h24l8 -160l80 -96l-16 -16z" />
    <glyph glyph-name="uniF10B" unicode="&#xf10b;" 
d="M512 -45.2139zM512 347.94v-310.857c0 -12.5801 -4.49805 -23.2959 -13.4219 -32.292c-8.95996 -8.92383 -19.7119 -13.4219 -32.292 -13.4219h-420.572c-12.5801 0 -23.3691 4.49805 -32.292 13.4219c-8.92383 8.99609 -13.4219 19.7119 -13.4219 32.292v310.857
c0 12.5811 4.49805 23.3691 13.4219 32.293c8.92285 8.95996 19.7119 13.4219 32.292 13.4219h420.572c12.5801 0 23.332 -4.46191 32.292 -13.4219c8.92383 -8.92383 13.4219 -19.7119 13.4219 -32.293zM475.429 347.94c0 2.4873 -0.914062 4.64453 -2.70605 6.43652
c-1.8291 1.86523 -3.9502 2.70605 -6.43652 2.70605h-420.572c-2.48633 0 -4.64453 -0.84082 -6.43652 -2.70605c-1.79199 -1.79199 -2.70605 -3.91309 -2.70605 -6.43652v-310.857c0 -2.41309 0.914062 -4.57129 2.70605 -6.43652
c1.79199 -1.79199 3.91309 -2.70605 6.43652 -2.70605h420.572c2.4502 0 4.60742 0.914062 6.43652 2.70605c1.79199 1.86523 2.70605 3.98633 2.70605 6.43652v310.857zM292.571 311.369v-18.2861c0 -2.48633 -0.914062 -4.64453 -2.70605 -6.43652
c-1.8291 -1.82812 -3.98633 -2.70605 -6.43652 -2.70605h-201.143c-2.4873 0 -4.64453 0.84082 -6.43652 2.70605c-1.79199 1.79199 -2.70703 3.9502 -2.70703 6.43652v18.2861c0 2.52344 0.915039 4.64453 2.70703 6.43652
c1.79199 1.86523 3.94922 2.70605 6.43652 2.70605h201.143c2.4502 0 4.60742 -0.84082 6.43652 -2.70605c1.79199 -1.79199 2.70605 -3.91309 2.70605 -6.43652zM292.571 238.227v-18.2861c0 -2.48633 -0.914062 -4.60742 -2.70605 -6.43652
c-1.8291 -1.82812 -3.9502 -2.70605 -6.43652 -2.70605h-201.143c-2.4873 0 -4.64453 0.87793 -6.43652 2.70605c-1.79199 1.8291 -2.70703 3.9502 -2.70703 6.43652v18.2861c0 2.52344 0.915039 4.64453 2.70703 6.43652c1.79199 1.86523 3.94922 2.70605 6.43652 2.70605
h201.143c2.4502 0 4.60742 -0.84082 6.43652 -2.70605c1.79199 -1.79199 2.70605 -3.91309 2.70605 -6.43652zM292.571 165.083v-18.2852c0 -2.4502 -0.914062 -4.57129 -2.70605 -6.43652c-1.8291 -1.8291 -3.9502 -2.70605 -6.43652 -2.70605h-201.143
c-2.4873 0 -4.64453 0.876953 -6.43652 2.70605c-1.79199 1.86523 -2.70703 3.94922 -2.70703 6.43652v18.2852c0 2.4873 0.915039 4.64453 2.70703 6.43652c1.79199 1.8291 3.94922 2.70703 6.43652 2.70703h201.143c2.4502 0 4.60742 -0.87793 6.43652 -2.74316
c1.79199 -1.75586 2.70605 -3.91309 2.70605 -6.40039zM448.071 119.893zM448.073 107.557c0 -2.1582 -0.804688 -4.05957 -2.37695 -5.63184c-1.57324 -1.64551 -3.51074 -2.41406 -5.70508 -2.41406h-113.372c-2.19434 0 -4.05957 0.768555 -5.70508 2.41406
c-1.60938 1.57227 -2.37695 3.51074 -2.37695 5.63184c0 2.23047 0.767578 4.13281 2.34082 5.70508l56.7217 56.6494c1.60938 1.64551 3.47461 2.41309 5.66895 2.41309s4.0957 -0.767578 5.70508 -2.41309l56.6855 -56.6494
c1.57324 -1.53613 2.41406 -3.47461 2.41406 -5.70508zM292.571 90.4414v-18.2861c0 -2.48633 -0.914062 -4.64453 -2.70605 -6.43652c-1.79199 -1.86523 -3.9502 -2.70605 -6.43652 -2.70605h-201.143c-2.4873 0 -4.64453 0.84082 -6.43652 2.70605
c-1.79199 1.79199 -2.70703 3.91309 -2.70703 6.43652v18.2861c0 2.48633 0.915039 4.57129 2.70703 6.43652s3.94922 2.70605 6.43652 2.70605h201.143c2.4502 0 4.60742 -0.84082 6.43652 -2.70605c1.79199 -1.86523 2.70605 -3.9502 2.70605 -6.43652zM318.574 278.747
c0 2.1582 0.767578 4.02344 2.33984 5.63281c1.57324 1.64551 3.51074 2.37695 5.70508 2.37695h113.372c2.23047 0 4.05957 -0.768555 5.70508 -2.37695c1.57227 -1.57324 2.34082 -3.51172 2.34082 -5.63281c0 -2.2666 -0.768555 -4.13184 -2.34082 -5.70508
l-56.7227 -56.6484c-1.53613 -1.68262 -3.40137 -2.45117 -5.63184 -2.45117s-4.13281 0.768555 -5.70508 2.41406l-56.7227 56.6494c-1.57227 1.57227 -2.33984 3.51074 -2.33984 5.74121z" />
    <glyph glyph-name="uniF10C" unicode="&#xf10c;" 
d="M256.549 -66.1943c-141.093 0 -255.562 114.469 -255.562 255.562c0 141.092 114.469 255.561 255.562 255.561s255.524 -114.469 255.524 -255.561c0 -141.093 -114.432 -255.562 -255.524 -255.562zM256.549 370.396c-99.8398 0 -181.029 -81.1885 -181.029 -181.028
c0 -99.8408 81.1895 -181.029 181.029 -181.029s181.028 81.2256 181.028 181.029c0 99.8027 -81.1885 181.028 -181.028 181.028zM317.44 79.9453c-4.2793 -4.31543 -10.9717 -4.31543 -15.2871 0l-45.6045 45.5674l-45.6045 -45.5674
c-4.31543 -4.31543 -10.9717 -4.31543 -15.2871 0l-48.6035 48.5664c-4.31543 4.2793 -4.31543 10.9355 0 15.2871l45.6045 45.6045l-45.6045 45.5684c-4.31543 4.31543 -4.31543 10.9707 0 15.2861l48.6035 48.6035c4.31543 4.35254 10.9717 4.35254 15.2871 0
l45.6045 -45.6045l45.6045 45.6045c4.31543 4.35254 11.0078 4.35254 15.2871 0l48.5664 -48.6035c4.31543 -4.31543 4.31543 -10.9707 0 -15.2861l-45.5684 -45.5684l45.5684 -45.6045c4.31543 -4.35156 4.31543 -11.0078 0 -15.2871z" />
    <glyph glyph-name="uniF10D" unicode="&#xf10d;" 
d="M469.212 143.945c0 -0.951172 -0.146484 -1.64551 -0.292969 -2.01172c-12.2148 -51.0537 -37.7051 -92.416 -76.5811 -124.16c-38.875 -31.7441 -84.4434 -47.5791 -136.594 -47.5791c-27.8311 0 -54.748 5.2666 -80.75 15.7256
c-26.002 10.4961 -49.1885 25.417 -69.5586 44.873l-36.8643 -36.8643c-3.62012 -3.62012 -7.89941 -5.41211 -12.873 -5.41211s-9.25293 1.82812 -12.873 5.41211c-3.62109 3.65723 -5.41309 7.93652 -5.41309 12.874v128c0 4.93652 1.79199 9.21582 5.41309 12.873
c3.62012 3.62012 7.89941 5.41211 12.873 5.41211h128c4.9375 0 9.21582 -1.82812 12.873 -5.41211c3.62109 -3.65723 5.41309 -7.93652 5.41309 -12.873c0 -4.97461 -1.8291 -9.25293 -5.41309 -12.874l-39.1309 -39.1309
c13.5312 -12.5811 28.8545 -22.2725 46.0068 -29.1475c17.1514 -6.87598 34.9619 -10.2764 53.4307 -10.2764c25.4902 0 49.2979 6.18066 71.46 18.5781c22.0898 12.3613 39.79 29.4395 53.1387 51.127c2.08496 3.21777 7.13184 14.3721 15.1406 33.4258
c1.49902 4.35254 4.35156 6.58301 8.55762 6.58301h54.8574c2.41309 0 4.57129 -0.914062 6.43652 -2.70605c1.82812 -1.8291 2.74316 -3.98633 2.74316 -6.43652zM476.343 372.517v-128c0 -4.97363 -1.86523 -9.25293 -5.41211 -12.873
c-3.65723 -3.62109 -7.93652 -5.41309 -12.873 -5.41309h-128.001c-5.00977 0 -9.28906 1.79199 -12.873 5.41309c-3.62012 3.62012 -5.41211 7.89941 -5.41211 12.873c0 4.9375 1.79199 9.21582 5.41211 12.873l39.4248 39.4238
c-28.1973 26.0752 -61.4404 39.1318 -99.7305 39.1318c-25.5635 0 -49.3721 -6.18066 -71.4609 -18.5781c-22.0527 -12.3984 -39.79 -29.4404 -53.1016 -51.1641c-2.08496 -3.25488 -7.13184 -14.3721 -15.1406 -33.4258
c-1.53613 -4.38867 -4.38867 -6.58301 -8.55762 -6.58301h-56.8682c-2.4873 0 -4.6084 0.87793 -6.4375 2.70605c-1.82812 1.79199 -2.70605 3.9502 -2.70605 6.43652v2.01172c12.3613 51.0537 38.1074 92.416 77.1289 124.16
c39.0225 31.707 84.7363 47.5791 137.144 47.5791c27.7939 0 54.8564 -5.30273 81.1514 -15.8721s49.5547 -25.4902 69.998 -44.7266l37.1562 36.8643c3.58398 3.62012 7.86328 5.41211 12.874 5.41211c4.93652 0 9.21582 -1.82812 12.873 -5.41211
c3.58398 -3.62109 5.41211 -7.89941 5.41211 -12.8369z" />
    <glyph glyph-name="uniF10E" unicode="&#xf10e;" 
d="M256 -64c-141.384 0 -256 114.616 -256 256s114.616 256 256 256s256 -114.616 256 -256s-114.616 -256 -256 -256zM210.217 355.876v-327.757c0 -7.78711 4.4541 -9.79492 10.0195 -4.22949l158.086 158.091c1.33594 1.33594 2.22656 2.66699 2.89258 4.22852
c0 0 2.97461 5.06445 0 11.582c-0.660156 1.56152 -1.55176 2.89258 -2.89258 4.22852l-158.086 158.086c-5.56543 5.56445 -10.0195 3.56348 -10.0195 -4.22949z" />
    <glyph glyph-name="uniF10F" unicode="&#xf10f;" 
d="M427.959 10.4961c0 -15.8721 -12.8369 -28.6719 -28.6357 -28.6719h-286.61c-15.835 0 -28.6719 12.8359 -28.6719 28.6719v171.959c0 15.835 12.8369 28.6719 28.6719 28.6719h9.54492v57.3076c0 73.4355 60.3066 133.741 133.742 133.741
s133.742 -60.3057 133.742 -133.741v-57.3076h9.58105c15.8359 0 28.6357 -12.8369 28.6357 -28.6719v-171.959zM332.471 211.09v57.3447c0 42.0938 -34.3408 76.4336 -76.4346 76.4336s-76.4336 -34.3398 -76.4336 -76.4336v-57.3076h152.868v-0.0371094z" />
    <glyph glyph-name="uniF110" unicode="&#xf110;" 
d="M0 5.81445l204.471 204.472c-11.5566 22.418 -18.2852 47.835 -18.2852 74.8252c0 89.9287 72.96 162.889 162.926 162.889c89.9287 0 162.889 -72.96 162.889 -162.889c0 -90.0029 -72.96 -162.926 -162.926 -162.963c-26.9893 0 -52.4072 6.69238 -74.7881 18.2861
l-88.1377 -88.0645h-46.5186v-46.5557h-46.5186v-46.5547l-23.2969 -23.2598h-69.8145v69.8145zM349.111 331.666c0 -25.7461 20.8086 -46.5547 46.5186 -46.5547s46.5186 20.8086 46.5186 46.5547c0 25.71 -20.8086 46.5195 -46.5186 46.5195
s-46.5186 -20.8096 -46.5186 -46.5195z" />
    <glyph glyph-name="uniF111" unicode="&#xf111;" 
d="M438.199 127.342c0 -45.3848 -36.8643 -82.2861 -82.3594 -82.2861h-237.787c-45.458 0 -82.3223 36.9014 -82.3223 82.2861v237.934c0 45.458 36.8643 82.3223 82.3223 82.3223h237.86c45.4219 0 82.2861 -36.8643 82.2861 -82.3223v-237.934v0zM118.053 410.989
c-25.1611 0 -45.7148 -20.5527 -45.7148 -45.7139v-237.824c0 -25.1611 20.5898 -45.7139 45.7148 -45.7139h237.86c25.1611 0 45.7148 20.5898 45.7148 45.7139v237.824c0 25.1611 -20.5898 45.7139 -45.7148 45.7139h-237.86z" />
    <glyph glyph-name="uniF112" unicode="&#xf112;" 
d="M513.792 14.6289c0 -16.8232 1.60938 -56.54 1.13379 -78.6289h-216.064l-26.1484 112.823l14.7754 29.9883l-26.8066 14.958l-31.8174 -15.251l13.7871 -29.1836l-16.6035 -113.299h-225.938c-0.438477 22.0527 1.13379 61.8057 1.13379 78.6289
c8.55762 24.7588 36.8281 28.3066 60.4531 38.29c25.9658 10.9355 54.7471 23.625 80.6396 34.3047c7.3877 1.97461 14.7383 3.98633 22.1621 5.99707c8.81348 6.10742 17.4814 26.2949 22.1621 36.3154l10.5332 2.56055c-2.41406 13.2383 -10.6055 14.2256 -14.0801 23.625
c-1.28027 14.1162 -2.63281 28.2334 -3.98633 42.3496c0.0732422 -0.695312 -9.61816 1.75586 -10.8984 2.52344c-13.6777 8.63086 -13.9707 43.4473 -15.2871 57.9287c-0.621094 6.62012 8.59473 12.0693 6.03418 24.2109
c-14.9941 71.0947 6.50977 104.375 40.4854 115.419c23.5879 9.54492 67.6201 27.2822 108.727 2.01172l10.167 -9.43555l16.4932 -2.85254c8.26562 -4.75391 13.5684 -20.626 13.5684 -20.626c4.31543 -17.4814 4.79102 -18.9443 4.35156 -36.9004
c-0.145508 -6.94922 -4.0957 -38.9854 -3.03516 -48.7871c0.841797 -8.11816 2.85254 -8.74023 6.07129 -15.4326c5.59473 -11.6299 3.73047 -27.6484 1.6084 -39.3506c-1.20605 -6.40039 -3.65625 -15.543 -7.38672 -20.7734
c-4.13281 -5.74121 -12.3984 -5.77832 -16.0918 -12.5068c-5.22949 -9.69141 -2.23047 -23.2959 -5.5957 -33.7559c-3.7666 -11.8857 -13.3848 -12.6904 -14.1162 -28.2324c4.71777 -0.65918 9.39844 -1.28027 14.1162 -2.01172
c4.68164 -9.98438 13.3486 -30.1719 22.1631 -36.2793c7.42383 -2.01074 14.7744 -4.02246 22.1982 -6.03418c25.9297 -10.6787 54.6748 -23.332 80.6406 -34.3037c23.625 -10.0205 51.9678 -13.5312 60.4521 -38.29z" />
    <glyph glyph-name="uniF113" unicode="&#xf113;" 
d="M438.967 127.269c0 -45.5684 -36.9736 -82.5781 -82.542 -82.5781h-238.226c-45.5322 0 -82.5059 37.0098 -82.5059 82.5781v238.263c0 45.5312 36.9736 82.4688 82.5059 82.4688h238.226c11.4834 0 22.9307 -2.30371 33.6094 -7.16797
c2.52344 -1.13379 4.53516 -3.73047 5.19336 -6.58301c0.511719 -3.14551 -0.366211 -5.99805 -2.56055 -8.33789l-14.0791 -14.0439c-1.71973 -1.71875 -4.2793 -2.88867 -6.65625 -2.88867c-0.841797 0 -1.71875 0.291992 -2.56055 0.584961
c-4.38867 1.24316 -8.66699 1.79199 -12.9463 1.79199h-238.226c-25.1982 0 -45.8242 -20.626 -45.8242 -45.8242v-238.263c0 -25.2705 20.626 -45.9336 45.8242 -45.9336h238.226c25.1982 0 45.8975 20.626 45.8975 45.9336v72.7402
c0 2.23145 0.87793 4.57129 2.59668 6.21777l18.2861 18.4316c2.04785 2.01172 4.27832 2.7793 6.5459 2.7793c1.20703 0 2.30371 -0.21875 3.54688 -0.767578c3.36523 -1.42676 5.66895 -4.64453 5.66895 -8.375v-91.0264zM272.019 125.221
c-9.17969 -9.14258 -23.4795 -9.14258 -32.6582 0l-123.21 123.173c-9.14258 9.14258 -9.14258 23.4785 0 32.6582l31.5254 31.4873c9.17871 9.17969 23.4785 9.17969 32.6582 0l75.3369 -75.3369l185.308 185.271c9.14258 9.14355 23.5156 9.14355 32.6582 0
l31.5605 -31.5244c9.07031 -9.14258 9.07031 -23.4785 0 -32.6582z" />
    <glyph glyph-name="uniF114" unicode="&#xf114;" 
d="M0 448zM0 -27.4287v365.715c0 9.89844 3.62044 18.4681 10.8613 25.709c7.24154 7.24155 15.8115 10.8623 25.71 10.8623h36.5713v27.4287c0 12.5801 4.47396 23.3441 13.4219 32.292s19.7122 13.4219 32.293 13.4219h18.2852c12.581 0 23.3454 -4.47397 32.293 -13.4219
c8.94792 -8.94791 13.4219 -19.7119 13.4219 -32.292v-27.4287h109.714v27.4287c0 12.5801 4.47397 23.3441 13.4219 32.292s19.7122 13.4219 32.293 13.4219h18.2852c12.5807 0 23.3451 -4.47397 32.293 -13.4219s13.4219 -19.7119 13.4219 -32.292v-27.4287h36.5713
c9.89844 0 18.4681 -3.62076 25.709 -10.8623c7.24155 -7.24088 10.8623 -15.8105 10.8623 -25.709v-365.715c0 -9.89844 -3.62076 -18.4684 -10.8623 -25.71c-7.24088 -7.24089 -15.8105 -10.8613 -25.709 -10.8613h-402.286c-9.89844 0 -18.4684 3.62044 -25.71 10.8613
c-7.24089 7.24154 -10.8613 15.8115 -10.8613 25.71zM36.5713 -27.4287h82.2861v82.2861h-82.2861v-82.2861zM36.5713 73.1426h82.2861v91.4287h-82.2861v-91.4287zM36.5713 182.857h82.2861v82.2852h-82.2861v-82.2852zM109.714 320
c0 -2.48697 0.902344 -4.63248 2.70703 -6.43652c1.80404 -1.80405 3.94955 -2.70605 6.43652 -2.70605h18.2852c2.48698 0 4.63249 0.902008 6.43652 2.70605c1.80469 1.80405 2.70703 3.94955 2.70703 6.43652v82.2861c0 2.48633 -0.902344 4.63184 -2.70703 6.43652
c-1.80403 1.80405 -3.94954 2.70605 -6.43652 2.70605h-18.2852c-2.48698 0 -4.63248 -0.902008 -6.43652 -2.70605c-1.80469 -1.80469 -2.70703 -3.9502 -2.70703 -6.43652v-82.2861zM137.143 -27.4287h91.4287v82.2861h-91.4287v-82.2861zM137.143 73.1426h91.4287
v91.4287h-91.4287v-91.4287zM137.143 182.857h91.4287v82.2852h-91.4287v-82.2852zM246.857 -27.4287h91.4287v82.2861h-91.4287v-82.2861zM246.857 73.1426h91.4287v91.4287h-91.4287v-91.4287zM246.857 182.857h91.4287v82.2852h-91.4287v-82.2852zM329.143 320
c0 -2.48697 0.902344 -4.63248 2.70703 -6.43652c1.80405 -1.80405 3.94955 -2.70605 6.43652 -2.70605h18.2852c2.48697 0 4.63248 0.902008 6.43652 2.70605s2.70605 3.94955 2.70605 6.43652v82.2861c0 2.48633 -0.902008 4.63184 -2.70605 6.43652
c-1.80405 1.80405 -3.94955 2.70605 -6.43652 2.70605h-18.2852c-2.48697 0 -4.63248 -0.902008 -6.43652 -2.70605c-1.80469 -1.80469 -2.70703 -3.9502 -2.70703 -6.43652v-82.2861zM356.571 -27.4287h82.2861v82.2861h-82.2861v-82.2861zM356.571 73.1426h82.2861
v91.4287h-82.2861v-91.4287zM356.571 182.857h82.2861v82.2852h-82.2861v-82.2852z" />
    <glyph glyph-name="uniF115" unicode="&#xf115;" 
d="M0 448zM0 54.8574v310.856c0 12.5811 4.49805 23.333 13.4219 32.293c8.95996 8.95996 19.7119 13.4219 32.292 13.4219h420.572c12.5801 0 23.3691 -4.46191 32.292 -13.4219c8.92383 -8.95996 13.4219 -19.7119 13.4219 -32.293v-310.856
c0 -12.5811 -4.49805 -23.3691 -13.4219 -32.293c-8.92285 -8.95996 -19.7119 -13.4219 -32.292 -13.4219h-420.572c-12.5801 0 -23.332 4.46191 -32.292 13.4219c-8.92383 8.92383 -13.4219 19.7119 -13.4219 32.293zM36.5713 54.8574
c0 -2.4873 0.914062 -4.64453 2.70605 -6.43652c1.8291 -1.8291 3.9502 -2.70703 6.43652 -2.70703h420.572c2.48633 0 4.64453 0.87793 6.43652 2.70703c1.79199 1.79199 2.70605 3.94922 2.70605 6.43652v310.856c0 2.4873 -0.914062 4.6084 -2.70605 6.43652
c-1.79199 1.8291 -3.9502 2.70703 -6.43652 2.70703h-420.572c-2.48633 0 -4.60742 -0.87793 -6.43652 -2.70703c-1.79199 -1.82812 -2.70605 -3.94922 -2.70605 -6.43652v-310.856zM219.429 91.4287v18.2852c0 2.4873 0.914062 4.64453 2.70605 6.43652
c1.8291 1.8291 3.9502 2.70703 6.43652 2.70703h201.143c2.4873 0 4.64453 -0.87793 6.43652 -2.70703c1.79297 -1.79199 2.70703 -3.94922 2.70703 -6.43652v-18.2852c0 -2.4873 -0.914062 -4.64453 -2.70703 -6.43652
c-1.79199 -1.8291 -3.94922 -2.70605 -6.43652 -2.70605h-201.143c-2.48633 0 -4.60742 0.876953 -6.43652 2.70605c-1.79199 1.79199 -2.70605 3.94922 -2.70605 6.43652zM219.429 164.571v18.2861c0 2.48633 0.914062 4.60742 2.70605 6.43652
c1.8291 1.82812 3.9502 2.70605 6.43652 2.70605h201.143c2.4873 0 4.64453 -0.87793 6.43652 -2.70605c1.79297 -1.8291 2.70703 -3.9502 2.70703 -6.43652v-18.2861c0 -2.48633 -0.914062 -4.64453 -2.70703 -6.43652
c-1.79199 -1.82812 -3.94922 -2.70605 -6.43652 -2.70605h-201.143c-2.48633 0 -4.60742 0.87793 -6.43652 2.70605c-1.79199 1.79199 -2.70605 3.9502 -2.70605 6.43652zM219.429 237.714v18.2861c0 2.4873 0.914062 4.6084 2.70605 6.43652
c1.8291 1.8291 3.9502 2.70605 6.43652 2.70605h201.143c2.4873 0 4.64453 -0.876953 6.43652 -2.70605c1.79297 -1.82812 2.70703 -3.94922 2.70703 -6.43652v-18.2861c0 -2.48633 -0.914062 -4.60742 -2.70703 -6.43652
c-1.79199 -1.82812 -3.94922 -2.70605 -6.43652 -2.70605h-201.143c-2.48633 0 -4.60742 0.87793 -6.43652 2.70605c-1.79199 1.8291 -2.70605 3.9502 -2.70605 6.43652zM63.9287 282.929zM193.463 181.942c0 -2.15723 -0.804688 -4.05859 -2.37695 -5.66797
c-1.57324 -1.60938 -3.51074 -2.41406 -5.70508 -2.41406h-113.372c-2.19434 0 -4.05957 0.768555 -5.70508 2.37695c-1.57227 1.64648 -2.37695 3.58398 -2.37695 5.70508c0 2.23145 0.804688 4.13281 2.37695 5.70605l56.6855 56.6484
c1.60938 1.64551 3.51172 2.41406 5.70605 2.41406c2.19336 0 4.0957 -0.768555 5.70508 -2.41406l56.6855 -56.6484c1.57227 -1.57324 2.37695 -3.47461 2.37695 -5.70605zM219.429 312.394v18.2852c0 2.4873 0.914062 4.6084 2.70605 6.43652
c1.79199 1.8291 3.9502 2.70605 6.43652 2.70605h201.143c2.4873 0 4.64453 -0.876953 6.43652 -2.70605c1.79297 -1.82812 2.70703 -3.94922 2.70703 -6.43652v-18.2852c0 -2.4873 -0.914062 -4.6084 -2.70703 -6.43652
c-1.79199 -1.8291 -3.91309 -2.70703 -6.43652 -2.70703h-201.143c-2.48633 0 -4.60742 0.87793 -6.43652 2.70703c-1.79199 1.82812 -2.70605 3.94922 -2.70605 6.43652z" />
    <glyph glyph-name="uniF116" unicode="&#xf116;" 
d="M453.011 146.542l-242.433 242.469c-10.6055 10.5684 -10.6055 27.7207 0 38.29c10.5693 10.5693 27.6484 10.5693 38.2539 0l57.3809 -57.4541l70.2168 70.2178c10.6426 10.5322 27.7217 10.5322 38.29 0c10.5693 -10.6064 10.5693 -27.7217 0 -38.291
l-70.2168 -70.2168l51.0537 -51.0537l70.2168 70.1807c10.5693 10.6055 27.7217 10.6055 38.291 0c10.5684 -10.5693 10.5684 -27.6846 0 -38.2539l-70.2178 -70.2168l57.417 -57.418c10.6426 -10.5684 10.6426 -27.7207 0 -38.29
c-10.5322 -10.4961 -27.6846 -10.4961 -38.2529 0.0371094zM344.503 50.8711c-23.3691 -23.4062 -127.562 -25.5635 -127.562 -25.5635l-127.634 127.598s2.15723 104.229 25.5264 127.634c23.4062 23.3691 89.3447 89.3076 89.3447 89.3076l229.668 -229.668
s-65.9014 -65.9385 -89.3438 -89.3076zM89.3076 127.378l102.107 -102.107c7.05762 -7.05762 7.05762 -18.4678 0 -25.4531c-7.02148 -7.09473 -18.4688 -7.09473 -25.5273 0l-102.107 102.07c-7.05762 7.02246 -7.05762 18.4688 0 25.4902
c7.05859 7.09473 18.5059 7.09473 25.5273 0zM140.361 -0.182617c0 0 -8.55762 -8.59473 -19.1641 -19.1641c-10.5684 -10.5684 -27.7207 -10.5684 -38.2529 0l-6.36328 6.40039l-51.0908 -51.0537l-25.4902 25.4541l51.0537 51.0537l-6.40039 6.39941
c-10.6055 10.6055 -10.6055 27.7578 0 38.3271c10.5693 10.5693 20.1875 17.9932 20.1875 17.9932z" />
    <glyph glyph-name="uniF117" unicode="&#xf117;" 
d="M512.146 72.4844v-25.5996c0 -14.1533 -19.1641 -25.6006 -42.6426 -25.6006h-426.825c-23.4785 0 -42.6787 11.4473 -42.6787 25.6006v25.5996h42.6787h426.789h42.6787zM68.3154 132.242v187.794c0 23.4795 19.2002 42.6797 42.6787 42.6797h290.231
c23.4785 0 42.6416 -19.2002 42.6416 -42.6797v-187.794c0 -23.4785 -19.1631 -42.6787 -42.6416 -42.6787h-290.231c-23.4785 0 -42.6787 19.2363 -42.6787 42.6787zM102.437 132.242c0 -4.53516 3.98633 -8.52148 8.52148 -8.52148h290.23
c4.49805 0 8.48438 3.98633 8.48438 8.52148v187.794c0 4.53516 -3.98633 8.52148 -8.48438 8.52148h-290.194c-4.53516 0 -8.52051 -3.98633 -8.52051 -8.52148v-187.794h-0.0371094zM281.71 51.1631c0 2.37793 -1.90234 4.24219 -4.2793 4.24219h-42.6787
c-2.37695 0 -4.27832 -1.86426 -4.27832 -4.24219c0 -2.41309 1.86426 -4.27832 4.27832 -4.27832h42.6787c2.37695 0 4.2793 1.86523 4.2793 4.27832z" />
    <glyph glyph-name="uniF118" unicode="&#xf118;" 
d="M421.267 232.851c51.5293 -9.10645 90.7334 -53.8701 90.7334 -108.032c0 -60.709 -49.2617 -109.971 -109.971 -109.971c-54.5273 0 -99.5107 39.8633 -108.142 91.9414h-257.316c-20.2969 0 -36.5713 16.2734 -36.5713 36.5713v182.856
c0 20.2979 16.2744 36.5723 36.5713 36.5723h348.124c20.2969 0 36.5713 -16.2744 36.5713 -36.5723v-93.3662zM293.925 143.36c7.89941 46.1895 44.3975 82.2852 90.7705 89.6729v93.1836h-348.124v-182.856h257.354zM472.686 109.056h0.0371094v34.3047h-52.334v53.1748
h-34.3037v-53.1748h-54.0166v-34.3047h53.9795v-53.1748h34.3037v53.1748h52.334z" />
    <glyph glyph-name="uniF119" unicode="&#xf119;" 
d="M148.162 345.8v37.6523h38.5078v-37.6523h-38.5078zM148.162 268.386v37.6523h38.5078v-37.6523h-38.5078zM148.162 191.442v37.6523h38.5078v-37.6523h-38.5078zM148.162 115.21v37.6523h38.5078v-37.6523h-38.5078zM148.162 19.374v56.4736h38.5078v-56.4736h-38.5078z
M186.665 308.147v37.6523h38.5078v-37.6523h-38.5078zM186.665 230.732v37.6533h38.5078v-37.6533h-38.5078zM186.665 153.789v37.6533h38.5078v-37.6533h-38.5078zM186.665 77.5576v37.6523h38.5078v-37.6523h-38.5078zM51.1543 1.10547v37.6533h421.018v-37.6533h-421.018
zM225.173 345.805v37.6475h38.5068v-37.6475h-38.5068zM225.173 268.396v37.6523h38.5068v-37.6523h-38.5068zM225.173 191.452v37.6475h38.5068v-37.6475h-38.5068zM225.173 115.221v37.6523h38.5068v-37.6523h-38.5068zM225.173 38.2051v37.6533h38.5068v-37.6533
h-38.5068zM263.68 308.157v37.6523h38.5078v-37.6523h-38.5078zM263.68 230.738v37.6523h38.5078v-37.6523h-38.5078zM263.68 153.8v37.6523h38.5078v-37.6523h-38.5078zM263.68 77.5684v37.6523h38.5078v-37.6523h-38.5078zM71.8486 34.0381v349.972h76.1602v-349.972
h-76.1602zM375.321 34.0381v349.972h76.1602v-349.972h-76.1602zM302.188 345.252v37.6426h38.5078v-37.6426h-38.5078zM302.188 267.838v37.6572h38.5078v-37.6572h-38.5078zM302.188 190.889v37.6523h38.5078v-37.6523h-38.5078zM302.188 114.662v37.6582h38.5078
v-37.6582h-38.5078zM302.188 37.6475v37.6523h38.5078v-37.6523h-38.5078zM340.695 307.594v37.6582h38.5068v-37.6582h-38.5068zM345.815 230.18v37.6523h38.5068v-37.6523h-38.5068zM340.695 153.241v37.6533h38.5068v-37.6533h-38.5068zM340.695 77.0098v37.6523h38.5068
v-37.6523h-38.5068z" />
    <glyph glyph-name="uniF11A" unicode="&#xf11a;" 
d="M511.524 448l0.475586 -257.243l-257.207 257.243h256.731zM188.511 202.04l180.992 181.043l77.6152 -77.5938l-180.991 -181.043zM329.143 136.558l73.0703 73.0693v-273.92h-402.286v402.286h271.981l-73.0332 -73.0693h-125.879v-256.146h256.146v127.78z" />
    <glyph glyph-name="uniF11B" unicode="&#xf11b;" 
d="M236.946 43.7393c-111.726 0 -202.605 90.8799 -202.605 202.605c0 111.727 90.8799 202.606 202.605 202.606s202.643 -90.8799 202.643 -202.606c0 -111.726 -90.917 -202.605 -202.643 -202.605zM236.946 410.771c-90.6602 0 -164.389 -73.7646 -164.389 -164.426
c0 -90.6602 73.7646 -164.388 164.425 -164.388c90.6611 0 164.426 73.7637 164.426 164.388c0 90.6611 -73.7646 164.426 -164.462 164.426zM145.555 246.345c0 60.9525 30.4759 91.4287 91.4277 91.4287c60.9525 0 91.4287 -30.4762 91.4287 -91.4287
c0 -60.9518 -30.4762 -91.4277 -91.4287 -91.4277c-60.9518 0 -91.4277 30.4759 -91.4277 91.4277z" />
    <glyph glyph-name="uniF11C" unicode="&#xf11c;" 
d="M0 448zM22.0156 109.714c0 2.4873 0.951172 4.68164 2.85254 6.58301l133.157 133.157c1.90137 1.90137 4.0957 2.85254 6.58301 2.85254c2.48633 0 4.68066 -0.951172 6.58203 -2.85254l133.157 -133.157c1.90137 -1.90137 2.85254 -4.0957 2.85254 -6.58301
c0 -2.48633 -0.951172 -4.68066 -2.85254 -6.58203l-14.2627 -14.2637c-1.93848 -1.9375 -4.16992 -2.85254 -6.62012 -2.85254s-4.68066 0.915039 -6.61914 2.85254l-112.237 112.238l-112.274 -112.238c-1.90234 -1.9375 -4.09668 -2.85254 -6.58301 -2.85254
c-2.4873 0 -4.68164 0.915039 -6.58301 2.85254l-14.2998 14.2637c-1.90137 1.90137 -2.85254 4.0957 -2.85254 6.58203z" />
    <glyph glyph-name="uniF11D" unicode="&#xf11d;" 
d="M219.429 -27.502c-39.8262 0 -76.5439 9.875 -110.153 29.4766c-33.6094 19.6025 -60.2334 46.2627 -79.8721 79.8721c-19.6025 33.5732 -29.4033 70.29 -29.4033 110.153c0 39.8262 9.83789 76.5439 29.4404 110.189c19.6016 33.5361 46.2256 60.1973 79.835 79.8359
c33.6455 19.6387 70.3633 29.4033 110.153 29.4033s76.5068 -9.80176 110.116 -29.4404c33.6455 -19.6387 60.2334 -46.2988 79.8721 -79.8721c19.6387 -33.6816 29.5137 -70.3994 29.5137 -110.226c0 -39.79 -9.875 -76.5078 -29.5137 -110.153
c-19.5654 -33.6094 -46.2266 -60.1963 -79.8721 -79.8721c-33.5723 -19.4932 -70.29 -29.3672 -110.116 -29.3672zM246.857 43.9219c4.93652 0 9.25195 1.79199 12.873 5.41309l29.1104 29.1475c3.69434 3.65723 5.41309 7.89941 5.41309 12.873
c0 5.00977 -1.79199 9.28906 -5.41309 12.9092l-87.6611 87.6992l87.6611 87.6982c3.65723 3.58398 5.37598 7.8623 5.37598 12.873c0 5.00977 -1.75488 9.25195 -5.37598 12.8359l-29.1104 29.1475c-3.62109 3.69434 -7.93652 5.41309 -12.873 5.41309
c-4.9375 0 -9.21582 -1.75586 -12.873 -5.41309l-129.683 -129.682c-3.65723 -3.65723 -5.41309 -7.89941 -5.41309 -12.873c0 -4.97461 1.79199 -9.25293 5.41309 -12.874l129.683 -129.719c3.65723 -3.65723 7.93555 -5.44922 12.873 -5.44922z" />
    <glyph glyph-name="uniF11E" unicode="&#xf11e;" 
d="M259.291 445.33c20.9189 0 40.7412 -2.63281 59.5752 -7.75293c18.6885 -5.15625 34.999 -13.0195 48.8965 -23.625c13.8604 -10.5693 24.8682 -23.6982 32.8408 -39.3877c8.08203 -15.6895 12.0684 -34.0117 12.0684 -54.9297
c0 -15.5801 -1.93848 -29.3311 -5.81445 -41.29c-3.91309 -11.9219 -9.0332 -22.8936 -15.3604 -32.877c-6.32715 -9.98438 -13.4951 -18.9082 -21.5771 -26.6611c-8.00879 -7.78906 -16.1641 -15.3594 -24.4658 -22.6377
c-15.5801 -12.6904 -29.1113 -25.4902 -40.5215 -38.3994c-11.4834 -12.873 -17.1523 -28.6357 -17.1523 -47.1406c0 -3.87695 0.183594 -8.0459 0.731445 -12.4346c0.475586 -4.35254 1.20703 -8.74023 2.19434 -13.1289
c-2.92578 -0.951172 -6.61914 -1.57324 -11.0439 -1.8291c-4.42578 -0.255859 -8.48535 -0.365234 -12.3613 -0.365234c-18.0303 0 -32.7686 4.60742 -44.1787 13.8604c-11.4463 9.28906 -17.1885 23.4053 -17.1885 42.3867c0 17.042 4.49805 31.8896 13.4951 44.5801
c8.99609 12.6904 19.3828 24.6123 31.0859 35.8037c7.31348 6.80176 14.4814 13.4941 21.5771 20.0771c7.02148 6.58301 13.3848 13.3857 19.0166 20.4434c5.55859 7.05859 10.0576 14.4824 13.458 22.2725c3.43848 7.79004 5.12012 16.3105 5.12012 25.5635
c0 21.9424 -6.58301 37.376 -19.6748 46.4092c-13.166 8.99609 -28.9648 13.4951 -47.543 13.4951c-19.4932 0 -37.2666 -4.24316 -53.3213 -12.7637c-16.0547 -8.52148 -29.7324 -17.1523 -40.96 -25.9658c-7.27734 7.35059 -14.2627 15.1035 -20.8096 23.4053
c-6.58203 8.30176 -9.87402 17.0791 -9.87402 26.4414c0 6.87598 2.66992 13.3857 8.0459 19.5293c5.33887 6.18066 12.1416 11.959 20.4434 17.4082c13.166 8.33789 29.5859 15.3594 49.335 20.9922c19.7119 5.66797 40.9961 8.52051 63.9629 8.52051zM306.029 -9.91113
c0 -15.5791 -4.90039 -28.4893 -14.6279 -38.6924c-9.72852 -10.2031 -22.8936 -15.3965 -39.4609 -15.3965c-16.5303 0 -29.8057 5.19336 -39.79 15.3965c-9.9834 10.167 -14.9941 23.1133 -14.9941 38.6924c0 15.5801 5.01074 28.3428 14.9941 38.3633
c9.98438 9.98438 23.2598 14.9951 39.79 14.9951c15.5791 0 28.4893 -5.01074 38.7656 -14.9951c10.2041 -10.0205 15.3232 -22.8203 15.3232 -38.3633z" />
    <glyph glyph-name="uniF11F" unicode="&#xf11f;" 
d="M4.12695 433.07h506.618v-8.73535v-22.4043v-317.461v-25.9121v-5.22266h-506.618v6.92773v24.207v317.466v24.0537v7.08105zM479.672 116.173l-0.00488281 253.993h-31.7031v-31.7285h-31.7852v31.7285h31.7852v31.7646h-380.519v-31.7646h-31.7588v-253.993h31.7646
v-31.708h380.518v31.708h31.7031zM67.4453 338.438v31.7285h31.7598v-31.7285h-31.7598zM130.934 274.913v31.7598h31.7695v-31.7598h-31.7695zM99.2051 306.673v31.7646h31.7285v-31.7646h-31.7285zM194.406 243.164h31.7646v-31.7441h-63.4727v31.7441v31.7803h31.708
v-31.7803zM384.445 306.673v31.7646h31.7344v-31.7646h-31.7344zM320.988 243.185v31.7598h31.6719v-31.7598v-0.0205078v-31.7031h31.7852v-31.7695h-31.7852v31.7695h-63.4619v31.7236h31.79zM352.66 274.944v31.7285h31.7852v-31.7285h-31.7852zM257.454 211.42
v0.0410156h31.7441v-31.7949h-31.3037h-0.44043h-31.2832v31.7539h31.2832zM99.2051 147.933v31.7588h31.7285v-31.7588h-31.7285zM130.934 179.691v31.7695h31.7695v-31.7695h-31.7695zM67.4453 116.178v31.7549h31.7598v-31.7549h-31.7598zM384.445 147.933v31.7588
h31.7344v-31.7588h-31.7344zM416.18 116.178v31.7549h31.7842v-31.7549h-31.7842z" />
    <glyph glyph-name="uniF120" unicode="&#xf120;" 
d="M357.719 -18.5088v421.018h37.6523v-421.018h-37.6523zM292.808 -18.5137v37.6523h167.476v-37.6523h-167.476zM292.808 364.856v37.6523h167.476v-37.6523h-167.476zM35.0869 188.918l20.5371 63.3955c47.3291 -16.6709 81.71 -31.1094 103.142 -43.3047
c-5.65723 53.8672 -8.63672 90.9307 -8.92871 111.176h64.7422c-0.890625 -29.4658 -4.31641 -66.3809 -10.2705 -110.73c30.6533 15.4727 65.7812 29.7627 105.375 42.8643l20.541 -63.3955c-37.8115 -12.5029 -74.8643 -20.8379 -111.181 -25.0107
c18.1504 -15.7754 43.7607 -43.9092 76.7998 -84.3828l-53.5811 -37.9551c-17.2646 23.5166 -37.6572 55.5166 -61.168 96c-22.0371 -41.9736 -41.3799 -73.9736 -58.0459 -96l-52.6895 37.9551c34.5234 42.5625 59.2334 70.6914 74.1221 84.3828
c-38.4053 7.43848 -74.8701 15.7744 -109.395 25.0059z" />
    <glyph glyph-name="uniF121" unicode="&#xf121;" 
d="M51.1543 346.357v37.6523h38.5068v-37.6523h-38.5068zM51.1543 268.948v37.6523h38.5068v-37.6523h-38.5068zM51.1543 192v37.6523h38.5068v-37.6523h-38.5068zM51.1543 115.773v37.6523h38.5068v-37.6523h-38.5068zM51.1543 19.9375v56.4736h38.5068v-56.4736h-38.5068z
M89.6611 308.705v37.6523h38.5078v-37.6523h-38.5078zM89.6611 231.296v37.6523h38.5078v-37.6523h-38.5078zM89.6611 154.348v37.6523h38.5078v-37.6523h-38.5078zM89.6611 78.1162v37.6523h38.5078v-37.6523h-38.5078zM51.1543 1.10547v37.6533h421.018v-37.6533h-421.018
zM433.669 19.9375v56.4736h38.5078v-56.4736h-38.5078zM433.669 116.173v37.6523h38.5078v-37.6523h-38.5078zM433.669 193.116v37.6523h38.5078v-37.6523h-38.5078zM433.669 269.348v37.6523h38.5078v-37.6523h-38.5078zM433.669 346.357v37.6523h38.5078v-37.6523
h-38.5078zM395.161 76.4111v37.6523h38.5078v-37.6523h-38.5078zM395.161 153.82v37.6523h38.5078v-37.6523h-38.5078zM395.161 230.769v37.6523h38.5078v-37.6523h-38.5078zM395.161 306.995v37.6523h38.5078v-37.6523h-38.5078zM128.169 34.0381v349.972h76.1602v-349.972
h-76.1602zM319.002 34.0381v349.972h76.1592v-349.972h-76.1592z" />
    <glyph glyph-name="uniF122" unicode="&#xf122;" 
d="M421.267 232.851c51.5293 -9.10645 90.7334 -53.8701 90.7334 -108.032c0 -60.709 -49.2617 -109.971 -109.971 -109.971c-54.5273 0 -99.5107 39.8633 -108.142 91.9414h-257.316c-20.2969 0 -36.5713 16.2734 -36.5713 36.5713v182.856
c0 20.2979 16.2744 36.5723 36.5713 36.5723h348.124c20.2969 0 36.5713 -16.2744 36.5713 -36.5723v-93.3662zM293.925 143.36c7.89941 46.1895 44.3975 82.2852 90.7705 89.6729v93.1836h-348.124v-182.856h257.354zM472.686 109.056v34.3047h-140.617v-34.3047h140.617z
" />
    <glyph glyph-name="uniF123" unicode="&#xf123;" 
d="M2.59668 330.825l63.1592 30.793h6.29004v-219.1c0 -14.5186 0.621094 -23.5879 1.82812 -27.1357c1.20703 -3.54688 3.73047 -6.32715 7.57031 -8.22852s11.5938 -2.99902 23.3691 -3.25488v-7.05859h-97.6094v7.05859c12.252 0.255859 20.1514 1.31641 23.7354 3.18164
c3.54785 1.8291 6.07129 4.31543 7.46094 7.46094c1.42578 3.1084 2.12109 12.4707 2.12109 28.0137v140.068c0 18.8711 -0.62207 31.0127 -1.90234 36.3516c-0.950195 4.05957 -2.55957 7.0957 -4.93652 8.99707c-2.37793 1.90137 -5.19336 2.85254 -8.52148 2.85254
c-4.71777 0 -11.3008 -1.97461 -19.7119 -5.9248zM332.288 146.761l-18.1758 -49.9561h-153.088v7.09473c45.0186 41.0693 76.7266 74.6426 95.1221 100.645c18.3584 26.002 27.5742 49.8105 27.5742 71.3877c0 16.457 -5.08301 29.9521 -15.1406 40.5576
c-10.0928 10.6055 -22.125 15.9082 -36.1689 15.9082c-12.7627 0 -24.21 -3.73047 -34.3398 -11.1904c-10.1309 -7.46094 -17.6279 -18.4326 -22.4922 -32.8418h-7.09473c3.21875 23.5889 11.4102 41.6914 24.6123 54.3457c13.2031 12.6172 29.6963 18.9443 49.4814 18.9443
c21.0654 0 38.6191 -6.7666 52.7363 -20.2979c14.0801 -13.5312 21.1377 -29.4766 21.1377 -47.835c0 -13.1289 -3.07129 -26.2588 -9.17871 -39.4238c-9.47266 -20.6631 -24.7588 -42.5332 -45.9707 -65.6094c-31.7441 -34.7061 -51.6025 -55.625 -59.502 -62.793h67.7305
c13.7871 0 23.4424 0.511719 29.001 1.53613c5.52246 0.987305 10.5332 3.07129 14.9951 6.2168c4.46094 3.1084 8.37402 7.57031 11.666 13.2754h7.09473v0.0361328zM368.457 306.907c7.3877 17.4814 16.75 30.9766 28.0508 40.4844
c11.2998 9.50879 25.3438 14.2637 42.166 14.2637c20.8096 0 36.7549 -6.7666 47.8721 -20.2979c8.41211 -10.0566 12.6172 -20.8457 12.6172 -32.3291c0 -18.8701 -11.8486 -38.3994 -35.584 -58.5508c15.9453 -6.25391 28.0137 -15.1768 36.1699 -26.7705
c8.15527 -11.5928 12.2148 -25.2344 12.2148 -40.96c0 -22.4541 -7.13184 -41.9102 -21.4316 -58.3311c-18.6143 -21.4678 -45.6045 -32.1826 -80.9326 -32.1826c-17.4805 0 -29.3662 2.19434 -35.6934 6.5459c-6.32715 4.31543 -9.47168 8.95996 -9.47168 13.9707
c0 3.69336 1.49902 6.91211 4.49805 9.76465c2.96191 2.7793 6.58301 4.20508 10.7881 4.20508c3.21875 0 6.47363 -0.547852 9.80176 -1.53613c2.15723 -0.658203 7.05859 -2.96191 14.7012 -6.98438c7.64355 -3.98633 12.9463 -6.40039 15.9092 -7.16797
c4.71777 -1.38965 9.76465 -2.08496 15.1035 -2.08496c12.9834 0 24.3203 5.04688 33.9756 15.1045c9.6543 10.0566 14.4814 22.0156 14.4814 35.8027c0 10.0576 -2.2666 19.8955 -6.72852 29.4766c-3.32812 7.13184 -6.94922 12.5439 -10.8984 16.2383
c-5.48535 5.11914 -13.0195 9.72754 -22.6016 13.8604c-9.54492 4.13281 -19.3096 6.2168 -29.2568 6.2168h-6.14355v5.70508c10.0566 1.28027 20.1865 4.90039 30.3174 10.8984c10.1299 5.99805 17.5176 13.2021 22.0889 21.6143
c4.6084 8.41113 6.87598 17.6641 6.87598 27.7207c0 13.1289 -4.09668 23.7715 -12.3252 31.8535c-8.26465 8.11914 -18.4688 12.1787 -30.7197 12.1787c-19.7852 0 -36.3154 -10.6055 -49.5547 -31.7812z" />
    <glyph glyph-name="uniF124" unicode="&#xf124;" 
d="M170.972 73.9844c0 -15.1406 -12.2881 -27.4287 -27.4287 -27.4287h-54.8574c-15.1406 0 -27.4287 12.2881 -27.4287 27.4287v54.8564c0 15.1406 12.2881 27.4287 27.4287 27.4287h54.8574c15.1406 0 27.4287 -12.2881 27.4287 -27.4287v-54.8564zM317.257 73.9844
c0 -15.1406 -12.2881 -27.4287 -27.4287 -27.4287h-54.8564c-15.1406 0 -27.4287 12.2881 -27.4287 27.4287v54.8564c0 15.1406 12.2881 27.4287 27.4287 27.4287h54.8564c15.1406 0 27.4287 -12.2881 27.4287 -27.4287v-54.8564zM463.543 73.9844
c0 -15.1406 -12.2881 -27.4287 -27.4287 -27.4287h-54.8574c-15.1406 0 -27.4287 12.2881 -27.4287 27.4287v54.8564c0 15.1406 12.2881 27.4287 27.4287 27.4287h54.8574c15.1406 0 27.4287 -12.2881 27.4287 -27.4287v-54.8564z" />
    <glyph glyph-name="uniF125" unicode="&#xf125;" 
d="M477.732 -63.3418l-404.077 -0.731445l401.773 450.341z" />
    <glyph glyph-name="uniF126" unicode="&#xf126;" 
d="M438.967 55.2959c0 -45.5684 -36.9736 -82.5781 -82.542 -82.5781h-238.226c-45.5322 0 -82.5059 37.0098 -82.5059 82.5781v238.227c0 45.5312 36.9736 82.4688 82.5059 82.4688h238.226c11.5205 0 22.9307 -2.30469 33.6094 -7.16797
c2.56055 -1.13379 4.53516 -3.73047 5.15625 -6.58301c0.548828 -3.14551 -0.329102 -5.99805 -2.55957 -8.30176l-14.043 -14.0439c-1.75586 -1.71875 -4.31543 -2.88867 -6.65625 -2.88867c-0.841797 0 -1.71875 0.291992 -2.56055 0.584961
c-4.35156 1.20703 -8.63086 1.75586 -12.9463 1.75586h-238.226c-25.1982 0 -45.8242 -20.627 -45.8242 -45.8242v-238.227c0 -25.2705 20.626 -45.9336 45.8242 -45.9336h238.226c25.2344 0 45.8975 20.626 45.8975 45.9336v72.7041
c0 2.23047 0.87793 4.57129 2.59668 6.2168l18.2861 18.4326c2.04785 2.01074 4.27832 2.7793 6.5459 2.7793c1.20703 0 2.30371 -0.219727 3.54688 -0.804688c3.36523 -1.42676 5.66895 -4.64453 5.66895 -8.375v-90.9531zM272.019 53.2109
c-9.17969 -9.14258 -23.4795 -9.14258 -32.6582 0l-123.21 123.173c-9.14258 9.14355 -9.14258 23.4795 0 32.6582l31.5254 31.4883c9.17871 9.17969 23.4785 9.17969 32.6582 0l75.3369 -75.3008l185.308 185.271c9.17969 9.14258 23.5156 9.14258 32.6582 0
l31.5605 -31.5254c9.10645 -9.14258 9.10645 -23.4785 0 -32.6582z" />
    <glyph glyph-name="uniF127" unicode="&#xf127;" 
d="M401.664 191.562l-328.009 -255.635v512.293z" />
    <glyph glyph-name="uniF128" unicode="&#xf128;" 
d="M236.946 43.7393c-111.726 0 -202.605 90.8799 -202.605 202.605c0 111.727 90.8799 202.606 202.605 202.606s202.643 -90.8799 202.643 -202.606c0 -111.726 -90.917 -202.605 -202.643 -202.605zM236.946 410.771c-90.6602 0 -164.389 -73.7646 -164.389 -164.426
c0 -90.6602 73.7646 -164.388 164.425 -164.388c90.6611 0 164.426 73.7637 164.426 164.388c0 90.6611 -73.7646 164.426 -164.462 164.426z" />
    <glyph glyph-name="uniF129" unicode="&#xf129;" 
d="M0 448zM22.0156 237.714c0 2.4873 0.951172 4.68164 2.85254 6.58301l14.2998 14.2998c1.90137 1.90137 4.0957 2.85254 6.58301 2.85254c2.48633 0 4.68066 -0.951172 6.58301 -2.85254l112.274 -112.274l112.237 112.274
c1.93848 1.90137 4.13281 2.85254 6.61914 2.85254c2.4873 0 4.68164 -0.951172 6.62012 -2.85254l14.2627 -14.2998c1.90137 -1.90137 2.85254 -4.0957 2.85254 -6.58301c0 -2.48633 -0.951172 -4.68066 -2.85254 -6.58203l-133.157 -133.12
c-1.90137 -1.93848 -4.0957 -2.85254 -6.58203 -2.85254c-2.4873 0 -4.68164 0.914062 -6.58301 2.85254l-133.157 133.12c-1.90137 1.90137 -2.85254 4.0957 -2.85254 6.58203z" />
    <glyph glyph-name="uniF12A" unicode="&#xf12a;" 
d="M101.193 -52.2607c-7.16797 -7.16797 -17.4443 -11.5195 -28.0137 -11.5195s-20.8457 4.35156 -28.3428 11.5195l-32.9873 33.6094c-7.49805 7.2041 -11.8496 17.4814 -11.8496 28.0498c0 10.5693 4.35156 20.8457 11.8496 28.3066l212.041 212.078
c16.1641 -40.8145 48.8594 -73.5088 89.6729 -89.6738zM93.1113 49.2617c-10.8984 0 -19.9316 -9.0332 -19.9316 -19.9316s9.0332 -19.9316 19.9316 -19.9316c10.8975 0 19.9307 9.0332 19.9307 19.9316s-9.0332 19.9316 -19.9307 19.9316zM503.808 262.546
c-19.6016 -55.4424 -72.8496 -93.7324 -131.729 -93.7324c-76.9463 0 -139.483 62.5742 -139.483 139.483c0 76.9102 62.5732 139.483 139.483 139.483c22.7109 0 52.333 -6.875 71.3135 -19.6387c3.10938 -2.19434 4.97363 -4.97363 4.97363 -8.7041
c0 -3.4375 -2.19336 -6.83887 -4.97363 -8.7041l-91.209 -52.5898v-69.7412l60.124 -33.3164c10.2393 5.9248 82.5049 51.3828 88.7588 51.3828c6.2168 0 9.94727 -4.64453 9.94727 -10.8984c0 -10.2764 -3.7666 -23.04 -7.20508 -33.0244z" />
    <glyph glyph-name="uniF12B" unicode="&#xf12b;" 
d="M101.098 353.075l25.042 44.6562l274.679 -154.03l-25.042 -44.6562zM123.126 6.90234l274.695 130.083l21.9111 -46.2695l-274.694 -130.084zM102.669 114.417l274.69 130.082l21.9121 -46.2705l-274.69 -130.081zM362.654 221.368
c0 14.167 11.4844 25.6514 25.6562 25.6514v0c14.168 0 25.6514 -11.4844 25.6514 -25.6514v0c0 -14.167 -11.4834 -25.6562 -25.6514 -25.6562v0c-14.1719 0.00488281 -25.6562 11.4941 -25.6562 25.6562v0z" />
    <glyph glyph-name="uniF12C" unicode="&#xf12c;" 
d="M236.324 246.382c0 -21.5039 -17.8096 -39.3506 -39.3506 -39.3506h-157.33c-21.5039 0 -39.3506 17.8096 -39.3506 39.3506v118.016c0 21.5039 17.8096 39.3516 39.3506 39.3516h157.367c21.5039 0 39.3506 -17.8105 39.3506 -39.3516v-118.016h-0.0371094z
M236.324 10.3496c0 -21.5771 -17.8096 -39.3506 -39.3506 -39.3506h-157.33c-21.5039 0 -39.3506 17.7734 -39.3506 39.3506v118.016c0 21.5049 17.8096 39.2783 39.3506 39.2783h157.367c21.5039 0 39.3506 -17.7734 39.3506 -39.2783v-118.016h-0.0371094z
M511.707 246.382c0 -21.5039 -17.7734 -39.3506 -39.3506 -39.3506h-157.367c-21.5039 0 -39.3135 17.8096 -39.3135 39.3506v118.016c0 21.5039 17.8096 39.3516 39.3135 39.3516h157.367c21.5771 0 39.3506 -17.8105 39.3506 -39.3516v-118.016zM511.707 10.3496
c0 -21.5771 -17.7734 -39.3506 -39.3506 -39.3506h-157.367c-21.5039 0 -39.3135 17.7734 -39.3135 39.3506v118.016c0 21.5049 17.8096 39.2783 39.3135 39.2783h157.367c21.5771 0 39.3506 -17.7734 39.3506 -39.2783v-118.016z" />
    <glyph glyph-name="uniF12D" unicode="&#xf12d;" 
d="M73.6914 192.512l328.009 255.635v-512.293z" />
    <glyph glyph-name="uniF12E" unicode="&#xf12e;" 
d="M400.75 54.6016c0 -45.3486 -36.7178 -81.9932 -81.957 -81.9932h-236.836c-45.2393 0 -81.957 36.6445 -81.957 81.9932v236.689c0 45.3125 36.7178 81.9932 81.957 81.9932h236.836c11.4102 0 22.7842 -2.30371 33.3164 -7.02148
c2.52344 -1.13379 4.53516 -3.7666 5.12012 -6.61914c0.548828 -3.07227 -0.291992 -5.96094 -2.59668 -8.22852l-13.9336 -13.9707c-2.55957 -2.52344 -5.96094 -3.36426 -9.10645 -2.23047c-4.27832 1.16992 -8.52051 1.64551 -12.7998 1.64551h-236.836
c-25.0518 0 -45.5322 -20.4434 -45.5322 -45.5684v-236.689c0 -25.1611 20.5166 -45.5684 45.5322 -45.5684h236.836c25.0518 0 45.5312 20.4072 45.5312 45.5684v35.7666c0 2.30371 0.841797 4.57129 2.56055 6.32715l18.2119 18.2119
c2.85352 2.85254 6.54688 3.4375 9.94824 1.93848c3.4375 -1.35352 5.66797 -4.57129 5.66797 -8.15527v-54.0889h0.0371094zM455.424 236.727l-191.269 -191.269h-81.9932v81.9932l191.232 191.269zM285.77 105.728l-43.2646 43.2646l-32.9873 -32.9512v-15.9453h27.3193
v-27.3916h15.9443zM368.604 277.395l-99.6572 -99.6572c-2.52344 -2.4873 -2.81641 -6.83887 -0.255859 -9.3623c2.55957 -2.4873 6.875 -2.19434 9.39844 0.255859l99.6572 99.6572c2.56055 2.59668 2.81641 6.875 0.292969 9.47168
c-2.59668 2.52344 -6.87598 2.26758 -9.43555 -0.365234zM473.637 254.866l-81.9932 81.9932l26.2217 26.2217c10.4961 10.5322 28.1963 10.5322 38.6924 0l43.3008 -43.3008c10.5322 -10.5322 10.5322 -28.1963 0 -38.6553z" />
    <glyph glyph-name="uniF12F" unicode="&#xf12f;" 
d="M513.134 -69.1562h-513.134v384.877h32.0732v-352.768h481.061v-32.1094zM160.365 -5.01074h-64.1455v128.293h64.1455v-128.293zM256.585 -5.01074h-64.1465v256.586h64.1465v-256.586zM352.768 -5.01074h-64.1094v192.439h64.1465v-192.439h-0.0371094z
M448.987 -5.01074h-64.1465v288.659h64.1465v-288.659z" />
    <glyph glyph-name="uniF130" unicode="&#xf130;" 
d="M256 435.456l72.2285 -169.801l183.771 -16.2012l-139.154 -121.125l41.3623 -179.785l-158.208 94.9033l-158.208 -94.9033l41.3623 179.785l-139.154 121.125l183.808 16.2012z" />
    <glyph glyph-name="uniF131" unicode="&#xf131;" 
d="M474.469 358.776l-129.354 -129.262l-51.7041 51.7412l129.353 129.262zM293.412 448.476h218.588v-218.99zM37.5342 25.333l129.363 129.181l51.709 -51.7812l-129.364 -129.182zM218.588 -64.4756h-218.588v219.026z" />
    <glyph glyph-name="uniF132" unicode="&#xf132;" 
d="M0 192c0 39.8262 9.83789 76.5439 29.4404 110.153c19.6387 33.6094 46.2627 60.2334 79.8711 79.8721c33.6094 19.6387 70.3271 29.4395 110.153 29.4395s76.5439 -9.83789 110.19 -29.4395c33.5723 -19.6387 60.1963 -46.2627 79.8721 -79.8721
c19.6016 -33.6094 29.4033 -70.3271 29.4033 -110.153s-9.80176 -76.5439 -29.4404 -110.153c-19.6387 -33.6455 -46.2998 -60.2334 -79.8721 -79.8721c-33.6455 -19.6387 -70.3633 -29.4766 -110.189 -29.4766s-76.5439 9.83789 -110.153 29.4766
c-33.6094 19.6025 -60.2334 46.2266 -79.8721 79.8721c-19.5654 33.6094 -29.4033 70.3271 -29.4033 110.153zM71.4238 219.429c0 -4.9375 1.79199 -9.25293 5.41309 -12.873l129.719 -129.683c3.62012 -3.65723 7.89941 -5.41211 12.873 -5.41211
s9.25293 1.79199 12.873 5.41211l129.683 129.683c3.65723 3.62012 5.41211 7.89941 5.41211 12.873s-1.75488 9.25195 -5.41211 12.873l-29.1113 29.1475c-3.58398 3.62012 -7.8623 5.41211 -12.873 5.41211s-9.28906 -1.79199 -12.873 -5.41211l-87.6982 -87.6982
l-87.6982 87.6982c-3.62109 3.62012 -7.89941 5.41211 -12.873 5.41211s-9.25293 -1.79199 -12.873 -5.41211l-29.1475 -29.1475c-3.62109 -3.62109 -5.41309 -7.89941 -5.41309 -12.873z" />
    <glyph glyph-name="uniF133" unicode="&#xf133;" 
d="M506.624 233.911l-146.286 -146.286c-3.4375 -3.4375 -8.00879 -5.41211 -12.873 -5.41211c-9.9834 0 -18.2852 8.30176 -18.2852 18.2852v73.1436h-64c-123.137 0 -203.996 -23.6982 -203.996 -160c0 -11.7031 0.585938 -23.4424 1.42676 -35.1455
c0.292969 -4.57129 1.42578 -9.72852 1.42578 -14.2998c0 -5.41211 -3.4375 -9.9834 -9.14258 -9.9834c-3.98633 0 -5.99805 2.01074 -8.00879 4.86328c-4.2793 5.99805 -7.42383 15.1406 -10.5693 21.7236c-16.2744 36.5713 -36.2793 88.8691 -36.2793 128.842
c0 32 3.14551 64.8408 15.1406 95.1582c39.7168 98.5605 156.271 115.127 250.003 115.127h64v73.1426c0 9.98438 8.30176 18.2861 18.2852 18.2861c4.86426 0 9.43555 -2.01172 12.873 -5.41211l146.286 -146.286c3.4375 -3.4375 5.41211 -8.00879 5.41211 -12.873
s-2.01074 -9.47266 -5.41211 -12.873z" />
    <glyph glyph-name="uniF134" unicode="&#xf134;" 
d="M460.397 192.914c0 -11.0811 -1.09668 -21.9062 -2.88867 -32.5117l44.0684 -35.5479c-11.666 -42.3125 -33.8281 -80.2373 -63.8174 -110.628l-52.626 20.333c-16.7861 -13.75 -35.9131 -24.6123 -56.5391 -32.5117l-8.77734 -55.8076
c-20.3701 -5.2666 -41.7646 -8.375 -63.8174 -8.375c-22.126 0 -43.4102 3.1084 -63.9268 8.375l-8.77734 55.8076c-20.5898 7.89941 -39.7168 18.7617 -56.5029 32.5117l-52.6992 -20.333c-29.8789 30.3906 -52.041 68.3154 -63.707 110.628l44.0684 35.5107
c-1.75586 10.6064 -2.88965 21.4316 -2.88965 32.5488c0 11.1182 1.13379 21.9434 2.88965 32.5488l-44.0684 35.5479c11.7021 42.2764 33.792 80.2002 63.6709 110.592l52.7725 -20.2979c16.7861 13.7148 35.9131 24.6865 56.5029 32.5127l8.77637 55.8076
c20.4805 5.30273 41.7646 8.375 63.8906 8.375c22.0527 0 43.4473 -3.07227 63.8174 -8.375l8.77734 -55.8076c20.6621 -7.82617 39.7529 -18.7979 56.5752 -32.5127l52.627 20.3711c29.9883 -30.4277 52.1504 -68.3887 63.8164 -110.665l-44.0684 -35.5479
c1.75586 -10.6426 2.85254 -21.4678 2.85254 -32.5488zM256 87.2959c58.3311 0 105.618 47.2871 105.618 105.655s-47.2871 105.618 -105.618 105.618c-58.3682 0 -105.691 -47.251 -105.691 -105.618c0 -58.3682 47.3232 -105.655 105.691 -105.655z" />
    <glyph glyph-name="uniF135" unicode="&#xf135;" 
d="M440.729 284.872l-101.934 -101.914l101.934 -101.97l-72.0537 -71.998l-101.924 101.909l-102.958 -102.958l-72.0439 72.0586l102.933 102.958l-102.933 102.938l72.0439 72.0332l102.958 -102.947l101.924 101.934z" />
    <glyph glyph-name="uniF136" unicode="&#xf136;" 
d="M219.429 411.429c39.8262 0 76.5439 -9.87402 110.153 -29.4766c33.6084 -19.6025 60.2324 -46.2627 79.8721 -79.8721c19.6387 -33.6094 29.4766 -70.3271 29.4766 -110.153s-9.875 -76.5439 -29.4766 -110.189c-19.6025 -33.5723 -46.2637 -60.1963 -79.8721 -79.8721
c-33.6094 -19.6758 -70.3271 -29.4033 -110.153 -29.4033s-76.5078 9.80078 -110.117 29.4395c-33.6455 19.6396 -60.2324 46.2998 -79.8711 79.8721c-19.6025 33.6465 -29.4766 70.3633 -29.4766 110.19c0 39.7891 9.87402 76.5068 29.5127 110.152
c19.5654 33.6094 46.1895 60.2334 79.835 79.8721c33.6094 19.5664 70.3271 29.4404 110.117 29.4404zM192 339.968c-4.9375 0 -9.25293 -1.79199 -12.873 -5.41211l-29.0742 -29.1475c-3.69434 -3.65723 -5.41309 -7.89941 -5.41309 -12.873
c0 -5.01074 1.79199 -9.28906 5.41309 -12.9102l87.6611 -87.6611l-87.6611 -87.6992c-3.65723 -3.58398 -5.37598 -7.8623 -5.37598 -12.873c0 -5.00977 1.79199 -9.28906 5.37598 -12.873l29.1104 -29.1475c3.62109 -3.65723 7.93652 -5.41211 12.873 -5.41211
c4.9375 0 9.2168 1.79199 12.8369 5.41211l129.719 129.683c3.65723 3.62012 5.41309 7.89941 5.41309 12.873s-1.75586 9.28906 -5.41309 12.9102l-129.682 129.719c-3.65723 3.65723 -7.93652 5.41211 -12.9102 5.41211z" />
    <glyph glyph-name="uniF137" unicode="&#xf137;" 
d="M439.223 375.698v-36.5352h-110.299v108.837h37.1924v-35.2549h37.9248v-37.0469h35.1816zM328.924 302.409h110.299v-366.189h-403.017v183.917h107.702v-74.4229h36.791v38.4736h37.7051v35.9492h37.5957v35.9863h36.0225v36.791h-36.0225v36.7549h-37.5957v37.0098
h-37.7051v35.7305h-36.791v-72.7402h-107.702v218.331h255.816v-145.591h22.4551h14.4463z" />
    <glyph glyph-name="uniF138" unicode="&#xf138;" 
d="M389.588 346.521l25.042 -44.6572l-274.675 -154.027l-25.042 44.6562zM138.361 193.317l274.69 -130.082l-21.9111 -46.2695l-274.69 130.081zM153.072 170.168v0c0 -14.1611 -11.4834 -25.6504 -25.6562 -25.6562v0c-14.167 0 -25.6514 11.4893 -25.6514 25.6562v0
c0 14.167 11.4844 25.6514 25.6514 25.6514v0c14.1729 0 25.6562 -11.4785 25.6562 -25.6514z" />
    <glyph glyph-name="uniF139" unicode="&#xf139;" 
d="M508.196 189.77c0 -139.594 -113.335 -252.929 -252.928 -252.929c-139.63 0 -252.965 113.335 -252.965 252.929c0 139.629 113.299 252.928 252.965 252.928c139.63 0 252.928 -113.299 252.928 -252.928zM302.702 349.842c0 2.30469 -1.02441 4.6084 -3.32812 5.9248
c-1.93848 1.64551 -4.90137 2.63379 -7.86328 2.63379h-72.4844c-2.96191 0 -5.9248 -0.988281 -7.89941 -2.63379c-2.30371 -1.31641 -3.29199 -3.62012 -3.29199 -5.9248l5.63281 -204.507c0 -4.6084 4.93652 -8.26562 11.1543 -8.26562h60.9277
c5.96094 0 10.8984 3.65723 11.2275 8.26562zM297.436 94.6465c0 5.88867 -4.6084 10.8252 -10.2031 10.8252h-63.2324c-5.9248 0 -10.8613 -4.93652 -10.8613 -10.8252v-62.6465c0 -5.8877 4.93652 -10.8252 10.8613 -10.8252h63.2324
c5.59473 0 10.2031 4.9375 10.2031 10.8252v62.6465z" />
    <glyph glyph-name="uniF13A" unicode="&#xf13a;" 
d="M87.9512 235.971v66.749h334.592v-66.749h-334.592zM88.7041 102.661v66.749h334.592v-66.749h-334.592z" />
    <glyph glyph-name="uniF13B" unicode="&#xf13b;" 
d="M327.973 191.488l-327.973 -255.635v512.293zM475.429 191.524l-327.973 -255.671v512.293z" />
    <glyph glyph-name="uniF13C" unicode="&#xf13c;" 
d="M54.8574 63.3779h402.212l0.0732422 -35.9492h-402.285v35.9492zM254.354 98.3037l-97.9746 133.596h61.0742v124.672h73.1055v-124.672h61.6602z" />
    <glyph glyph-name="uniF13D" unicode="&#xf13d;" 
d="M147.456 192.512l327.973 255.635v-512.293zM0 192.512l327.973 255.635v-512.293z" />
    <glyph glyph-name="uniF13E" unicode="&#xf13e;" 
d="M514.304 29.1475c0 -23.5889 -19.2725 -42.8613 -42.8613 -42.8613h-428.581c-23.5879 0 -42.8613 19.2725 -42.8613 42.8613v325.705c0 23.5889 19.2734 42.8613 42.8613 42.8613h428.581c23.5889 0 42.8613 -19.2725 42.8613 -42.8613v-325.705zM42.8613 363.41
c-4.57129 0 -8.55762 -4.02246 -8.55762 -8.55762v-325.705c0 -4.53516 4.02344 -8.55762 8.55762 -8.55762h428.581c4.57129 0 8.55762 4.02246 8.55762 8.55762v325.705c0 4.57129 -3.98633 8.55762 -8.55762 8.55762h-428.581zM119.991 226.268
c-28.3799 0 -51.4199 23.04 -51.4199 51.4189c0 28.3799 23.04 51.4561 51.4199 51.4561c28.3789 0 51.4189 -23.04 51.4189 -51.4189c0 -28.3799 -23.0029 -51.4561 -51.4189 -51.4561zM445.732 54.8574h-377.161v51.4189l85.7236 85.7236l42.8613 -42.8613
l137.144 137.143l111.433 -111.434v-119.99z" />
    <glyph glyph-name="uniF13F" unicode="&#xf13f;" 
d="M428.64 260.992h34.624v-137.92h-34.624v34.3359h-346.367v-34.3359h-34.624v137.92h34.624v-34.4326h346.367v34.4326zM58.5752 22.3252l361.933 362.138l22.792 -22.7793l-361.933 -362.138z" />
    <glyph glyph-name="uniF140" unicode="&#xf140;" 
d="M198.543 181.939c0 -10.6289 -8.61621 -19.3027 -19.2871 -19.3027h-38.5527c-10.6709 0 -19.3232 8.63281 -19.3232 19.3027v38.6152c0 10.6182 8.65234 19.2656 19.3232 19.2656h38.5889c10.6699 0 19.2871 -8.64746 19.2871 -19.2656v-38.6152h-0.0361328z
M301.48 181.939c0 -10.6289 -8.63184 -19.3027 -19.3066 -19.3027h-38.6104c-10.6699 0 -19.3232 8.63281 -19.3232 19.3027v38.6152c0 10.6182 8.64844 19.2656 19.3232 19.2656h38.6104c10.6338 0 19.3066 -8.64746 19.3066 -19.2656v-38.6152zM404.342 181.939
c0 -10.6289 -8.59668 -19.3027 -19.3076 -19.3027h-38.5332c-10.6338 0 -19.3076 8.63281 -19.3076 19.3027v38.6152c0 10.6182 8.59668 19.2656 19.3076 19.2656h38.5742c10.6699 0 19.3379 -8.64746 19.3379 -19.2656v-38.6152h-0.0712891zM477.701 108.001
c0 -20.6895 -16.6094 -37.2891 -37.2988 -37.2891h-355.006c-20.7051 0 -37.2988 16.5996 -37.2988 37.2891v186.512c0 20.6895 16.5938 37.2988 37.2988 37.2988h355.047c20.6846 0 37.2939 -16.6094 37.2939 -37.2988v-186.512h-0.0361328zM440.402 294.513h-355.006
v-186.512h355.047v186.512h-0.0410156z" />
    <glyph glyph-name="uniF141" unicode="&#xf141;" 
d="M0.0361328 246.747c0 4.86426 2.01172 9.43555 5.41309 12.873l146.285 146.286c3.43848 3.4375 8.00977 5.41309 12.874 5.41309c9.9834 0 18.2852 -8.30176 18.2852 -18.2861v-73.1426h64c93.7324 0 210.286 -16.5674 250.003 -115.127
c11.9951 -30.2812 15.1406 -63.1592 15.1406 -95.1592c0 -40.0088 -20.0049 -92.2695 -36.2793 -128.841c-3.14551 -6.58301 -6.29004 -15.7256 -10.5693 -21.7236c-2.01172 -2.85254 -3.98633 -4.86426 -8.00879 -4.86426c-5.70508 0 -9.14258 4.57129 -9.14258 9.98438
c0 4.57129 1.13281 9.72754 1.42578 14.2988c0.84082 11.7031 1.42676 23.4424 1.42676 35.1455c0 136.302 -80.8604 160 -203.996 160h-64v-73.1426c0 -9.98438 -8.30176 -18.2861 -18.2852 -18.2861c-4.86426 0 -9.43555 2.01172 -12.874 5.41309l-146.285 146.285
c-3.40137 3.4375 -5.41309 8.00977 -5.41309 12.873z" />
    <glyph glyph-name="uniF142" unicode="&#xf142;" 
d="M433.162 343.511l-138.547 -138.542v-208.512c0 -7.30664 -4.49512 -13.7676 -10.957 -16.5781c-2.24805 -0.845703 -4.78223 -1.40332 -7.02441 -1.40332c-4.78223 0 -9.27734 1.68457 -12.6514 5.33984l-71.9365 71.9414
c-3.37402 3.36914 -5.33984 7.86914 -5.33984 12.6465v136.565l-138.537 138.542c-5.33984 5.05859 -6.74316 12.9229 -3.9375 19.6709c2.81152 6.4668 9.27246 10.9619 16.5791 10.9619h359.7c7.30664 0 13.7627 -4.49512 16.5732 -10.9619
c2.82129 -6.74219 1.41309 -14.6123 -3.92188 -19.6709z" />
    <glyph glyph-name="uniF143" unicode="&#xf143;" 
d="M434.066 409.893l4.82715 -102.217h-12.251c-2.30469 17.9932 -5.52246 30.8662 -9.61816 38.582c-6.62012 12.4346 -15.5068 21.5771 -26.5146 27.502c-11.0811 5.88867 -25.5996 8.81445 -43.5928 8.81445h-61.2939v-332.947
c0 -26.7334 2.88867 -43.4463 8.59375 -50.1387c8.22852 -8.99707 20.7725 -13.4951 37.6689 -13.4951h15.0312v-11.8496h-184.723v11.8496h15.3965c18.4316 0 31.4883 5.52246 39.2051 16.7129c4.68066 6.83887 7.05762 22.4912 7.05762 46.9209v332.946h-52.334
c-20.3701 0 -34.8525 -1.49902 -43.4102 -4.49805c-11.1172 -4.05957 -20.6621 -11.8857 -28.5986 -23.4785c-7.97266 -11.5566 -12.6533 -27.209 -14.1533 -46.9209h-12.251l5.15625 102.217h355.804z" />
    <glyph glyph-name="uniF144" unicode="&#xf144;" 
d="M0 448zM0 246.857c0 4.93652 1.79199 9.25195 5.41211 12.873c3.62109 3.62012 7.89941 5.41211 12.874 5.41211h256c4.93652 0 9.21582 -1.79199 12.873 -5.41211c3.65723 -3.62109 5.41211 -7.89941 5.41211 -12.873s-1.82812 -9.25293 -5.41211 -12.873l-128 -128
c-3.62109 -3.62109 -7.89941 -5.41309 -12.873 -5.41309c-4.97461 0 -9.25293 1.79199 -12.874 5.41309l-128 128c-3.62012 3.62012 -5.41211 7.89941 -5.41211 12.873z" />
    <glyph glyph-name="uniF145" unicode="&#xf145;" 
d="M224 448l0.639648 0.639648c123.521 0 224 -100.479 224 -224c0 -38.3994 -10.8799 -74.8799 -28.1592 -106.239c3.64746 -2.43262 7.16797 -5.18457 10.2393 -8.25684l64 -64c1.91992 -1.79199 3.71191 -3.58398 5.37598 -5.56738
c24 -26.8799 21.5039 -68.1602 -5.37598 -92.0957c-26.9434 -24 -68.2236 -21.5049 -92.1602 5.37598l-64 64c-3.07129 2.55957 -5.82324 5.37598 -8.31934 8.38379c-31.3604 -17.2158 -68.4805 -26.2402 -106.24 -26.2402c-123.52 0 -224 100.48 -224 224
s100.48 224 224 224zM224 384l-0.639648 -0.639648c-88.96 0 -160 -71.04 -160 -160c0 -89.0244 71.04 -160 160 -160c41.5996 0 80 14.7832 108.159 40.3193c2.49609 3.00781 5.3125 5.82422 8.38477 8.32031c0.576172 0.639648 1.21582 1.28027 1.85547 1.85645
c26.8799 28.8633 42.2402 67.9033 42.2402 110.144c0 88.96 -70.9756 160 -160 160z" />
    <glyph glyph-name="uniF146" unicode="&#xf146;" 
d="M256 448c141.384 0 256 -114.616 256 -256s-114.616 -256 -256 -256s-256 114.616 -256 256s114.616 256 256 256zM370.002 28.124v327.752c0 7.79297 -4.4541 9.79395 -10.0195 4.22949l-158.086 -158.086c-1.33594 -1.33594 -2.22656 -2.66699 -2.89258 -4.22852
v150.963c0 7.79297 -6.45605 14.249 -14.249 14.249h-28.498c-7.79199 0 -14.249 -6.45605 -14.249 -14.249v-313.503c0 -7.79199 6.45703 -14.249 14.249 -14.249h28.498c7.79297 0 14.249 6.45703 14.249 14.249v150.958
c0.666016 -1.56152 1.55664 -2.89258 2.89258 -4.22852l158.086 -158.085c5.56543 -5.56543 10.0195 -3.56445 10.0195 4.22852z" />
    <glyph glyph-name="uniF147" unicode="&#xf147;" 
d="M0 448zM0 310.857v18.2852c0 2.66992 0.84082 4.86426 2.55957 6.58301c1.71973 1.75586 3.91309 2.56055 6.58301 2.56055h88.2842l20.0039 47.7256c2.85254 7.05762 8.00977 13.0557 15.4336 17.9932c7.42383 4.93652 14.957 7.42383 22.5645 7.42383h91.4287
c7.60645 0 15.1406 -2.4873 22.5645 -7.42383c7.42383 -4.9375 12.5801 -10.9355 15.4326 -17.9932l20.0049 -47.7256h88.2832c2.63379 0 4.86426 -0.841797 6.58301 -2.56055c1.75586 -1.71875 2.56055 -3.91309 2.56055 -6.58301v-18.2852
c0 -2.66992 -0.841797 -4.86426 -2.56055 -6.58301s-3.91309 -2.56055 -6.58301 -2.56055h-27.4287v-270.848c0 -15.7988 -4.49805 -29.4766 -13.4209 -40.9961c-8.92383 -11.5205 -19.7129 -17.2988 -32.293 -17.2988h-237.714c-12.5811 0 -23.333 5.55859 -32.293 16.7129
s-13.4219 24.6133 -13.4219 40.4121v272.018h-27.4287c-2.66992 0 -4.86328 0.841797 -6.58301 2.56055c-1.75488 1.71875 -2.55957 3.91309 -2.55957 6.58301zM73.1426 30.8662c0 -4.16895 0.695312 -8.0459 2.01172 -11.5566
c1.35352 -3.51074 2.70605 -6.07031 4.13281 -7.7168c1.42578 -1.64551 2.41309 -2.4502 2.99902 -2.41309h237.714c0.584961 0 1.57227 0.804688 2.99902 2.37695c1.42578 1.64551 2.81543 4.20605 4.13281 7.7168c1.2793 3.58398 2.01074 7.42383 2.01074 11.5928v270.848
h-256v-270.848zM109.714 73.1426v164.571c0 2.66992 0.841797 4.86426 2.56055 6.58301c1.71875 1.75586 3.91309 2.56055 6.58301 2.56055h18.2852c2.66992 0 4.86426 -0.841797 6.58301 -2.56055c1.75586 -1.71875 2.56055 -3.91309 2.56055 -6.58301v-164.571
c0 -2.63281 -0.841797 -4.86328 -2.56055 -6.58301c-1.71875 -1.75488 -3.91309 -2.55957 -6.58301 -2.55957h-18.2852c-2.66992 0 -4.86426 0.84082 -6.58301 2.55957c-1.71875 1.71973 -2.56055 3.91309 -2.56055 6.58301zM137.143 338.286h128l-13.7139 33.4258
c-1.35352 1.71875 -2.96191 2.74316 -4.86426 3.14551h-90.5869c-1.90234 -0.402344 -3.54785 -1.42676 -4.86426 -3.14551zM182.857 73.1426v164.571c0 2.66992 0.84082 4.86426 2.55957 6.58301c1.71875 1.75586 3.91309 2.56055 6.58301 2.56055h18.2861
c2.66895 0 4.86328 -0.841797 6.58203 -2.56055c1.75586 -1.71875 2.56055 -3.91309 2.56055 -6.58301v-164.571c0 -2.63281 -0.84082 -4.86328 -2.56055 -6.58301c-1.71875 -1.75488 -3.91309 -2.55957 -6.58203 -2.55957h-18.2861
c-2.66992 0 -4.86426 0.84082 -6.58301 2.55957c-1.71875 1.71973 -2.55957 3.91309 -2.55957 6.58301zM256 73.1426v164.571c0 2.66992 0.84082 4.86426 2.55957 6.58301c1.71973 1.71875 3.91309 2.56055 6.58301 2.56055h18.2861
c2.63281 0 4.86426 -0.841797 6.58301 -2.56055c1.75488 -1.71875 2.55957 -3.91309 2.55957 -6.58301v-164.571c0 -2.63281 -0.84082 -4.86328 -2.55957 -6.58301c-1.71875 -1.75488 -3.87695 -2.55957 -6.58301 -2.55957h-18.2861
c-2.63281 0 -4.86328 0.84082 -6.58301 2.55957c-1.75488 1.71973 -2.55957 3.91309 -2.55957 6.58301z" />
    <glyph glyph-name="uniF148" unicode="&#xf148;" 
d="M256 -64c-141.384 0 -256 114.616 -256 256s114.616 256 256 256s256 -114.616 256 -256s-114.616 -256 -256 -256zM141.998 355.876v-327.752c0 -7.79199 4.4541 -9.7998 10.0195 -4.22852l158.086 158.085c1.33105 1.33594 2.22168 2.66699 2.89258 4.22852v-150.958
c0 -7.79199 6.45605 -14.249 14.249 -14.249h28.498c7.78711 0 14.248 6.45703 14.248 14.249v313.498c0 7.79199 -6.46094 14.249 -14.248 14.249h-28.498c-7.79297 0 -14.249 -6.45703 -14.249 -14.249v-150.958c-0.666016 1.56152 -1.55664 2.89258 -2.89258 4.22852
l-158.086 158.086c-5.56543 5.56445 -10.0195 3.56348 -10.0195 -4.22949z" />
    <glyph glyph-name="uniF149" unicode="&#xf149;" 
d="M0 448zM0 100.571c0 4.9375 1.79199 9.25293 5.41211 12.873l128 128c3.62109 3.62109 7.90039 5.41309 12.874 5.41309s9.25195 -1.79199 12.873 -5.41309l128 -128c3.62012 -3.58398 5.41211 -7.89941 5.41211 -12.873s-1.79199 -9.28906 -5.41211 -12.873
c-3.58398 -3.62012 -7.86328 -5.41211 -12.873 -5.41211h-256c-4.9375 0 -9.2168 1.79199 -12.874 5.41211c-3.62012 3.58398 -5.41211 7.89941 -5.41211 12.873z" />
    <glyph glyph-name="uniF14A" unicode="&#xf14a;" 
d="M476.525 47.835c0 -23.332 -19.0898 -42.4229 -42.4229 -42.4229h-356.242c-23.332 0 -42.4229 19.0908 -42.4229 42.4229v288.366c0 23.333 19.0908 42.4229 42.4229 42.4229h356.242c23.333 0 42.4229 -19.0898 42.4229 -42.4229v-288.366zM171.154 302.3
c0 4.75391 -3.73047 8.48438 -8.48438 8.48438h-84.8096c-4.75391 0 -8.48438 -3.73047 -8.48438 -8.48438v-50.9082c0 -4.75391 3.73047 -8.48438 8.48438 -8.48438h84.8096c4.75391 0 8.48438 3.73047 8.48438 8.48438v50.9082zM171.154 200.484
c0 4.75488 -3.73047 8.48438 -8.48438 8.48438h-84.8096c-4.75391 0 -8.48438 -3.72949 -8.48438 -8.48438v-50.9072c0 -4.79102 3.73047 -8.48438 8.48438 -8.48438h84.8096c4.75391 0 8.48438 3.73047 8.48438 8.48438v50.9072zM171.154 98.7061
c0 4.75488 -3.73047 8.44824 -8.48438 8.44824h-84.8096c-4.75391 0 -8.48438 -3.73047 -8.48438 -8.44824v-50.9072c0 -4.79102 3.73047 -8.48438 8.48438 -8.48438h84.8096c4.75391 0 8.48438 3.73047 8.48438 8.48438v50.9072zM306.907 302.3
c0 4.75391 -3.73047 8.48438 -8.48438 8.48438h-84.8457c-4.79102 0 -8.44824 -3.73047 -8.44824 -8.48438v-50.9082c0 -4.75391 3.69434 -8.48438 8.44824 -8.48438h84.8096c4.79004 0 8.48438 3.73047 8.48438 8.48438v50.9082h0.0361328zM306.907 200.484
c0 4.75488 -3.73047 8.48438 -8.48438 8.48438h-84.8457c-4.79102 0 -8.44824 -3.72949 -8.44824 -8.48438v-50.9072c0 -4.79102 3.69434 -8.48438 8.44824 -8.48438h84.8096c4.79004 0 8.48438 3.73047 8.48438 8.48438v50.9072h0.0361328zM306.907 98.7061
c0 4.75488 -3.73047 8.44824 -8.48438 8.44824h-84.8457c-4.79102 0 -8.44824 -3.73047 -8.44824 -8.44824v-50.9072c0 -4.79102 3.69434 -8.48438 8.44824 -8.48438h84.8096c4.79004 0 8.48438 3.73047 8.48438 8.48438v50.9072h0.0361328zM442.624 302.3
c0 4.75391 -3.73047 8.48438 -8.48438 8.48438h-84.8457c-4.79102 0 -8.44824 -3.73047 -8.44824 -8.48438v-50.9082c0 -4.75391 3.69336 -8.48438 8.44824 -8.48438h84.8086c4.79102 0 8.48535 3.73047 8.48535 8.48438v50.9082h0.0361328zM442.624 200.484
c0 4.75488 -3.73047 8.48438 -8.48438 8.48438h-84.8457c-4.79102 0 -8.44824 -3.72949 -8.44824 -8.48438v-50.9072c0 -4.79102 3.69336 -8.48438 8.44824 -8.48438h84.8086c4.79102 0 8.48535 3.73047 8.48535 8.48438v50.9072h0.0361328zM442.624 98.7061
c0 4.75488 -3.73047 8.44824 -8.48438 8.44824h-84.8457c-4.79102 0 -8.44824 -3.73047 -8.44824 -8.44824v-50.9072c0 -4.79102 3.69336 -8.48438 8.44824 -8.48438h84.8086c4.79102 0 8.48535 3.73047 8.48535 8.48438v50.9072h0.0361328z" />
    <glyph glyph-name="uniF14B" unicode="&#xf14b;" 
d="M161.601 -2.86914c-27.5996 -37.5 -44.6992 -56.5 -61.2002 -60.1992c-19 -4.19922 -26.9004 7.2002 -64.4004 40c-37 32.1992 -36 61.1992 -36 83.8994c0 22.5996 11.3018 61.7002 47.5 121.199c13.6016 22.2998 33.4023 48.8994 54.1016 74.0996
c12.1006 14.7012 30.2002 33.7998 48 51.1016c12.5 12.1992 24.8994 23.6992 35.2002 32.0996c25.1992 20.5996 51.7998 40.5 74.0996 54.0996c59.5 36.2002 105.299 54.2002 127.899 54.2002c22.7002 0 51.7002 0.901367 83.8994 -35.8984
c32.8008 -37.5 44.2002 -45.4004 40 -64.4004c-3.69922 -16.5 -22.7998 -33.5986 -60.1992 -61.2002c-37.4004 -27.5996 -63.4004 -46.2002 -75.7002 -40c-15.4004 7.7002 -23.6006 25.1006 -39.2998 55.7002c-5.59961 11 -18.2998 32.0996 -27.9004 28.2998
c-13.4004 -5.2998 -54.5996 -28 -108.699 -81.0996c-4.5 -4.5 -8.7002 -9 -12.7002 -13.2998v0c-44.2012 -47.6016 -63.7012 -83.3018 -68.6006 -95.6016c-3.7998 -9.69922 17.2002 -22.3984 28.3008 -28c30.5986 -15.6992 48 -23.8994 55.6992 -39.2998
c6.30078 -12.2998 -12.3994 -38.2998 -40 -75.7002z" />
    <glyph glyph-name="uniF14C" unicode="&#xf14c;" 
d="M0 448zM416 361.838c38.2168 0 72.5576 20.8086 96 36.5352v-297.838c-23.4424 -15.7627 -57.7832 -36.5713 -96 -36.5713s-72.5576 11.3369 -96 27.0625s-57.7832 27.0264 -96 27.0264s-72.5576 -19.4199 -96 -35.1084v297.801
c23.4424 15.7256 57.7832 35.2188 96 35.2188s72.5576 -11.3379 96 -27.0635s57.7832 -27.0625 96 -27.0625zM64 448c17.6641 0 32 -14.3359 32 -32v-480h-64v480c0 17.6641 14.3359 32 32 32z" />
    <glyph glyph-name="uniF14D" unicode="&#xf14d;" 
d="M253.111 20.8457c93.4766 0 169.728 76.251 169.728 169.728c0 93.5137 -76.251 169.729 -169.728 169.729c-43.4473 0 -84.5166 -16.5674 -115.347 -45.3848l45.4219 -45.751c6.29004 -5.96191 7.97266 -15.251 4.64453 -22.8936
c-3.29199 -7.93652 -10.9346 -13.2393 -19.5654 -13.2393h-148.517c-11.5938 0 -21.2119 9.61816 -21.2119 21.2109v148.48c0 8.63086 5.30273 16.2373 13.2393 19.5654c7.64258 3.32812 16.9326 1.64551 22.8936 -4.64453l43.0811 -42.752
c46.7383 44.0684 110.043 70.2539 175.36 70.2539c140.215 0 254.573 -114.358 254.573 -254.574c0 -140.215 -114.358 -254.573 -254.573 -254.573v84.8457zM30.9756 50.3223c1.90735e-06 50.1517 25.0758 75.2275 75.2275 75.2275
c50.1517 -7.62939e-06 75.2275 -25.0759 75.2275 -75.2275c0 -50.1517 -25.0759 -75.2275 -75.2275 -75.2275c-50.1517 1.90735e-06 -75.2275 25.0758 -75.2275 75.2275z" />
    <glyph glyph-name="uniF14E" unicode="&#xf14e;" 
d="M226.816 376.612c0 -5.12012 -0.292969 -11.4463 -0.146484 -18.6143c0.402344 -19.6758 -8.22852 -11.0449 -17.6641 -16.7871c-9.43555 -5.74121 -13.5684 -14.7744 -22.5645 -17.2617c-9.0332 -2.41309 -32.4395 -31.1953 -36.9375 -36.9365
c-4.53516 -5.74219 -9.47168 -22.9668 -17.7002 -25.0146c-8.19238 -2.04883 -2.4502 16.8223 -20.9189 20.1143c-18.4688 3.29102 -20.9189 -24.2471 -23.4062 -35.3281c-2.48633 -11.0811 16.0186 -1.20703 24.6494 1.64551
c8.59473 2.88965 1.64551 -9.43555 2.04785 -13.5684c0.439453 -4.0957 4.09668 -15.6152 2.4502 -22.9668c-0.950195 -4.38867 4.6084 -9.17871 9.25293 -12.3604c8.55762 9.21582 19.7119 16.7129 31.4512 11.4834c15.251 -6.7666 40.4844 -16.3477 49.3721 -25.9297
c8.88672 -9.58203 33.7549 -20.2607 39.0576 -24.1738c5.33984 -3.87598 24.4668 -7.38672 20.5898 -15.2871c-3.91309 -7.78906 -6.72949 -10.9707 -13.8242 -24.4658c-7.09473 -13.458 -24.8682 -53.6133 -42.2393 -67.4746
c-17.4082 -13.7871 -19.1641 -16.2744 -24.5029 -27.7207c-4.31543 -9.14258 -4.42578 -16.4941 -6.76562 -18.5781c-4.02344 1.49902 -7.97266 3.25488 -11.8496 5.04688c-0.767578 0.658203 -1.24316 1.09668 -1.24316 1.09668s-7.82617 23.5156 -7.82617 32.3291
c0 8.92383 -8.48535 32.6582 -8.15625 39.4238c0.366211 6.72949 -1.38965 25.1611 -9.21582 31.2324c-7.89941 6.10742 -21.3574 22.0527 -22.418 30.2441c-1.06055 8.15625 -8.15527 32.2568 0.695312 44.3984c0.803711 1.09668 1.64551 2.23047 2.55957 3.36426
c-3.87695 2.30371 -8.99707 5.33984 -13.166 7.5332c-7.78906 4.09668 -8.19141 9.83789 -9.0332 13.9346c-0.804688 4.0957 -10.2393 8.19141 -19.3096 13.9697c-8.99609 5.74219 -5.70508 15.1777 -6.5459 22.126c-0.255859 2.30371 -0.695312 6.5459 0 12.6172
c9.61816 21.3574 23.0029 40.667 39.3145 56.9785c29.915 29.8789 69.7051 49.9932 113.993 54.9297v0zM403.712 298.496c-2.37695 -3.65723 -4.53516 -7.02148 -5.37598 -9.10645c-2.4502 -6.40039 -9.91113 -0.731445 -13.0557 2.81641
c-3.25488 3.54688 -18.1396 1.42578 -22.748 2.48633c-4.68066 1.06055 -14.5918 15.2871 -19.9307 21.3213c-5.33984 6.03418 -10.2773 -8.52148 -14.5557 -12.4346c-4.2793 -3.91309 -9.91113 -14.1895 -17.4082 -14.1895c-7.3877 0 -11.666 25.1611 -11.666 25.1611
l5.96094 -5.99805s5.01074 9.17969 4.31543 13.8242c-0.731445 4.6084 3.18164 2.19434 7.05859 2.88965c3.91309 0.731445 8.19141 13.8232 9.91016 19.8584c0.768555 2.52344 5.33984 6.91113 10.6426 11.1172c17.4082 -9.10645 33.2803 -20.7725 47.0312 -34.5234
c7.2041 -7.2041 13.8232 -14.9941 19.8213 -23.2227v0zM287.927 220.636c0 0 2.88965 7.05762 1.75586 15.25c-1.02441 8.11914 -5.30273 13.458 1.13379 19.5293c6.36328 5.99707 8.52051 8.48438 11.373 12.7637c2.74316 4.27832 4.57129 11.7021 8.44824 14.2256
c3.9502 2.4873 11.666 7.42383 18.5049 6.72949c6.76562 -0.731445 13.459 1.42578 16.6406 0.694336c3.25488 -0.694336 10.6416 -8.52051 18.5049 -10.7148c7.75293 -2.12109 31.2324 -2.12109 34.0479 -4.2793c2.12109 -1.53613 24.0273 -22.2715 35.1084 -38.583
c2.4873 -9.21582 4.2793 -18.7607 5.41309 -28.4883c-2.59668 -28.124 -9.94727 -83.6396 -13.9707 -91.7578c-5.00977 -9.91113 -31.3047 -54.6748 -41.9111 -51.127c-10.7148 3.58398 -4.75391 82.249 -12.1416 97.3164
c-7.31445 15.1035 -2.12109 27.0264 -8.48438 28.4521c-6.39941 1.38965 -49.7373 -9.25195 -56.1006 -1.38965c-6.36328 7.79004 -18.3223 31.3789 -18.3223 31.3789zM256 448c141.422 0 256 -114.615 256 -256c0 -141.349 -114.542 -256 -256 -256
c-141.385 0 -256 114.651 -256 256c0 141.385 114.615 256 256 256zM256 -27.4287c121.197 0 219.429 98.2676 219.429 219.429s-98.1943 219.429 -219.429 219.429c-121.197 0 -219.429 -98.2676 -219.429 -219.429c0 -121.125 98.2676 -219.429 219.429 -219.429z" />
    <glyph glyph-name="uniF14F" unicode="&#xf14f;" 
d="M213.028 39.4971c-10.167 -10.167 -26.1113 -10.167 -36.3154 0l-137.069 137.033c-10.167 10.167 -10.167 26.0752 0 36.3154l35.0723 35.0352c10.2031 10.2041 26.1113 10.2041 36.3154 0l83.8213 -83.8213l206.153 206.153c10.1299 10.167 26.1484 10.167 36.2783 0
l35.1455 -35.0361c10.0576 -10.166 10.0576 -26.1113 0 -36.3516z" />
    <glyph glyph-name="uniF150" unicode="&#xf150;" 
d="M54.8574 63.3779h402.212l0.0732422 -35.9492h-402.285v35.9492zM254.281 356.608l97.9746 -133.596h-61.0742v-124.672h-73.1064v124.672h-61.6592z" />
    <glyph glyph-name="uniF151" unicode="&#xf151;" 
d="M428.64 260.992h34.624v-137.952h-34.624v34.3682h-346.367v-34.3682h-34.624v137.952h34.624v-34.4326h346.367v34.4326z" />
    <glyph glyph-name="uniF152" unicode="&#xf152;" 
d="M114.615 300.471l19.7119 60.8555c45.458 -16.0186 78.4453 -29.8789 98.999 -41.582c-5.44922 51.7119 -8.30176 87.2959 -8.55859 106.715h62.1719c-0.87793 -28.2695 -4.24219 -63.707 -9.87402 -106.276c29.3662 14.8486 63.085 28.5625 101.156 41.1436
l19.7119 -60.8555c-36.3516 -11.9951 -71.9355 -20.0049 -106.715 -23.9902c17.3711 -15.1406 41.9834 -42.1309 73.7275 -81.0059l-51.4561 -36.4258c-16.6396 22.5645 -36.2061 53.2852 -58.7334 92.1602c-21.1748 -40.3018 -39.7529 -70.9854 -55.6982 -92.1602
l-50.5781 36.4258c33.0967 40.8496 56.8311 67.8398 71.1309 81.0059c-36.8271 7.13086 -71.8623 15.1396 -104.996 23.9902z" />
    <glyph glyph-name="uniF153" unicode="&#xf153;" 
d="M512 72.1553c0 -20.2969 -16.2744 -36.5713 -36.5713 -36.5713h-438.857c-20.2969 0 -36.5713 16.2744 -36.5713 36.5713v256c0 20.2969 16.2744 36.5713 36.5713 36.5713h438.857c20.2969 0 36.5713 -16.2744 36.5713 -36.5713v-256zM475.429 328.155h-438.857v-256
h438.857v256zM401.7 106.057v188.197h36.5723v-188.197h-36.5723zM74.6787 106.057v188.197h290.45v-188.197h-290.45zM178.505 127.013v0.0361328h17.957c-1.35352 7.42383 -1.79199 16.6035 -1.79199 25.9658v40.5576c0 21.6875 -8.08203 44.3252 -41.2158 44.3252
c-13.6777 0 -26.6611 -3.80371 -35.6211 -9.61816l4.46191 -13.0566c7.60645 4.97363 18.1396 8.08203 28.1963 8.08203c22.1992 0 24.6494 -16.1279 24.6494 -25.0879v-2.15723c-41.874 0.219727 -65.1699 -14.1162 -65.1699 -40.3389
c0 -15.6885 11.1904 -31.1221 33.1328 -31.1221c15.4697 0 27.0996 7.60742 33.1709 16.0918h0.658203zM175.579 182.345v-18.8701c0 -1.97559 -0.438477 -4.24219 -1.09668 -6.21777c-3.14551 -9.21582 -12.1055 -18.1387 -26.1855 -18.1387
c-10.0938 0 -18.6143 6.03418 -18.6143 18.7969c0 21.0654 24.3926 24.8691 45.8965 24.4297zM225.536 127.013h17.042l0.87793 17.9199h0.62207c8.08203 -14.3359 20.626 -20.3701 36.2783 -20.3701c24.21 0 48.6035 19.2363 48.6035 58.002
c0.255859 32.9141 -18.7979 55.2959 -45.6777 55.2959c-17.4443 0 -29.9883 -7.78906 -36.9375 -19.8945h-0.438477v51.0537h-19.4922v-113.957c0 -9.69141 -0.439453 -20.626 -0.87793 -28.0498zM245.943 170.459v19.4932c0 3.14453 0.658203 5.81445 1.09668 8.08203
c4.02246 15.0312 16.5664 24.21 29.9883 24.21c21.0654 0 32.293 -18.6143 32.293 -40.3379c0 -24.9053 -12.3252 -41.6553 -32.9141 -41.6553c-14.3359 0 -25.7832 9.39941 -29.5869 23.04c-0.438477 2.23145 -0.876953 4.71777 -0.876953 7.16797z" />
    <glyph glyph-name="uniF154" unicode="&#xf154;" 
d="M426.861 181.76v-171.373c0 -15.7998 -12.8359 -28.5625 -28.5254 -28.5625h-285.696c-15.7988 0 -28.5615 12.7998 -28.5615 28.5625v171.373c0 15.7988 12.7998 28.5986 28.5615 28.5986h9.50879v95.1963c0 73.4717 59.8311 133.303 133.303 133.303
c73.5088 0 133.303 -59.8311 133.303 -133.303c0 -10.4229 -8.63086 -19.0537 -19.0537 -19.0537h-19.0166c-10.4229 0 -19.0537 8.59375 -19.0537 19.0537c0 41.9473 -34.2314 76.1777 -76.1787 76.1777s-76.1777 -34.2305 -76.1777 -76.1777v-95.2324h219.062
c15.6895 0 28.5254 -12.7637 28.5254 -28.5625z" />
    <glyph glyph-name="uniF155" unicode="&#xf155;" 
d="M497.664 57.417c0 -23.3691 -19.0537 -42.4229 -42.3867 -42.4229h-390.181c-23.332 0 -42.4229 19.0537 -42.4229 42.4229v288.402c0 23.333 19.0908 42.4229 42.4229 42.4229h390.181c23.333 0 42.3867 -19.0898 42.3867 -42.4229v-288.402zM463.763 277.979
c0 4.49805 -3.9502 8.48438 -8.44824 8.48438h-390.218c-4.49805 0 -8.48438 -3.98633 -8.48438 -8.48438v-220.525c0 -4.49902 3.98633 -8.48535 8.48438 -8.48535h390.181c4.49902 0 8.44824 3.98633 8.44824 8.48535v220.525h0.0371094zM124.452 227.072
c0 -4.49902 -3.98633 -8.48438 -8.48438 -8.48438h-16.9326c-4.49805 0 -8.48438 3.98535 -8.48438 8.48438v16.9688c0 4.49805 3.98633 8.48438 8.48438 8.48438h16.9697c4.49805 0 8.48438 -3.98633 8.48438 -8.48438v-16.9688h-0.0371094zM124.452 159.232
c0 -4.49902 -3.98633 -8.48535 -8.48438 -8.48535h-16.9326c-4.49805 0 -8.48438 3.98633 -8.48438 8.48535v16.9316c0 4.49902 3.98633 8.48535 8.48438 8.48535h16.9697c4.49805 0 8.48438 -3.98633 8.48438 -8.48535v-16.9316h-0.0371094zM124.452 91.3555
c0 -4.49805 -3.98633 -8.48438 -8.48438 -8.48438h-16.9326c-4.49805 0 -8.48438 3.98633 -8.48438 8.48438v16.9688c0 4.49902 3.98633 8.44824 8.48438 8.44824h16.9697c4.49805 0 8.48438 -3.94922 8.48438 -8.44824v-16.9688h-0.0371094zM429.824 227.072
c0 -4.49902 -3.9502 -8.48438 -8.44824 -8.48438h-254.501c-4.49805 0 -8.44727 3.98535 -8.44727 8.48438v16.9688c0 4.49805 3.94922 8.48438 8.44727 8.48438h254.501c4.49805 0 8.44824 -3.98633 8.44824 -8.48438v-16.9688zM429.824 159.232
c0 -4.49902 -3.9502 -8.48535 -8.44824 -8.48535h-254.501c-4.49805 0 -8.44727 3.98633 -8.44727 8.48535v16.9316c0 4.49902 3.94922 8.48535 8.44727 8.48535h254.501c4.49805 0 8.44824 -3.98633 8.44824 -8.48535v-16.9316zM429.824 91.3555
c0 -4.49805 -3.9502 -8.48438 -8.44824 -8.48438h-254.501c-4.49805 0 -8.44727 3.98633 -8.44727 8.48438v16.9688c0 4.49902 3.94922 8.44824 8.44727 8.44824h254.501c4.49805 0 8.44824 -3.94922 8.44824 -8.44824v-16.9688z" />
    <glyph glyph-name="uniF156" unicode="&#xf156;" 
d="M394.709 397.722l25.042 -44.6562l-274.679 -154.03l-25.042 44.6562zM123.002 136.96l274.695 -130.083l-21.9141 -46.2744l-274.695 130.083zM143.481 244.516l274.69 -130.082l-21.9111 -46.2695l-274.69 130.081zM158.192 221.368v0
c0 -14.1621 -11.4844 -25.6514 -25.6562 -25.6562v0c-14.167 0 -25.6514 11.4893 -25.6514 25.6562v0c0 14.167 11.4844 25.6514 25.6514 25.6514v0c14.1719 0 25.6562 -11.4844 25.6562 -25.6514z" />
    <glyph glyph-name="uniF157" unicode="&#xf157;" 
d="M0 448zM0 182.857v54.8564c0 7.60742 2.66992 14.0801 8.00879 19.4199c5.33984 5.33887 11.8125 8.00879 19.4199 8.00879h118.857v118.857c0 7.60645 2.66895 14.0801 8.00879 19.4199c5.33984 5.33887 11.8125 8.00879 19.4189 8.00879h54.8574
c7.60742 0 14.0801 -2.66992 19.4199 -8.00879c5.37598 -5.33984 8.00879 -11.8135 8.00879 -19.4199v-118.857h118.857c7.60645 0 14.0801 -2.66992 19.4189 -8.00879c5.37598 -5.33984 8.00977 -11.8125 8.00977 -19.4199v-54.8564
c0 -7.60742 -2.63379 -14.0801 -8.00977 -19.4199c-5.33887 -5.33887 -11.8125 -8.00879 -19.4189 -8.00879h-118.857v-118.857c0 -7.60645 -2.63281 -14.0801 -8.00879 -19.4189c-5.33984 -5.33984 -11.8125 -8.00977 -19.4199 -8.00977h-54.8574
c-7.60645 0 -14.0791 2.66992 -19.4189 8.00977c-5.33984 5.33887 -8.00879 11.8125 -8.00879 19.4189v118.857h-118.857c-7.60742 0 -14.0801 2.66992 -19.4199 8.00879c-5.33887 5.33984 -8.00879 11.8125 -8.00879 19.4199z" />
    <glyph glyph-name="uniF158" unicode="&#xf158;" 
d="M87.9512 235.971v66.749h334.587v-66.749h-334.587zM88.7041 102.661v66.749h334.592v-66.749h-334.592zM415.688 398.428l27.5361 -27.5361l-355.439 -355.439l-27.5361 27.5371z" />
    <glyph glyph-name="uniF159" unicode="&#xf159;" 
d="M181.018 65.2744l-129.298 -129.298l-51.7197 51.7188l129.299 129.299zM0 154.917h218.588v-218.917zM330.959 318.763l129.363 129.182l51.709 -51.7822l-129.364 -129.181zM512 229.011h-218.588v218.989z" />
    <glyph glyph-name="uniF15A" unicode="&#xf15a;" 
d="M63.7285 113.024l64.2256 -64.1592l64.1377 -64.1787l-74.8027 -10.6855l-74.834 -10.5889l10.6035 74.7725zM213.243 49.2646l192.466 192.543l21.3301 -21.3613l-213.796 -213.888l-128.338 128.276l213.857 213.883l21.4268 -21.3555l-192.558 -192.527
l21.3809 -21.3242l192.471 192.46l42.8496 -42.8076l-192.451 -192.532zM493.48 325.96c11.7305 -11.7305 12.1504 -30.6182 0.866211 -41.8818l-3.12402 -2.02246l0.568359 -0.568359l-41.083 -41.0518l-128.307 128.312l41.0771 41.1094l0.507812 -0.568359
l2.10938 3.12793c11.2324 11.1973 30.0947 10.8701 41.8604 -0.865234z" />
    <glyph glyph-name="uniF15B" unicode="&#xf15b;" 
d="M0 192c0 39.8262 9.83789 76.5439 29.4404 110.153c19.6387 33.6094 46.2627 60.2334 79.8711 79.8721c33.6094 19.6387 70.3271 29.4395 110.153 29.4395s76.5439 -9.83789 110.19 -29.4395c33.5723 -19.6387 60.1963 -46.2627 79.8721 -79.8721
c19.6016 -33.6094 29.4033 -70.3271 29.4033 -110.153s-9.80176 -76.5439 -29.4404 -110.153c-19.6387 -33.6455 -46.2998 -60.2334 -79.8721 -79.8721c-33.6455 -19.6387 -70.3633 -29.4766 -110.189 -29.4766s-76.5439 9.83789 -110.153 29.4766
c-33.6094 19.6025 -60.2334 46.2266 -79.8721 79.8721c-19.5654 33.6094 -29.4033 70.3271 -29.4033 110.153zM71.4238 164.571c0 -4.93652 1.79199 -9.25293 5.41309 -12.873l29.1475 -29.1475c3.62012 -3.65723 7.89941 -5.41211 12.873 -5.41211
s9.25195 1.79199 12.873 5.41211l87.6982 87.6982l87.6982 -87.6611c3.58398 -3.65723 7.8623 -5.41309 12.873 -5.41309s9.28906 1.79199 12.873 5.41309l29.1475 29.1465c3.65723 3.58398 5.41309 7.90039 5.41309 12.874s-1.79199 9.21582 -5.44922 12.8359
l-129.683 129.719c-3.62012 3.62109 -7.89941 5.41309 -12.873 5.41309s-9.25293 -1.79199 -12.873 -5.41309l-129.719 -129.719c-3.62109 -3.62012 -5.41309 -7.89941 -5.41309 -12.873z" />
  </font>
</defs>
</svg>
